<?xml version="1.0" ?>
<svg xmlns="http://www.w3.org/2000/svg" xmlns:xlink="http://www.w3.org/1999/xlink" version="1.1" width="2390" height="390">
	<rect x="249.3305785123967" y="32" width="19.33884297520661" height="380" fill="#eeeeee" fill-opacity="0.5"/>
	<defs/>
	<g stroke="#eeeeee" stroke-width="1">
		<path d="M58,362V67"/>
		<path d="M77,362V67"/>
		<path d="M97,362V67"/>
		<path d="M116,362V67"/>
		<path d="M135,362V67"/>
		<path d="M154,362V67"/>
		<path d="M173,362V67"/>
		<path d="M192,362V67"/>
		<path d="M212,362V67"/>
		<path d="M231,362V67"/>
		<path d="M250,362V67"/>
		<path d="M269,362V67"/>
		<path d="M288,362V67"/>
		<path d="M308,362V67"/>
		<path d="M327,362V67"/>
		<path d="M346,362V67"/>
		<path d="M365,362V67"/>
		<path d="M384,362V67"/>
		<path d="M403,362V67"/>
		<path d="M423,362V67"/>
		<path d="M442,362V67"/>
		<path d="M461,362V67"/>
		<path d="M480,362V67"/>
		<path d="M499,362V67"/>
		<path d="M519,362V67"/>
		<path d="M538,362V67"/>
		<path d="M557,362V67"/>
		<path d="M576,362V67"/>
		<path d="M595,362V67"/>
		<path d="M614,362V67"/>
		<path d="M634,362V67"/>
		<path d="M653,362V67"/>
		<path d="M672,362V67"/>
		<path d="M691,362V67"/>
		<path d="M710,362V67"/>
		<path d="M729,362V67"/>
		<path d="M749,362V67"/>
		<path d="M768,362V67"/>
		<path d="M787,362V67"/>
		<path d="M806,362V67"/>
		<path d="M825,362V67"/>
		<path d="M845,362V67"/>
		<path d="M864,362V67"/>
		<path d="M883,362V67"/>
		<path d="M902,362V67"/>
		<path d="M921,362V67"/>
		<path d="M940,362V67"/>
		<path d="M960,362V67"/>
		<path d="M979,362V67"/>
		<path d="M998,362V67"/>
		<path d="M1017,362V67"/>
		<path d="M1036,362V67"/>
		<path d="M1056,362V67"/>
		<path d="M1075,362V67"/>
		<path d="M1094,362V67"/>
		<path d="M1113,362V67"/>
		<path d="M1132,362V67"/>
		<path d="M1151,362V67"/>
		<path d="M1171,362V67"/>
		<path d="M1190,362V67"/>
		<path d="M1209,362V67"/>
		<path d="M1228,362V67"/>
		<path d="M1247,362V67"/>
		<path d="M1267,362V67"/>
		<path d="M1286,362V67"/>
		<path d="M1305,362V67"/>
		<path d="M1324,362V67"/>
		<path d="M1343,362V67"/>
		<path d="M1362,362V67"/>
		<path d="M1382,362V67"/>
		<path d="M1401,362V67"/>
		<path d="M1420,362V67"/>
		<path d="M1439,362V67"/>
		<path d="M1458,362V67"/>
		<path d="M1478,362V67"/>
		<path d="M1497,362V67"/>
		<path d="M1516,362V67"/>
		<path d="M1535,362V67"/>
		<path d="M1554,362V67"/>
		<path d="M1573,362V67"/>
		<path d="M1593,362V67"/>
		<path d="M1612,362V67"/>
		<path d="M1631,362V67"/>
		<path d="M1650,362V67"/>
		<path d="M1669,362V67"/>
		<path d="M1689,362V67"/>
		<path d="M1708,362V67"/>
		<path d="M1727,362V67"/>
		<path d="M1746,362V67"/>
		<path d="M1765,362V67"/>
		<path d="M1784,362V67"/>
		<path d="M1804,362V67"/>
		<path d="M1823,362V67"/>
		<path d="M1842,362V67"/>
		<path d="M1861,362V67"/>
		<path d="M1880,362V67"/>
		<path d="M1899,362V67"/>
		<path d="M1919,362V67"/>
		<path d="M1938,362V67"/>
		<path d="M1957,362V67"/>
		<path d="M1976,362V67"/>
		<path d="M1995,362V67"/>
		<path d="M2015,362V67"/>
		<path d="M2034,362V67"/>
		<path d="M2053,362V67"/>
		<path d="M2072,362V67"/>
		<path d="M2091,362V67"/>
		<path d="M2110,362V67"/>
		<path d="M2130,362V67"/>
		<path d="M2149,362V67"/>
		<path d="M2168,362V67"/>
		<path d="M2187,362V67"/>
		<path d="M2206,362V67"/>
		<path d="M2226,362V67"/>
		<path d="M2245,362V67"/>
		<path d="M2264,362V67"/>
		<path d="M2283,362V67"/>
		<path d="M2302,362V67"/>
		<path d="M2321,362V67"/>
		<path d="M2341,362V67"/>
		<path d="M2360,362V67"/>
	</g>
	<g stroke="#cdcdcd" stroke-width="1">
		<path d="M327,362V67"/>
		<path d="M787,362V67"/>
		<path d="M1247,362V67"/>
		<path d="M1708,362V67"/>
		<path d="M1899,362V67"/>
		<path d="M2053,362V67"/>
		<path d="M2130,362V67"/>
		<path d="M2206,362V67"/>
		<path d="M2283,362V67"/>
		<path d="M2360,362V67"/>
	</g>
	<g stroke="#cdcdcd" stroke-width="1">
		<path d="M38,362H2379"/>
		<path d="M38,341H2379"/>
		<path d="M38,320H2379"/>
		<path d="M38,299H2379"/>
		<path d="M38,278H2379"/>
		<path d="M38,257H2379"/>
		<path d="M38,236H2379"/>
		<path d="M38,215H2379"/>
		<path d="M38,193H2379"/>
		<path d="M38,172H2379"/>
		<path d="M38,151H2379"/>
		<path d="M38,130H2379"/>
		<path d="M38,109H2379"/>
		<path d="M38,88H2379"/>
		<path d="M38,67H2379"/>
	</g>
	<g fill="#000" font-size="13" font-weight="bold" text-anchor="middle">
		<text x="48" y="25">LA</text>
		<text x="336" y="25">SU</text>
		<text x="796" y="25">MA</text>
		<text x="1257" y="25">TI</text>
		<text x="1717" y="25">KE</text>
		<text x="1909" y="25">TO</text>
		<text x="2062" y="25">PE</text>
		<text x="2139" y="25">LA</text>
		<text x="2216" y="25">SU</text>
		<text x="2292" y="25">MA</text>
		<text x="2369" y="25">TI</text>
	</g>
	<g fill="#000" font-size="12" font-weight="regular" text-anchor="middle">
		<text x="48" y="59">09</text>
		<text x="67" y="59">10</text>
		<text x="87" y="59">11</text>
		<text x="106" y="59">12</text>
		<text x="125" y="59">13</text>
		<text x="144" y="59">14</text>
		<text x="163" y="59">15</text>
		<text x="182" y="59">16</text>
		<text x="202" y="59">17</text>
		<text x="221" y="59">18</text>
		<text x="240" y="59">19</text>
		<text x="259" y="59">20</text>
		<text x="278" y="59">21</text>
		<text x="298" y="59">22</text>
		<text x="317" y="59">23</text>
		<text x="336" y="59">00</text>
		<text x="355" y="59">01</text>
		<text x="374" y="59">02</text>
		<text x="393" y="59">03</text>
		<text x="413" y="59">04</text>
		<text x="432" y="59">05</text>
		<text x="451" y="59">06</text>
		<text x="470" y="59">07</text>
		<text x="489" y="59">08</text>
		<text x="509" y="59">09</text>
		<text x="528" y="59">10</text>
		<text x="547" y="59">11</text>
		<text x="566" y="59">12</text>
		<text x="585" y="59">13</text>
		<text x="604" y="59">14</text>
		<text x="624" y="59">15</text>
		<text x="643" y="59">16</text>
		<text x="662" y="59">17</text>
		<text x="681" y="59">18</text>
		<text x="700" y="59">19</text>
		<text x="719" y="59">20</text>
		<text x="739" y="59">21</text>
		<text x="758" y="59">22</text>
		<text x="777" y="59">23</text>
		<text x="796" y="59">00</text>
		<text x="815" y="59">01</text>
		<text x="835" y="59">02</text>
		<text x="854" y="59">03</text>
		<text x="873" y="59">04</text>
		<text x="892" y="59">05</text>
		<text x="911" y="59">06</text>
		<text x="930" y="59">07</text>
		<text x="950" y="59">08</text>
		<text x="969" y="59">09</text>
		<text x="988" y="59">10</text>
		<text x="1007" y="59">11</text>
		<text x="1026" y="59">12</text>
		<text x="1046" y="59">13</text>
		<text x="1065" y="59">14</text>
		<text x="1084" y="59">15</text>
		<text x="1103" y="59">16</text>
		<text x="1122" y="59">17</text>
		<text x="1141" y="59">18</text>
		<text x="1161" y="59">19</text>
		<text x="1180" y="59">20</text>
		<text x="1199" y="59">21</text>
		<text x="1218" y="59">22</text>
		<text x="1237" y="59">23</text>
		<text x="1257" y="59">00</text>
		<text x="1276" y="59">01</text>
		<text x="1295" y="59">02</text>
		<text x="1314" y="59">03</text>
		<text x="1333" y="59">04</text>
		<text x="1352" y="59">05</text>
		<text x="1372" y="59">06</text>
		<text x="1391" y="59">07</text>
		<text x="1410" y="59">08</text>
		<text x="1429" y="59">09</text>
		<text x="1448" y="59">10</text>
		<text x="1468" y="59">11</text>
		<text x="1487" y="59">12</text>
		<text x="1506" y="59">13</text>
		<text x="1525" y="59">14</text>
		<text x="1544" y="59">15</text>
		<text x="1563" y="59">16</text>
		<text x="1583" y="59">17</text>
		<text x="1602" y="59">18</text>
		<text x="1621" y="59">19</text>
		<text x="1640" y="59">20</text>
		<text x="1659" y="59">21</text>
		<text x="1679" y="59">22</text>
		<text x="1698" y="59">23</text>
		<text x="1717" y="59">00</text>
		<text x="1736" y="59">01</text>
		<text x="1755" y="59">02</text>
		<text x="1774" y="59">05</text>
		<text x="1794" y="59">08</text>
		<text x="1813" y="59">11</text>
		<text x="1832" y="59">14</text>
		<text x="1851" y="59">17</text>
		<text x="1870" y="59">20</text>
		<text x="1889" y="59">23</text>
		<text x="1909" y="59">02</text>
		<text x="1928" y="59">05</text>
		<text x="1947" y="59">08</text>
		<text x="1966" y="59">11</text>
		<text x="1985" y="59">14</text>
		<text x="2005" y="59">17</text>
		<text x="2024" y="59">20</text>
		<text x="2043" y="59">23</text>
		<text x="2062" y="59">02</text>
		<text x="2081" y="59">08</text>
		<text x="2100" y="59">14</text>
		<text x="2120" y="59">20</text>
		<text x="2139" y="59">02</text>
		<text x="2158" y="59">08</text>
		<text x="2177" y="59">14</text>
		<text x="2196" y="59">20</text>
		<text x="2216" y="59">02</text>
		<text x="2235" y="59">08</text>
		<text x="2254" y="59">14</text>
		<text x="2273" y="59">20</text>
		<text x="2292" y="59">02</text>
		<text x="2311" y="59">08</text>
		<text x="2331" y="59">14</text>
		<text x="2350" y="59">20</text>
		<text x="2369" y="59">02</text>
	</g>
	<g fill="#000" font-size="13" font-weight="regular" text-anchor="middle">
		<text x="48" y="42">17.2.</text>
		<text x="336" y="42">18.2.</text>
		<text x="796" y="42">19.2.</text>
		<text x="1257" y="42">20.2.</text>
		<text x="1717" y="42">21.2.</text>
		<text x="1909" y="42">22.2.</text>
		<text x="2062" y="42">23.2.</text>
		<text x="2139" y="42">24.2.</text>
		<text x="2216" y="42">25.2.</text>
		<text x="2292" y="42">26.2.</text>
		<text x="2369" y="42">27.2.</text>
	</g>
	<image x="14" y="370" width="18" height="18" xlink:href="/assets/scale.svg"/>
	<image x="41.5" y="372" width="13" height="13" xlink:href="/assets/eur-green.svg"/>
	<image x="60.5" y="372" width="13" height="13" xlink:href="/assets/eur-green.svg"/>
	<image x="80.5" y="372" width="13" height="13" xlink:href="/assets/eur-green.svg"/>
	<image x="99.5" y="372" width="13" height="13" xlink:href="/assets/eur-green.svg"/>
	<image x="118.5" y="372" width="13" height="13" xlink:href="/assets/eur-green.svg"/>
	<image x="137.5" y="372" width="13" height="13" xlink:href="/assets/eur-green.svg"/>
	<image x="156.5" y="372" width="13" height="13" xlink:href="/assets/eur-green.svg"/>
	<image x="175.5" y="372" width="13" height="13" xlink:href="/assets/eur-green.svg"/>
	<image x="195.5" y="372" width="13" height="13" xlink:href="/assets/eur-green.svg"/>
	<image x="214.5" y="372" width="13" height="13" xlink:href="/assets/eur-green.svg"/>
	<image x="233.5" y="372" width="13" height="13" xlink:href="/assets/eur-green.svg"/>
	<image x="252.5" y="372" width="13" height="13" xlink:href="/assets/eur-green.svg"/>
	<image x="271.5" y="372" width="13" height="13" xlink:href="/assets/eur-green.svg"/>
	<image x="291.5" y="372" width="13" height="13" xlink:href="/assets/eur-green.svg"/>
	<image x="310.5" y="372" width="13" height="13" xlink:href="/assets/eur-green.svg"/>
	<image x="329.5" y="372" width="13" height="13" xlink:href="/assets/eur-green.svg"/>
	<image x="348.5" y="372" width="13" height="13" xlink:href="/assets/eur-green.svg"/>
	<image x="367.5" y="372" width="13" height="13" xlink:href="/assets/eur-green.svg"/>
	<image x="386.5" y="372" width="13" height="13" xlink:href="/assets/eur-green.svg"/>
	<image x="406.5" y="372" width="13" height="13" xlink:href="/assets/eur-green.svg"/>
	<image x="425.5" y="372" width="13" height="13" xlink:href="/assets/eur-green.svg"/>
	<image x="444.5" y="372" width="13" height="13" xlink:href="/assets/eur-green.svg"/>
	<image x="463.5" y="372" width="13" height="13" xlink:href="/assets/eur-green.svg"/>
	<image x="482.5" y="372" width="13" height="13" xlink:href="/assets/eur-green.svg"/>
	<image x="502.5" y="372" width="13" height="13" xlink:href="/assets/eur-yellow.svg"/>
	<image x="521.5" y="372" width="13" height="13" xlink:href="/assets/eur-yellow.svg"/>
	<image x="540.5" y="372" width="13" height="13" xlink:href="/assets/eur-yellow.svg"/>
	<image x="559.5" y="372" width="13" height="13" xlink:href="/assets/eur-red.svg"/>
	<image x="578.5" y="372" width="13" height="13" xlink:href="/assets/eur-red.svg"/>
	<image x="597.5" y="372" width="13" height="13" xlink:href="/assets/eur-red.svg"/>
	<image x="617.5" y="372" width="13" height="13" xlink:href="/assets/eur-red.svg"/>
	<image x="636.5" y="372" width="13" height="13" xlink:href="/assets/eur-red.svg"/>
	<image x="655.5" y="372" width="13" height="13" xlink:href="/assets/eur-yellow.svg"/>
	<image x="674.5" y="372" width="13" height="13" xlink:href="/assets/eur-yellow.svg"/>
	<image x="693.5" y="372" width="13" height="13" xlink:href="/assets/eur-yellow.svg"/>
	<image x="712.5" y="372" width="13" height="13" xlink:href="/assets/eur-yellow.svg"/>
	<image x="732.5" y="372" width="13" height="13" xlink:href="/assets/eur-yellow.svg"/>
	<image x="751.5" y="372" width="13" height="13" xlink:href="/assets/eur-yellow.svg"/>
	<image x="770.5" y="372" width="13" height="13" xlink:href="/assets/eur-yellow.svg"/>
	<image x="789.5" y="372" width="13" height="13" xlink:href="/assets/eur-yellow.svg"/>
	<image x="808.5" y="372" width="13" height="13" xlink:href="/assets/eur-yellow.svg"/>
	<image x="828.5" y="372" width="13" height="13" xlink:href="/assets/eur-yellow.svg"/>
	<image x="847.5" y="372" width="13" height="13" xlink:href="/assets/eur-yellow.svg"/>
	<image x="866.5" y="372" width="13" height="13" xlink:href="/assets/eur-yellow.svg"/>
	<image x="885.5" y="372" width="13" height="13" xlink:href="/assets/eur-yellow.svg"/>
	<image x="904.5" y="372" width="13" height="13" xlink:href="/assets/eur-yellow.svg"/>
	<image x="923.5" y="372" width="13" height="13" xlink:href="/assets/eur-yellow.svg"/>
	<image x="943.5" y="372" width="13" height="13" xlink:href="/assets/eur-yellow.svg"/>
	<image x="962.5" y="372" width="13" height="13" xlink:href="/assets/eur-yellow.svg"/>
	<image x="981.5" y="372" width="13" height="13" xlink:href="/assets/eur-yellow.svg"/>
	<image x="1000.5" y="372" width="13" height="13" xlink:href="/assets/eur-red.svg"/>
	<image x="1019.5" y="372" width="13" height="13" xlink:href="/assets/eur-red.svg"/>
	<image x="1039.5" y="372" width="13" height="13" xlink:href="/assets/eur-red.svg"/>
	<image x="1058.5" y="372" width="13" height="13" xlink:href="/assets/eur-red.svg"/>
	<image x="1077.5" y="372" width="13" height="13" xlink:href="/assets/eur-red.svg"/>
	<image x="1096.5" y="372" width="13" height="13" xlink:href="/assets/eur-red.svg"/>
	<image x="1115.5" y="372" width="13" height="13" xlink:href="/assets/eur-red.svg"/>
	<image x="1134.5" y="372" width="13" height="13" xlink:href="/assets/eur-red.svg"/>
	<image x="1154.5" y="372" width="13" height="13" xlink:href="/assets/eur-red.svg"/>
	<image x="1173.5" y="372" width="13" height="13" xlink:href="/assets/eur-red.svg"/>
	<image x="1192.5" y="372" width="13" height="13" xlink:href="/assets/eur-yellow.svg"/>
	<image x="1211.5" y="372" width="13" height="13" xlink:href="/assets/eur-yellow.svg"/>
	<image x="1230.5" y="372" width="13" height="13" xlink:href="/assets/eur-yellow.svg"/>
	<image x="1250.5" y="372" width="13" height="13" xlink:href="/assets/eur-yellow.svg"/>
	<image x="1269.5" y="372" width="13" height="13" xlink:href="/assets/eur-yellow.svg"/>
	<image x="1288.5" y="372" width="13" height="13" xlink:href="/assets/eur-yellow.svg"/>
	<image x="1307.5" y="372" width="13" height="13" xlink:href="/assets/eur-yellow.svg"/>
	<image x="1326.5" y="372" width="13" height="13" xlink:href="/assets/eur-yellow.svg"/>
	<image x="1345.5" y="372" width="13" height="13" xlink:href="/assets/eur-yellow.svg"/>
	<image x="1365.5" y="372" width="13" height="13" xlink:href="/assets/eur-yellow.svg"/>
	<image x="1384.5" y="372" width="13" height="13" xlink:href="/assets/eur-yellow.svg"/>
	<image x="1403.5" y="372" width="13" height="13" xlink:href="/assets/eur-yellow.svg"/>
	<image x="1422.5" y="372" width="13" height="13" xlink:href="/assets/eur-yellow.svg"/>
	<image x="1441.5" y="372" width="13" height="13" xlink:href="/assets/eur-yellow.svg"/>
	<image x="1461.5" y="372" width="13" height="13" xlink:href="/assets/eur-red.svg"/>
	<image x="1480.5" y="372" width="13" height="13" xlink:href="/assets/eur-red.svg"/>
	<image x="1499.5" y="372" width="13" height="13" xlink:href="/assets/eur-red.svg"/>
	<image x="1518.5" y="372" width="13" height="13" xlink:href="/assets/eur-red.svg"/>
	<image x="1537.5" y="372" width="13" height="13" xlink:href="/assets/eur-red.svg"/>
	<image x="1556.5" y="372" width="13" height="13" xlink:href="/assets/eur-red.svg"/>
	<image x="1576.5" y="372" width="13" height="13" xlink:href="/assets/eur-red.svg"/>
	<image x="1595.5" y="372" width="13" height="13" xlink:href="/assets/eur-red.svg"/>
	<image x="1614.5" y="372" width="13" height="13" xlink:href="/assets/eur-red.svg"/>
	<image x="1633.5" y="372" width="13" height="13" xlink:href="/assets/eur-red.svg"/>
	<image x="1652.5" y="372" width="13" height="13" xlink:href="/assets/eur-red.svg"/>
	<image x="1672.5" y="372" width="13" height="13" xlink:href="/assets/eur-red.svg"/>
	<image x="1691.5" y="372" width="13" height="13" xlink:href="/assets/eur-yellow.svg"/>
	<image x="1710.5" y="372" width="13" height="13" xlink:href="/assets/eur-yellow.svg"/>
	<image x="1729.5" y="372" width="13" height="13" xlink:href="/assets/eur-yellow.svg"/>
	<image x="1748.5" y="372" width="13" height="13" xlink:href="/assets/eur-yellow.svg"/>
	<image x="1767.5" y="372" width="13" height="13" xlink:href="/assets/eur-yellow.svg"/>
	<image x="1787.5" y="372" width="13" height="13" xlink:href="/assets/eur-yellow.svg"/>
	<image x="1806.5" y="372" width="13" height="13" xlink:href="/assets/eur-red.svg"/>
	<image x="1825.5" y="372" width="13" height="13" xlink:href="/assets/eur-yellow.svg"/>
	<image x="1844.5" y="372" width="13" height="13" xlink:href="/assets/eur-yellow.svg"/>
	<image x="1863.5" y="372" width="13" height="13" xlink:href="/assets/eur-yellow.svg"/>
	<image x="1882.5" y="372" width="13" height="13" xlink:href="/assets/eur-yellow.svg"/>
	<image x="1902.5" y="372" width="13" height="13" xlink:href="/assets/eur-yellow.svg"/>
	<image x="1921.5" y="372" width="13" height="13" xlink:href="/assets/eur-yellow.svg"/>
	<image x="1940.5" y="372" width="13" height="13" xlink:href="/assets/eur-yellow.svg"/>
	<image x="1959.5" y="372" width="13" height="13" xlink:href="/assets/eur-yellow.svg"/>
	<image x="1978.5" y="372" width="13" height="13" xlink:href="/assets/eur-yellow.svg"/>
	<image x="1998.5" y="372" width="13" height="13" xlink:href="/assets/eur-yellow.svg"/>
	<image x="2017.5" y="372" width="13" height="13" xlink:href="/assets/eur-green.svg"/>
	<image x="2036.5" y="372" width="13" height="13" xlink:href="/assets/eur-green.svg"/>
	<image x="2055.5" y="372" width="13" height="13" xlink:href="/assets/eur-green.svg"/>
	<image x="2074.5" y="372" width="13" height="13" xlink:href="/assets/eur-green.svg"/>
	<image x="2093.5" y="372" width="13" height="13" xlink:href="/assets/eur-green.svg"/>
	<image x="2113.5" y="372" width="13" height="13" xlink:href="/assets/eur-green.svg"/>
	<image x="2132.5" y="372" width="13" height="13" xlink:href="/assets/eur-green.svg"/>
	<image x="2151.5" y="372" width="13" height="13" xlink:href="/assets/eur-green.svg"/>
	<image x="2170.5" y="372" width="13" height="13" xlink:href="/assets/eur-yellow.svg"/>
	<image x="2189.5" y="372" width="13" height="13" xlink:href="/assets/eur-green.svg"/>
	<image x="2209.5" y="372" width="13" height="13" xlink:href="/assets/eur-green.svg"/>
	<image x="2228.5" y="372" width="13" height="13" xlink:href="/assets/eur-green.svg"/>
	<image x="2247.5" y="372" width="13" height="13" xlink:href="/assets/eur-green.svg"/>
	<image x="2266.5" y="372" width="13" height="13" xlink:href="/assets/eur-green.svg"/>
	<image x="2285.5" y="372" width="13" height="13" xlink:href="/assets/eur-yellow.svg"/>
	<image x="2304.5" y="372" width="13" height="13" xlink:href="/assets/eur-red.svg"/>
	<image x="2324.5" y="372" width="13" height="13" xlink:href="/assets/eur-yellow.svg"/>
	<image x="2343.5" y="372" width="13" height="13" xlink:href="/assets/eur-green.svg"/>
	<image x="2362.5" y="372" width="13" height="13" xlink:href="/assets/eur-green.svg"/>
	<path d="M48,198C51.166666666666664,194.5,60.5,184,67,177C73.5,170,80.5,163.83333333333334,87,156C93.5,148.16666666666666,99.66666666666667,135,106,130C112.33333333333333,125,118.66666666666667,126.66666666666667,125,126C131.33333333333334,125.33333333333333,137.66666666666666,126,144,126C150.33333333333334,126,156.66666666666666,128.83333333333334,163,126C169.33333333333334,123.16666666666667,175.5,111.83333333333333,182,109C188.5,106.16666666666667,195.5,109,202,109C208.5,109,214.66666666666666,109.66666666666667,221,109C227.33333333333334,108.33333333333333,233.66666666666666,105.66666666666667,240,105C246.33333333333334,104.33333333333333,252.66666666666666,105,259,105C265.3333333333333,105,271.5,105.66666666666667,278,105C284.5,104.33333333333333,291.5,101,298,101C304.5,101,310.6666666666667,103.66666666666667,317,105C323.3333333333333,106.33333333333333,329.6666666666667,106.83333333333333,336,109C342.3333333333333,111.16666666666667,348.6666666666667,115.16666666666667,355,118C361.3333333333333,120.83333333333333,367.6666666666667,122.5,374,126C380.3333333333333,129.5,386.5,135.5,393,139C399.5,142.5,406.5,143.5,413,147C419.5,150.5,425.6666666666667,155.83333333333334,432,160C438.3333333333333,164.16666666666666,444.6666666666667,166.5,451,172C457.3333333333333,177.5,463.6666666666667,185.83333333333334,470,193C476.3333333333333,200.16666666666666,482.5,208.66666666666666,489,215C495.5,221.33333333333334,502.5,223.33333333333334,509,231C515.5,238.66666666666666,521.6666666666666,256,528,261C534.3333333333334,266,540.6666666666666,251.83333333333334,547,261C553.3333333333334,270.1666666666667,559.6666666666666,304,566,316C572.3333333333334,328,578.6666666666666,330.1666666666667,585,333C591.3333333333334,335.8333333333333,597.5,334.5,604,333C610.5,331.5,617.5,329,624,324C630.5,319,636.6666666666666,314.1666666666667,643,303C649.3333333333334,291.8333333333333,655.6666666666666,267.5,662,257C668.3333333333334,246.5,674.6666666666666,243.5,681,240C687.3333333333334,236.5,693.6666666666666,237.5,700,236C706.3333333333334,234.5,712.5,231.83333333333334,719,231C725.5,230.16666666666666,732.5,231,739,231C745.5,231,751.6666666666666,231.66666666666666,758,231C764.3333333333334,230.33333333333334,770.6666666666666,227,777,227C783.3333333333334,227,789.6666666666666,230.33333333333334,796,231C802.3333333333334,231.66666666666666,808.5,231.66666666666666,815,231C821.5,230.33333333333334,828.5,227.66666666666666,835,227C841.5,226.33333333333334,847.6666666666666,225.5,854,227C860.3333333333334,228.5,866.6666666666666,233.16666666666666,873,236C879.3333333333334,238.83333333333334,885.6666666666666,242,892,244C898.3333333333334,246,904.6666666666666,246.66666666666666,911,248C917.3333333333334,249.33333333333334,923.5,250.5,930,252C936.5,253.5,943.5,255.5,950,257C956.5,258.5,962.6666666666666,259,969,261C975.3333333333334,263,981.6666666666666,259.8333333333333,988,269C994.3333333333334,278.1666666666667,1000.6666666666666,306.1666666666667,1007,316C1013.3333333333334,325.8333333333333,1019.5,326,1026,328C1032.5,330,1039.5,328,1046,328C1052.5,328,1058.6666666666667,328,1065,328C1071.3333333333333,328,1077.6666666666667,328,1084,328C1090.3333333333333,328,1096.6666666666667,330.8333333333333,1103,328C1109.3333333333333,325.1666666666667,1115.6666666666667,315.1666666666667,1122,311C1128.3333333333333,306.8333333333333,1134.5,305.6666666666667,1141,303C1147.5,300.3333333333333,1154.5,296.3333333333333,1161,295C1167.5,293.6666666666667,1173.6666666666667,295.8333333333333,1180,295C1186.3333333333333,294.1666666666667,1192.6666666666667,292.1666666666667,1199,290C1205.3333333333333,287.8333333333333,1211.6666666666667,285.5,1218,282C1224.3333333333333,278.5,1230.5,271.8333333333333,1237,269C1243.5,266.1666666666667,1250.5,266.3333333333333,1257,265C1263.5,263.6666666666667,1269.6666666666667,261.6666666666667,1276,261C1282.3333333333333,260.3333333333333,1288.6666666666667,261,1295,261C1301.3333333333333,261,1307.6666666666667,261,1314,261C1320.3333333333333,261,1326.6666666666667,260.3333333333333,1333,261C1339.3333333333333,261.6666666666667,1345.5,262.8333333333333,1352,265C1358.5,267.1666666666667,1365.5,271.8333333333333,1372,274C1378.5,276.1666666666667,1384.6666666666667,276.6666666666667,1391,278C1397.3333333333333,279.3333333333333,1403.6666666666667,280.6666666666667,1410,282C1416.3333333333333,283.3333333333333,1422.6666666666667,283.1666666666667,1429,286C1435.3333333333333,288.8333333333333,1441.5,293.3333333333333,1448,299C1454.5,304.6666666666667,1461.5,315.1666666666667,1468,320C1474.5,324.8333333333333,1480.6666666666667,325.8333333333333,1487,328C1493.3333333333333,330.1666666666667,1499.6666666666667,331.5,1506,333C1512.3333333333333,334.5,1518.6666666666667,335,1525,337C1531.3333333333333,339,1537.6666666666667,343.6666666666667,1544,345C1550.3333333333333,346.3333333333333,1556.5,345.6666666666667,1563,345C1569.5,344.3333333333333,1576.5,342.3333333333333,1583,341C1589.5,339.6666666666667,1595.6666666666667,339.1666666666667,1602,337C1608.3333333333333,334.8333333333333,1614.6666666666667,330.1666666666667,1621,328C1627.3333333333333,325.8333333333333,1633.6666666666667,325.3333333333333,1640,324C1646.3333333333333,322.6666666666667,1652.5,322.1666666666667,1659,320C1665.5,317.8333333333333,1672.5,313.1666666666667,1679,311C1685.5,308.8333333333333,1691.6666666666667,307.6666666666667,1698,307C1704.3333333333333,306.3333333333333,1710.6666666666667,308.3333333333333,1717,307C1723.3333333333333,305.6666666666667,1729.6666666666667,302.5,1736,299C1742.3333333333333,295.5,1748.6666666666667,289.5,1755,286C1761.3333333333333,282.5,1767.5,278.6666666666667,1774,278C1780.5,277.3333333333333,1787.5,275.6666666666667,1794,282C1800.5,288.3333333333333,1806.6666666666667,311.8333333333333,1813,316C1819.3333333333333,320.1666666666667,1825.6666666666667,309.8333333333333,1832,307C1838.3333333333333,304.1666666666667,1844.6666666666667,302.5,1851,299C1857.3333333333333,295.5,1863.6666666666667,288.8333333333333,1870,286C1876.3333333333333,283.1666666666667,1882.5,284.8333333333333,1889,282C1895.5,279.1666666666667,1902.5,270.3333333333333,1909,269C1915.5,267.6666666666667,1921.6666666666667,274,1928,274C1934.3333333333333,274,1940.6666666666667,268.3333333333333,1947,269C1953.3333333333333,269.6666666666667,1959.6666666666667,275.1666666666667,1966,278C1972.3333333333333,280.8333333333333,1978.5,288.1666666666667,1985,286C1991.5,283.8333333333333,1998.5,273.3333333333333,2005,265C2011.5,256.6666666666667,2017.6666666666667,240.83333333333334,2024,236C2030.3333333333333,231.16666666666666,2036.6666666666667,241,2043,236C2049.3333333333335,231,2055.6666666666665,221.5,2062,206C2068.3333333333335,190.5,2074.6666666666665,156.33333333333334,2081,143C2087.3333333333335,129.66666666666666,2093.5,133,2100,126C2106.5,119,2113.5,103.83333333333333,2120,101C2126.5,98.16666666666667,2132.6666666666665,102,2139,109C2145.3333333333335,116,2151.6666666666665,111.33333333333333,2158,143C2164.3333333333335,174.66666666666666,2170.6666666666665,283.5,2177,299C2183.3333333333335,314.5,2189.5,245.16666666666666,2196,236C2202.5,226.83333333333334,2209.5,256.6666666666667,2216,244C2222.5,231.33333333333334,2228.6666666666665,173.33333333333334,2235,160C2241.3333333333335,146.66666666666666,2247.6666666666665,160.5,2254,164C2260.3333333333335,167.5,2266.6666666666665,159.16666666666666,2273,181C2279.3333333333335,202.83333333333334,2285.6666666666665,270.5,2292,295C2298.3333333333335,319.5,2304.5,326.6666666666667,2311,328C2317.5,329.3333333333333,2324.5,317.6666666666667,2331,303C2337.5,288.3333333333333,2343.6666666666665,249.16666666666666,2350,240C2356.3333333333335,230.83333333333334,2365.8333333333335,246.66666666666666,2369,248" stroke="green" stroke-width="2.5" fill="none"/>
	<path d="M48,267C51.166666666666664,267,60.5,267.3333333333333,67,267C73.5,266.6666666666667,80.5,265.3333333333333,87,265C93.5,264.6666666666667,99.66666666666667,265,106,265C112.33333333333333,265,118.66666666666667,265,125,265C131.33333333333334,265,137.66666666666666,265.3333333333333,144,265C150.33333333333334,264.6666666666667,156.66666666666666,263.3333333333333,163,263C169.33333333333334,262.6666666666667,175.5,263.3333333333333,182,263C188.5,262.6666666666667,195.5,261.6666666666667,202,261C208.5,260.3333333333333,214.66666666666666,259.6666666666667,221,259C227.33333333333334,258.3333333333333,233.66666666666666,257.6666666666667,240,257C246.33333333333334,256.3333333333333,252.66666666666666,255.83333333333334,259,255C265.3333333333333,254.16666666666666,271.5,253.16666666666666,278,252C284.5,250.83333333333334,291.5,249.33333333333334,298,248C304.5,246.66666666666666,310.6666666666667,245,317,244C323.3333333333333,243,329.6666666666667,242.66666666666666,336,242C342.3333333333333,241.33333333333334,348.6666666666667,240.66666666666666,355,240C361.3333333333333,239.33333333333334,367.6666666666667,238.66666666666666,374,238C380.3333333333333,237.33333333333334,386.5,236.83333333333334,393,236C399.5,235.16666666666666,406.5,233.83333333333334,413,233C419.5,232.16666666666666,425.6666666666667,231.66666666666666,432,231C438.3333333333333,230.33333333333334,444.6666666666667,229.66666666666666,451,229C457.3333333333333,228.33333333333334,463.6666666666667,227.66666666666666,470,227C476.3333333333333,226.33333333333334,482.5,225.66666666666666,489,225C495.5,224.33333333333334,502.5,222.66666666666666,509,223C515.5,223.33333333333334,521.6666666666666,225.66666666666666,528,227C534.3333333333334,228.33333333333334,540.6666666666666,229.16666666666666,547,231C553.3333333333334,232.83333333333334,559.6666666666666,236.16666666666666,566,238C572.3333333333334,239.83333333333334,578.6666666666666,241,585,242C591.3333333333334,243,597.5,243.66666666666666,604,244C610.5,244.33333333333334,617.5,245,624,244C630.5,243,636.6666666666666,240.5,643,238C649.3333333333334,235.5,655.6666666666666,231.5,662,229C668.3333333333334,226.5,674.6666666666666,224.33333333333334,681,223C687.3333333333334,221.66666666666666,693.6666666666666,222,700,221C706.3333333333334,220,712.5,218.5,719,217C725.5,215.5,732.5,213.16666666666666,739,212C745.5,210.83333333333334,751.6666666666666,210.66666666666666,758,210C764.3333333333334,209.33333333333334,770.6666666666666,208.33333333333334,777,208C783.3333333333334,207.66666666666666,789.6666666666666,207.66666666666666,796,208C802.3333333333334,208.33333333333334,808.5,209.33333333333334,815,210C821.5,210.66666666666666,828.5,210.83333333333334,835,212C841.5,213.16666666666666,847.6666666666666,215.83333333333334,854,217C860.3333333333334,218.16666666666666,866.6666666666666,218.66666666666666,873,219C879.3333333333334,219.33333333333334,885.6666666666666,218.66666666666666,892,219C898.3333333333334,219.33333333333334,904.6666666666666,220.66666666666666,911,221C917.3333333333334,221.33333333333334,923.5,221,930,221C936.5,221,943.5,220.66666666666666,950,221C956.5,221.33333333333334,962.6666666666666,221.66666666666666,969,223C975.3333333333334,224.33333333333334,981.6666666666666,227.33333333333334,988,229C994.3333333333334,230.66666666666666,1000.6666666666666,231.16666666666666,1007,233C1013.3333333333334,234.83333333333334,1019.5,238.16666666666666,1026,240C1032.5,241.83333333333334,1039.5,243,1046,244C1052.5,245,1058.6666666666667,245.33333333333334,1065,246C1071.3333333333333,246.66666666666666,1077.6666666666667,248,1084,248C1090.3333333333333,248,1096.6666666666667,247,1103,246C1109.3333333333333,245,1115.6666666666667,243.33333333333334,1122,242C1128.3333333333333,240.66666666666666,1134.5,238.66666666666666,1141,238C1147.5,237.33333333333334,1154.5,238,1161,238C1167.5,238,1173.6666666666667,237.66666666666666,1180,238C1186.3333333333333,238.33333333333334,1192.6666666666667,239.66666666666666,1199,240C1205.3333333333333,240.33333333333334,1211.6666666666667,240.33333333333334,1218,240C1224.3333333333333,239.66666666666666,1230.5,238.33333333333334,1237,238C1243.5,237.66666666666666,1250.5,237.66666666666666,1257,238C1263.5,238.33333333333334,1269.6666666666667,239.33333333333334,1276,240C1282.3333333333333,240.66666666666666,1288.6666666666667,241.66666666666666,1295,242C1301.3333333333333,242.33333333333334,1307.6666666666667,241.66666666666666,1314,242C1320.3333333333333,242.33333333333334,1326.6666666666667,243.66666666666666,1333,244C1339.3333333333333,244.33333333333334,1345.5,244,1352,244C1358.5,244,1365.5,244,1372,244C1378.5,244,1384.6666666666667,244,1391,244C1397.3333333333333,244,1403.6666666666667,243.66666666666666,1410,244C1416.3333333333333,244.33333333333334,1422.6666666666667,245,1429,246C1435.3333333333333,247,1441.5,249,1448,250C1454.5,251,1461.5,251.16666666666666,1468,252C1474.5,252.83333333333334,1480.6666666666667,254.16666666666666,1487,255C1493.3333333333333,255.83333333333334,1499.6666666666667,256.3333333333333,1506,257C1512.3333333333333,257.6666666666667,1518.6666666666667,258.6666666666667,1525,259C1531.3333333333333,259.3333333333333,1537.6666666666667,259,1544,259C1550.3333333333333,259,1556.5,259.3333333333333,1563,259C1569.5,258.6666666666667,1576.5,257.3333333333333,1583,257C1589.5,256.6666666666667,1595.6666666666667,257,1602,257C1608.3333333333333,257,1614.6666666666667,257,1621,257C1627.3333333333333,257,1633.6666666666667,257,1640,257C1646.3333333333333,257,1652.5,257,1659,257C1665.5,257,1672.5,257,1679,257C1685.5,257,1691.6666666666667,257,1698,257C1704.3333333333333,257,1710.6666666666667,256.6666666666667,1717,257C1723.3333333333333,257.3333333333333,1729.6666666666667,258.6666666666667,1736,259C1742.3333333333333,259.3333333333333,1748.6666666666667,259.3333333333333,1755,259C1761.3333333333333,258.6666666666667,1767.5,257,1774,257C1780.5,257,1787.5,258,1794,259C1800.5,260,1806.6666666666667,261.6666666666667,1813,263C1819.3333333333333,264.3333333333333,1825.6666666666667,266.3333333333333,1832,267C1838.3333333333333,267.6666666666667,1844.6666666666667,267,1851,267C1857.3333333333333,267,1863.6666666666667,267,1870,267C1876.3333333333333,267,1882.5,267,1889,267C1895.5,267,1902.5,267,1909,267C1915.5,267,1921.6666666666667,266.6666666666667,1928,267C1934.3333333333333,267.3333333333333,1940.6666666666667,268.3333333333333,1947,269C1953.3333333333333,269.6666666666667,1959.6666666666667,269.8333333333333,1966,271C1972.3333333333333,272.1666666666667,1978.5,275.5,1985,276C1991.5,276.5,1998.5,274.3333333333333,2005,274C2011.5,273.6666666666667,2017.6666666666667,274,2024,274C2030.3333333333333,274,2036.6666666666667,274.5,2043,274C2049.3333333333335,273.5,2055.6666666666665,271.5,2062,271C2068.3333333333335,270.5,2074.6666666666665,269.5,2081,271C2087.3333333333335,272.5,2093.5,278.1666666666667,2100,280C2106.5,281.8333333333333,2113.5,282,2120,282C2126.5,282,2132.6666666666665,281.3333333333333,2139,280C2145.3333333333335,278.6666666666667,2151.6666666666665,274,2158,274C2164.3333333333335,274,2170.6666666666665,279.3333333333333,2177,280C2183.3333333333335,280.6666666666667,2189.5,278,2196,278C2202.5,278,2209.5,280.6666666666667,2216,280C2222.5,279.3333333333333,2228.6666666666665,273.6666666666667,2235,274C2241.3333333333335,274.3333333333333,2247.6666666666665,282,2254,282C2260.3333333333335,282,2266.6666666666665,276.1666666666667,2273,274C2279.3333333333335,271.8333333333333,2285.6666666666665,269.8333333333333,2292,269C2298.3333333333335,268.1666666666667,2304.5,267.1666666666667,2311,269C2317.5,270.8333333333333,2324.5,279.6666666666667,2331,280C2337.5,280.3333333333333,2343.6666666666665,272.8333333333333,2350,271C2356.3333333333335,269.1666666666667,2365.8333333333335,269.3333333333333,2369,269" stroke="#dd9d30" stroke-width="2.5" fill="none"/>
	<path d="M29,362V67M2369,362V67Z"/>
</svg>
