<?xml version="1.0" ?>
<svg xmlns="http://www.w3.org/2000/svg" xmlns:xlink="http://www.w3.org/1999/xlink" version="1.1" width="2390" height="390">
	<rect x="192.3305785123967" y="32" width="19.33884297520661" height="380" fill="#eeeeee" fill-opacity="0.5"/>
	<defs/>
	<g stroke="#eeeeee" stroke-width="1">
		<path d="M58,362V67"/>
		<path d="M77,362V67"/>
		<path d="M97,362V67"/>
		<path d="M116,362V67"/>
		<path d="M135,362V67"/>
		<path d="M154,362V67"/>
		<path d="M173,362V67"/>
		<path d="M192,362V67"/>
		<path d="M212,362V67"/>
		<path d="M231,362V67"/>
		<path d="M250,362V67"/>
		<path d="M269,362V67"/>
		<path d="M288,362V67"/>
		<path d="M308,362V67"/>
		<path d="M327,362V67"/>
		<path d="M346,362V67"/>
		<path d="M365,362V67"/>
		<path d="M384,362V67"/>
		<path d="M403,362V67"/>
		<path d="M423,362V67"/>
		<path d="M442,362V67"/>
		<path d="M461,362V67"/>
		<path d="M480,362V67"/>
		<path d="M499,362V67"/>
		<path d="M519,362V67"/>
		<path d="M538,362V67"/>
		<path d="M557,362V67"/>
		<path d="M576,362V67"/>
		<path d="M595,362V67"/>
		<path d="M614,362V67"/>
		<path d="M634,362V67"/>
		<path d="M653,362V67"/>
		<path d="M672,362V67"/>
		<path d="M691,362V67"/>
		<path d="M710,362V67"/>
		<path d="M729,362V67"/>
		<path d="M749,362V67"/>
		<path d="M768,362V67"/>
		<path d="M787,362V67"/>
		<path d="M806,362V67"/>
		<path d="M825,362V67"/>
		<path d="M845,362V67"/>
		<path d="M864,362V67"/>
		<path d="M883,362V67"/>
		<path d="M902,362V67"/>
		<path d="M921,362V67"/>
		<path d="M940,362V67"/>
		<path d="M960,362V67"/>
		<path d="M979,362V67"/>
		<path d="M998,362V67"/>
		<path d="M1017,362V67"/>
		<path d="M1036,362V67"/>
		<path d="M1056,362V67"/>
		<path d="M1075,362V67"/>
		<path d="M1094,362V67"/>
		<path d="M1113,362V67"/>
		<path d="M1132,362V67"/>
		<path d="M1151,362V67"/>
		<path d="M1171,362V67"/>
		<path d="M1190,362V67"/>
		<path d="M1209,362V67"/>
		<path d="M1228,362V67"/>
		<path d="M1247,362V67"/>
		<path d="M1267,362V67"/>
		<path d="M1286,362V67"/>
		<path d="M1305,362V67"/>
		<path d="M1324,362V67"/>
		<path d="M1343,362V67"/>
		<path d="M1362,362V67"/>
		<path d="M1382,362V67"/>
		<path d="M1401,362V67"/>
		<path d="M1420,362V67"/>
		<path d="M1439,362V67"/>
		<path d="M1458,362V67"/>
		<path d="M1478,362V67"/>
		<path d="M1497,362V67"/>
		<path d="M1516,362V67"/>
		<path d="M1535,362V67"/>
		<path d="M1554,362V67"/>
		<path d="M1573,362V67"/>
		<path d="M1593,362V67"/>
		<path d="M1612,362V67"/>
		<path d="M1631,362V67"/>
		<path d="M1650,362V67"/>
		<path d="M1669,362V67"/>
		<path d="M1689,362V67"/>
		<path d="M1708,362V67"/>
		<path d="M1727,362V67"/>
		<path d="M1746,362V67"/>
		<path d="M1765,362V67"/>
		<path d="M1784,362V67"/>
		<path d="M1804,362V67"/>
		<path d="M1823,362V67"/>
		<path d="M1842,362V67"/>
		<path d="M1861,362V67"/>
		<path d="M1880,362V67"/>
		<path d="M1899,362V67"/>
		<path d="M1919,362V67"/>
		<path d="M1938,362V67"/>
		<path d="M1957,362V67"/>
		<path d="M1976,362V67"/>
		<path d="M1995,362V67"/>
		<path d="M2015,362V67"/>
		<path d="M2034,362V67"/>
		<path d="M2053,362V67"/>
		<path d="M2072,362V67"/>
		<path d="M2091,362V67"/>
		<path d="M2110,362V67"/>
		<path d="M2130,362V67"/>
		<path d="M2149,362V67"/>
		<path d="M2168,362V67"/>
		<path d="M2187,362V67"/>
		<path d="M2206,362V67"/>
		<path d="M2226,362V67"/>
		<path d="M2245,362V67"/>
		<path d="M2264,362V67"/>
		<path d="M2283,362V67"/>
		<path d="M2302,362V67"/>
		<path d="M2321,362V67"/>
		<path d="M2341,362V67"/>
		<path d="M2360,362V67"/>
	</g>
	<g stroke="#cdcdcd" stroke-width="1">
		<path d="M327,362V67"/>
		<path d="M787,362V67"/>
		<path d="M1247,362V67"/>
		<path d="M1708,362V67"/>
		<path d="M1899,362V67"/>
		<path d="M2053,362V67"/>
		<path d="M2130,362V67"/>
		<path d="M2206,362V67"/>
		<path d="M2283,362V67"/>
		<path d="M2360,362V67"/>
	</g>
	<g stroke="#cdcdcd" stroke-width="1">
		<path d="M38,362H2379"/>
		<path d="M38,341H2379"/>
		<path d="M38,320H2379"/>
		<path d="M38,299H2379"/>
		<path d="M38,278H2379"/>
		<path d="M38,257H2379"/>
		<path d="M38,236H2379"/>
		<path d="M38,215H2379"/>
		<path d="M38,193H2379"/>
		<path d="M38,172H2379"/>
		<path d="M38,151H2379"/>
		<path d="M38,130H2379"/>
		<path d="M38,109H2379"/>
		<path d="M38,88H2379"/>
		<path d="M38,67H2379"/>
	</g>
	<g fill="#000" font-size="13" font-weight="bold" text-anchor="middle">
		<text x="48" y="25">MA</text>
		<text x="336" y="25">TI</text>
		<text x="796" y="25">KE</text>
		<text x="1257" y="25">TO</text>
		<text x="1717" y="25">PE</text>
		<text x="1909" y="25">LA</text>
		<text x="2062" y="25">SU</text>
		<text x="2139" y="25">MA</text>
		<text x="2216" y="25">TI</text>
		<text x="2292" y="25">KE</text>
		<text x="2369" y="25">TO</text>
	</g>
	<g fill="#000" font-size="12" font-weight="regular" text-anchor="middle">
		<text x="48" y="59">09</text>
		<text x="67" y="59">10</text>
		<text x="87" y="59">11</text>
		<text x="106" y="59">12</text>
		<text x="125" y="59">13</text>
		<text x="144" y="59">14</text>
		<text x="163" y="59">15</text>
		<text x="182" y="59">16</text>
		<text x="202" y="59">17</text>
		<text x="221" y="59">18</text>
		<text x="240" y="59">19</text>
		<text x="259" y="59">20</text>
		<text x="278" y="59">21</text>
		<text x="298" y="59">22</text>
		<text x="317" y="59">23</text>
		<text x="336" y="59">00</text>
		<text x="355" y="59">01</text>
		<text x="374" y="59">02</text>
		<text x="393" y="59">03</text>
		<text x="413" y="59">04</text>
		<text x="432" y="59">05</text>
		<text x="451" y="59">06</text>
		<text x="470" y="59">07</text>
		<text x="489" y="59">08</text>
		<text x="509" y="59">09</text>
		<text x="528" y="59">10</text>
		<text x="547" y="59">11</text>
		<text x="566" y="59">12</text>
		<text x="585" y="59">13</text>
		<text x="604" y="59">14</text>
		<text x="624" y="59">15</text>
		<text x="643" y="59">16</text>
		<text x="662" y="59">17</text>
		<text x="681" y="59">18</text>
		<text x="700" y="59">19</text>
		<text x="719" y="59">20</text>
		<text x="739" y="59">21</text>
		<text x="758" y="59">22</text>
		<text x="777" y="59">23</text>
		<text x="796" y="59">00</text>
		<text x="815" y="59">01</text>
		<text x="835" y="59">02</text>
		<text x="854" y="59">03</text>
		<text x="873" y="59">04</text>
		<text x="892" y="59">05</text>
		<text x="911" y="59">06</text>
		<text x="930" y="59">07</text>
		<text x="950" y="59">08</text>
		<text x="969" y="59">09</text>
		<text x="988" y="59">10</text>
		<text x="1007" y="59">11</text>
		<text x="1026" y="59">12</text>
		<text x="1046" y="59">13</text>
		<text x="1065" y="59">14</text>
		<text x="1084" y="59">15</text>
		<text x="1103" y="59">16</text>
		<text x="1122" y="59">17</text>
		<text x="1141" y="59">18</text>
		<text x="1161" y="59">19</text>
		<text x="1180" y="59">20</text>
		<text x="1199" y="59">21</text>
		<text x="1218" y="59">22</text>
		<text x="1237" y="59">23</text>
		<text x="1257" y="59">00</text>
		<text x="1276" y="59">01</text>
		<text x="1295" y="59">02</text>
		<text x="1314" y="59">03</text>
		<text x="1333" y="59">04</text>
		<text x="1352" y="59">05</text>
		<text x="1372" y="59">06</text>
		<text x="1391" y="59">07</text>
		<text x="1410" y="59">08</text>
		<text x="1429" y="59">09</text>
		<text x="1448" y="59">10</text>
		<text x="1468" y="59">11</text>
		<text x="1487" y="59">12</text>
		<text x="1506" y="59">13</text>
		<text x="1525" y="59">14</text>
		<text x="1544" y="59">15</text>
		<text x="1563" y="59">16</text>
		<text x="1583" y="59">17</text>
		<text x="1602" y="59">18</text>
		<text x="1621" y="59">19</text>
		<text x="1640" y="59">20</text>
		<text x="1659" y="59">21</text>
		<text x="1679" y="59">22</text>
		<text x="1698" y="59">23</text>
		<text x="1717" y="59">00</text>
		<text x="1736" y="59">01</text>
		<text x="1755" y="59">02</text>
		<text x="1774" y="59">05</text>
		<text x="1794" y="59">08</text>
		<text x="1813" y="59">11</text>
		<text x="1832" y="59">14</text>
		<text x="1851" y="59">17</text>
		<text x="1870" y="59">20</text>
		<text x="1889" y="59">23</text>
		<text x="1909" y="59">02</text>
		<text x="1928" y="59">05</text>
		<text x="1947" y="59">08</text>
		<text x="1966" y="59">11</text>
		<text x="1985" y="59">14</text>
		<text x="2005" y="59">17</text>
		<text x="2024" y="59">20</text>
		<text x="2043" y="59">23</text>
		<text x="2062" y="59">02</text>
		<text x="2081" y="59">08</text>
		<text x="2100" y="59">14</text>
		<text x="2120" y="59">20</text>
		<text x="2139" y="59">02</text>
		<text x="2158" y="59">08</text>
		<text x="2177" y="59">14</text>
		<text x="2196" y="59">20</text>
		<text x="2216" y="59">02</text>
		<text x="2235" y="59">08</text>
		<text x="2254" y="59">14</text>
		<text x="2273" y="59">20</text>
		<text x="2292" y="59">02</text>
		<text x="2311" y="59">08</text>
		<text x="2331" y="59">14</text>
		<text x="2350" y="59">20</text>
		<text x="2369" y="59">02</text>
	</g>
	<g fill="#000" font-size="13" font-weight="regular" text-anchor="middle">
		<text x="48" y="42">26.2.</text>
		<text x="336" y="42">27.2.</text>
		<text x="796" y="42">28.2.</text>
		<text x="1257" y="42">29.2.</text>
		<text x="1717" y="42">1.3.</text>
		<text x="1909" y="42">2.3.</text>
		<text x="2062" y="42">3.3.</text>
		<text x="2139" y="42">4.3.</text>
		<text x="2216" y="42">5.3.</text>
		<text x="2292" y="42">6.3.</text>
		<text x="2369" y="42">7.3.</text>
	</g>
	<image x="14" y="370" width="18" height="18" xlink:href="/assets/scale.svg"/>
	<image x="41.5" y="372" width="13" height="13" xlink:href="/assets/eur-green.svg"/>
	<image x="60.5" y="372" width="13" height="13" xlink:href="/assets/eur-green.svg"/>
	<image x="80.5" y="372" width="13" height="13" xlink:href="/assets/eur-green.svg"/>
	<image x="99.5" y="372" width="13" height="13" xlink:href="/assets/eur-green.svg"/>
	<image x="118.5" y="372" width="13" height="13" xlink:href="/assets/eur-green.svg"/>
	<image x="137.5" y="372" width="13" height="13" xlink:href="/assets/eur-yellow.svg"/>
	<image x="156.5" y="372" width="13" height="13" xlink:href="/assets/eur-yellow.svg"/>
	<image x="175.5" y="372" width="13" height="13" xlink:href="/assets/eur-yellow.svg"/>
	<image x="195.5" y="372" width="13" height="13" xlink:href="/assets/eur-yellow.svg"/>
	<image x="214.5" y="372" width="13" height="13" xlink:href="/assets/eur-yellow.svg"/>
	<image x="233.5" y="372" width="13" height="13" xlink:href="/assets/eur-yellow.svg"/>
	<image x="252.5" y="372" width="13" height="13" xlink:href="/assets/eur-yellow.svg"/>
	<image x="271.5" y="372" width="13" height="13" xlink:href="/assets/eur-yellow.svg"/>
	<image x="291.5" y="372" width="13" height="13" xlink:href="/assets/eur-yellow.svg"/>
	<image x="310.5" y="372" width="13" height="13" xlink:href="/assets/eur-yellow.svg"/>
	<image x="329.5" y="372" width="13" height="13" xlink:href="/assets/eur-red.svg"/>
	<image x="348.5" y="372" width="13" height="13" xlink:href="/assets/eur-red.svg"/>
	<image x="367.5" y="372" width="13" height="13" xlink:href="/assets/eur-red.svg"/>
	<image x="386.5" y="372" width="13" height="13" xlink:href="/assets/eur-red.svg"/>
	<image x="406.5" y="372" width="13" height="13" xlink:href="/assets/eur-yellow.svg"/>
	<image x="425.5" y="372" width="13" height="13" xlink:href="/assets/eur-red.svg"/>
	<image x="444.5" y="372" width="13" height="13" xlink:href="/assets/eur-red.svg"/>
	<image x="463.5" y="372" width="13" height="13" xlink:href="/assets/eur-red.svg"/>
	<image x="482.5" y="372" width="13" height="13" xlink:href="/assets/eur-red.svg"/>
	<image x="502.5" y="372" width="13" height="13" xlink:href="/assets/eur-red.svg"/>
	<image x="521.5" y="372" width="13" height="13" xlink:href="/assets/eur-red.svg"/>
	<image x="540.5" y="372" width="13" height="13" xlink:href="/assets/eur-red.svg"/>
	<image x="559.5" y="372" width="13" height="13" xlink:href="/assets/eur-red.svg"/>
	<image x="578.5" y="372" width="13" height="13" xlink:href="/assets/eur-red.svg"/>
	<image x="597.5" y="372" width="13" height="13" xlink:href="/assets/eur-red.svg"/>
	<image x="617.5" y="372" width="13" height="13" xlink:href="/assets/eur-red.svg"/>
	<image x="636.5" y="372" width="13" height="13" xlink:href="/assets/eur-red.svg"/>
	<image x="655.5" y="372" width="13" height="13" xlink:href="/assets/eur-red.svg"/>
	<image x="674.5" y="372" width="13" height="13" xlink:href="/assets/eur-yellow.svg"/>
	<image x="693.5" y="372" width="13" height="13" xlink:href="/assets/eur-yellow.svg"/>
	<image x="712.5" y="372" width="13" height="13" xlink:href="/assets/eur-green.svg"/>
	<image x="732.5" y="372" width="13" height="13" xlink:href="/assets/eur-green.svg"/>
	<image x="751.5" y="372" width="13" height="13" xlink:href="/assets/eur-green.svg"/>
	<image x="770.5" y="372" width="13" height="13" xlink:href="/assets/eur-green.svg"/>
	<image x="789.5" y="372" width="13" height="13" xlink:href="/assets/eur-green.svg"/>
	<image x="808.5" y="372" width="13" height="13" xlink:href="/assets/eur-green.svg"/>
	<image x="828.5" y="372" width="13" height="13" xlink:href="/assets/eur-green.svg"/>
	<image x="847.5" y="372" width="13" height="13" xlink:href="/assets/eur-green.svg"/>
	<image x="866.5" y="372" width="13" height="13" xlink:href="/assets/eur-green.svg"/>
	<image x="885.5" y="372" width="13" height="13" xlink:href="/assets/eur-green.svg"/>
	<image x="904.5" y="372" width="13" height="13" xlink:href="/assets/eur-green.svg"/>
	<image x="923.5" y="372" width="13" height="13" xlink:href="/assets/eur-green.svg"/>
	<image x="943.5" y="372" width="13" height="13" xlink:href="/assets/eur-green.svg"/>
	<image x="962.5" y="372" width="13" height="13" xlink:href="/assets/eur-green.svg"/>
	<image x="981.5" y="372" width="13" height="13" xlink:href="/assets/eur-green.svg"/>
	<image x="1000.5" y="372" width="13" height="13" xlink:href="/assets/eur-green.svg"/>
	<image x="1019.5" y="372" width="13" height="13" xlink:href="/assets/eur-green.svg"/>
	<image x="1039.5" y="372" width="13" height="13" xlink:href="/assets/eur-green.svg"/>
	<image x="1058.5" y="372" width="13" height="13" xlink:href="/assets/eur-green.svg"/>
	<image x="1077.5" y="372" width="13" height="13" xlink:href="/assets/eur-green.svg"/>
	<image x="1096.5" y="372" width="13" height="13" xlink:href="/assets/eur-green.svg"/>
	<image x="1115.5" y="372" width="13" height="13" xlink:href="/assets/eur-green.svg"/>
	<image x="1134.5" y="372" width="13" height="13" xlink:href="/assets/eur-green.svg"/>
	<image x="1154.5" y="372" width="13" height="13" xlink:href="/assets/eur-green.svg"/>
	<image x="1173.5" y="372" width="13" height="13" xlink:href="/assets/eur-green.svg"/>
	<image x="1192.5" y="372" width="13" height="13" xlink:href="/assets/eur-green.svg"/>
	<image x="1211.5" y="372" width="13" height="13" xlink:href="/assets/eur-green.svg"/>
	<image x="1230.5" y="372" width="13" height="13" xlink:href="/assets/eur-green.svg"/>
	<image x="1250.5" y="372" width="13" height="13" xlink:href="/assets/eur-green.svg"/>
	<image x="1269.5" y="372" width="13" height="13" xlink:href="/assets/eur-green.svg"/>
	<image x="1288.5" y="372" width="13" height="13" xlink:href="/assets/eur-green.svg"/>
	<image x="1307.5" y="372" width="13" height="13" xlink:href="/assets/eur-green.svg"/>
	<image x="1326.5" y="372" width="13" height="13" xlink:href="/assets/eur-green.svg"/>
	<image x="1345.5" y="372" width="13" height="13" xlink:href="/assets/eur-green.svg"/>
	<image x="1365.5" y="372" width="13" height="13" xlink:href="/assets/eur-green.svg"/>
	<image x="1384.5" y="372" width="13" height="13" xlink:href="/assets/eur-green.svg"/>
	<image x="1403.5" y="372" width="13" height="13" xlink:href="/assets/eur-green.svg"/>
	<image x="1422.5" y="372" width="13" height="13" xlink:href="/assets/eur-green.svg"/>
	<image x="1441.5" y="372" width="13" height="13" xlink:href="/assets/eur-green.svg"/>
	<image x="1461.5" y="372" width="13" height="13" xlink:href="/assets/eur-green.svg"/>
	<image x="1480.5" y="372" width="13" height="13" xlink:href="/assets/eur-green.svg"/>
	<image x="1499.5" y="372" width="13" height="13" xlink:href="/assets/eur-green.svg"/>
	<image x="1518.5" y="372" width="13" height="13" xlink:href="/assets/eur-green.svg"/>
	<image x="1537.5" y="372" width="13" height="13" xlink:href="/assets/eur-green.svg"/>
	<image x="1556.5" y="372" width="13" height="13" xlink:href="/assets/eur-green.svg"/>
	<image x="1576.5" y="372" width="13" height="13" xlink:href="/assets/eur-green.svg"/>
	<image x="1595.5" y="372" width="13" height="13" xlink:href="/assets/eur-green.svg"/>
	<image x="1614.5" y="372" width="13" height="13" xlink:href="/assets/eur-green.svg"/>
	<image x="1633.5" y="372" width="13" height="13" xlink:href="/assets/eur-green.svg"/>
	<image x="1652.5" y="372" width="13" height="13" xlink:href="/assets/eur-green.svg"/>
	<image x="1672.5" y="372" width="13" height="13" xlink:href="/assets/eur-green.svg"/>
	<image x="1691.5" y="372" width="13" height="13" xlink:href="/assets/eur-green.svg"/>
	<image x="1710.5" y="372" width="13" height="13" xlink:href="/assets/eur-green.svg"/>
	<image x="1729.5" y="372" width="13" height="13" xlink:href="/assets/eur-green.svg"/>
	<image x="1748.5" y="372" width="13" height="13" xlink:href="/assets/eur-green.svg"/>
	<image x="1767.5" y="372" width="13" height="13" xlink:href="/assets/eur-green.svg"/>
	<image x="1787.5" y="372" width="13" height="13" xlink:href="/assets/eur-green.svg"/>
	<image x="1806.5" y="372" width="13" height="13" xlink:href="/assets/eur-green.svg"/>
	<image x="1825.5" y="372" width="13" height="13" xlink:href="/assets/eur-green.svg"/>
	<image x="1844.5" y="372" width="13" height="13" xlink:href="/assets/eur-green.svg"/>
	<image x="1863.5" y="372" width="13" height="13" xlink:href="/assets/eur-green.svg"/>
	<image x="1882.5" y="372" width="13" height="13" xlink:href="/assets/eur-green.svg"/>
	<image x="1902.5" y="372" width="13" height="13" xlink:href="/assets/eur-green.svg"/>
	<image x="1921.5" y="372" width="13" height="13" xlink:href="/assets/eur-green.svg"/>
	<image x="1940.5" y="372" width="13" height="13" xlink:href="/assets/eur-green.svg"/>
	<image x="1959.5" y="372" width="13" height="13" xlink:href="/assets/eur-green.svg"/>
	<image x="1978.5" y="372" width="13" height="13" xlink:href="/assets/eur-yellow.svg"/>
	<image x="1998.5" y="372" width="13" height="13" xlink:href="/assets/eur-yellow.svg"/>
	<image x="2017.5" y="372" width="13" height="13" xlink:href="/assets/eur-yellow.svg"/>
	<image x="2036.5" y="372" width="13" height="13" xlink:href="/assets/eur-yellow.svg"/>
	<image x="2055.5" y="372" width="13" height="13" xlink:href="/assets/eur-yellow.svg"/>
	<image x="2074.5" y="372" width="13" height="13" xlink:href="/assets/eur-red.svg"/>
	<image x="2093.5" y="372" width="13" height="13" xlink:href="/assets/eur-red.svg"/>
	<image x="2113.5" y="372" width="13" height="13" xlink:href="/assets/eur-red.svg"/>
	<image x="2132.5" y="372" width="13" height="13" xlink:href="/assets/eur-red.svg"/>
	<image x="2151.5" y="372" width="13" height="13" xlink:href="/assets/eur-red.svg"/>
	<image x="2170.5" y="372" width="13" height="13" xlink:href="/assets/eur-red.svg"/>
	<image x="2189.5" y="372" width="13" height="13" xlink:href="/assets/eur-yellow.svg"/>
	<image x="2209.5" y="372" width="13" height="13" xlink:href="/assets/eur-yellow.svg"/>
	<image x="2228.5" y="372" width="13" height="13" xlink:href="/assets/eur-yellow.svg"/>
	<image x="2247.5" y="372" width="13" height="13" xlink:href="/assets/eur-yellow.svg"/>
	<image x="2266.5" y="372" width="13" height="13" xlink:href="/assets/eur-green.svg"/>
	<image x="2285.5" y="372" width="13" height="13" xlink:href="/assets/eur-green.svg"/>
	<image x="2304.5" y="372" width="13" height="13" xlink:href="/assets/eur-green.svg"/>
	<image x="2324.5" y="372" width="13" height="13" xlink:href="/assets/eur-green.svg"/>
	<image x="2343.5" y="372" width="13" height="13" xlink:href="/assets/eur-green.svg"/>
	<image x="2362.5" y="372" width="13" height="13" xlink:href="/assets/eur-green.svg"/>
	<path d="M48,240C51.166666666666664,242,60.5,250,67,252C73.5,254,80.5,252,87,252C93.5,252,99.66666666666667,251.16666666666666,106,252C112.33333333333333,252.83333333333334,118.66666666666667,254.16666666666666,125,257C131.33333333333334,259.8333333333333,137.66666666666666,264.8333333333333,144,269C150.33333333333334,273.1666666666667,156.66666666666666,277,163,282C169.33333333333334,287,175.5,295.5,182,299C188.5,302.5,195.5,303,202,303C208.5,303,214.66666666666666,300.3333333333333,221,299C227.33333333333334,297.6666666666667,233.66666666666666,296.5,240,295C246.33333333333334,293.5,252.66666666666666,290,259,290C265.3333333333333,290,271.5,293.5,278,295C284.5,296.5,291.5,297,298,299C304.5,301,310.6666666666667,303.5,317,307C323.3333333333333,310.5,329.6666666666667,316.5,336,320C342.3333333333333,323.5,348.6666666666667,327.3333333333333,355,328C361.3333333333333,328.6666666666667,367.6666666666667,325.3333333333333,374,324C380.3333333333333,322.6666666666667,386.5,321.3333333333333,393,320C399.5,318.6666666666667,406.5,316,413,316C419.5,316,425.6666666666667,319.3333333333333,432,320C438.3333333333333,320.6666666666667,444.6666666666667,319.3333333333333,451,320C457.3333333333333,320.6666666666667,463.6666666666667,323.3333333333333,470,324C476.3333333333333,324.6666666666667,482.5,323.3333333333333,489,324C495.5,324.6666666666667,502.5,325.1666666666667,509,328C515.5,330.8333333333333,521.6666666666666,338.8333333333333,528,341C534.3333333333334,343.1666666666667,540.6666666666666,340.3333333333333,547,341C553.3333333333334,341.6666666666667,559.6666666666666,345,566,345C572.3333333333334,345,578.6666666666666,341.6666666666667,585,341C591.3333333333334,340.3333333333333,597.5,341,604,341C610.5,341,617.5,341.6666666666667,624,341C630.5,340.3333333333333,636.6666666666666,340.5,643,337C649.3333333333334,333.5,655.6666666666666,328.5,662,320C668.3333333333334,311.5,674.6666666666666,295.8333333333333,681,286C687.3333333333334,276.1666666666667,693.6666666666666,267.3333333333333,700,261C706.3333333333334,254.66666666666666,712.5,251.5,719,248C725.5,244.5,732.5,242.83333333333334,739,240C745.5,237.16666666666666,751.6666666666666,233.83333333333334,758,231C764.3333333333334,228.16666666666666,770.6666666666666,223.66666666666666,777,223C783.3333333333334,222.33333333333334,789.6666666666666,224.83333333333334,796,227C802.3333333333334,229.16666666666666,808.5,236,815,236C821.5,236,828.5,229.83333333333334,835,227C841.5,224.16666666666666,847.6666666666666,225.33333333333334,854,219C860.3333333333334,212.66666666666666,866.6666666666666,194.66666666666666,873,189C879.3333333333334,183.33333333333334,885.6666666666666,185.66666666666666,892,185C898.3333333333334,184.33333333333334,904.6666666666666,185,911,185C917.3333333333334,185,923.5,184.33333333333334,930,185C936.5,185.66666666666666,943.5,187.66666666666666,950,189C956.5,190.33333333333334,962.6666666666666,190.16666666666666,969,193C975.3333333333334,195.83333333333334,981.6666666666666,206.66666666666666,988,206C994.3333333333334,205.33333333333334,1000.6666666666666,193.83333333333334,1007,189C1013.3333333333334,184.16666666666666,1019.5,179,1026,177C1032.5,175,1039.5,176.33333333333334,1046,177C1052.5,177.66666666666666,1058.6666666666667,179,1065,181C1071.3333333333333,183,1077.6666666666667,186.16666666666666,1084,189C1090.3333333333333,191.83333333333334,1096.6666666666667,195.83333333333334,1103,198C1109.3333333333333,200.16666666666666,1115.6666666666667,202.83333333333334,1122,202C1128.3333333333333,201.16666666666666,1134.5,195.16666666666666,1141,193C1147.5,190.83333333333334,1154.5,189.66666666666666,1161,189C1167.5,188.33333333333334,1173.6666666666667,188.33333333333334,1180,189C1186.3333333333333,189.66666666666666,1192.6666666666667,192.33333333333334,1199,193C1205.3333333333333,193.66666666666666,1211.6666666666667,192.16666666666666,1218,193C1224.3333333333333,193.83333333333334,1230.5,196.5,1237,198C1243.5,199.5,1250.5,200.66666666666666,1257,202C1263.5,203.33333333333334,1269.6666666666667,205.33333333333334,1276,206C1282.3333333333333,206.66666666666666,1288.6666666666667,204.5,1295,206C1301.3333333333333,207.5,1307.6666666666667,212.83333333333334,1314,215C1320.3333333333333,217.16666666666666,1326.6666666666667,218.33333333333334,1333,219C1339.3333333333333,219.66666666666666,1345.5,219.66666666666666,1352,219C1358.5,218.33333333333334,1365.5,216.5,1372,215C1378.5,213.5,1384.6666666666667,210,1391,210C1397.3333333333333,210,1403.6666666666667,212.16666666666666,1410,215C1416.3333333333333,217.83333333333334,1422.6666666666667,226.33333333333334,1429,227C1435.3333333333333,227.66666666666666,1441.5,221.83333333333334,1448,219C1454.5,216.16666666666666,1461.5,210,1468,210C1474.5,210,1480.6666666666667,217.5,1487,219C1493.3333333333333,220.5,1499.6666666666667,219.66666666666666,1506,219C1512.3333333333333,218.33333333333334,1518.6666666666667,216.5,1525,215C1531.3333333333333,213.5,1537.6666666666667,208,1544,210C1550.3333333333333,212,1556.5,228.33333333333334,1563,227C1569.5,225.66666666666666,1576.5,209.66666666666666,1583,202C1589.5,194.33333333333334,1595.6666666666667,186.66666666666666,1602,181C1608.3333333333333,175.33333333333334,1614.6666666666667,170.83333333333334,1621,168C1627.3333333333333,165.16666666666666,1633.6666666666667,166.83333333333334,1640,164C1646.3333333333333,161.16666666666666,1652.5,154.5,1659,151C1665.5,147.5,1672.5,145,1679,143C1685.5,141,1691.6666666666667,139.66666666666666,1698,139C1704.3333333333333,138.33333333333334,1710.6666666666667,139.83333333333334,1717,139C1723.3333333333333,138.16666666666666,1729.6666666666667,135.5,1736,134C1742.3333333333333,132.5,1748.6666666666667,132.66666666666666,1755,130C1761.3333333333333,127.33333333333333,1767.5,118,1774,118C1780.5,118,1787.5,124.5,1794,130C1800.5,135.5,1806.6666666666667,146,1813,151C1819.3333333333333,156,1825.6666666666667,157.83333333333334,1832,160C1838.3333333333333,162.16666666666666,1844.6666666666667,169,1851,164C1857.3333333333333,159,1863.6666666666667,136.33333333333334,1870,130C1876.3333333333333,123.66666666666667,1882.5,120.33333333333333,1889,126C1895.5,131.66666666666666,1902.5,150,1909,164C1915.5,178,1921.6666666666667,197.33333333333334,1928,210C1934.3333333333333,222.66666666666666,1940.6666666666667,230.16666666666666,1947,240C1953.3333333333333,249.83333333333334,1959.6666666666667,259.1666666666667,1966,269C1972.3333333333333,278.8333333333333,1978.5,294.6666666666667,1985,299C1991.5,303.3333333333333,1998.5,298.5,2005,295C2011.5,291.5,2017.6666666666667,278,2024,278C2030.3333333333333,278,2036.6666666666667,286.6666666666667,2043,295C2049.3333333333335,303.3333333333333,2055.6666666666665,320.3333333333333,2062,328C2068.3333333333335,335.6666666666667,2074.6666666666665,336.6666666666667,2081,341C2087.3333333333335,345.3333333333333,2093.5,354.6666666666667,2100,354C2106.5,353.3333333333333,2113.5,338.5,2120,337C2126.5,335.5,2132.6666666666665,344.3333333333333,2139,345C2145.3333333333335,345.6666666666667,2151.6666666666665,340.3333333333333,2158,341C2164.3333333333335,341.6666666666667,2170.6666666666665,357.5,2177,349C2183.3333333333335,340.5,2189.5,299.8333333333333,2196,290C2202.5,280.1666666666667,2209.5,294.8333333333333,2216,290C2222.5,285.1666666666667,2228.6666666666665,253.16666666666666,2235,261C2241.3333333333335,268.8333333333333,2247.6666666666665,344.6666666666667,2254,337C2260.3333333333335,329.3333333333333,2266.6666666666665,232.66666666666666,2273,215C2279.3333333333335,197.33333333333334,2285.6666666666665,229,2292,231C2298.3333333333335,233,2304.5,221.33333333333334,2311,227C2317.5,232.66666666666666,2324.5,269.8333333333333,2331,265C2337.5,260.1666666666667,2343.6666666666665,203.66666666666666,2350,198C2356.3333333333335,192.33333333333334,2365.8333333333335,225.5,2369,231" stroke="green" stroke-width="2.5" fill="none"/>
	<path d="M48,267C51.166666666666664,267.3333333333333,60.5,268.3333333333333,67,269C73.5,269.6666666666667,80.5,270.1666666666667,87,271C93.5,271.8333333333333,99.66666666666667,273.1666666666667,106,274C112.33333333333333,274.8333333333333,118.66666666666667,275.6666666666667,125,276C131.33333333333334,276.3333333333333,137.66666666666666,276,144,276C150.33333333333334,276,156.66666666666666,276,163,276C169.33333333333334,276,175.5,276.3333333333333,182,276C188.5,275.6666666666667,195.5,274.3333333333333,202,274C208.5,273.6666666666667,214.66666666666666,274.5,221,274C227.33333333333334,273.5,233.66666666666666,271.8333333333333,240,271C246.33333333333334,270.1666666666667,252.66666666666666,269.3333333333333,259,269C265.3333333333333,268.6666666666667,271.5,269,278,269C284.5,269,291.5,269.3333333333333,298,269C304.5,268.6666666666667,310.6666666666667,267.6666666666667,317,267C323.3333333333333,266.3333333333333,329.6666666666667,265.3333333333333,336,265C342.3333333333333,264.6666666666667,348.6666666666667,265,355,265C361.3333333333333,265,367.6666666666667,265,374,265C380.3333333333333,265,386.5,265,393,265C399.5,265,406.5,265,413,265C419.5,265,425.6666666666667,265,432,265C438.3333333333333,265,444.6666666666667,265.3333333333333,451,265C457.3333333333333,264.6666666666667,463.6666666666667,263.3333333333333,470,263C476.3333333333333,262.6666666666667,482.5,263,489,263C495.5,263,502.5,262.6666666666667,509,263C515.5,263.3333333333333,521.6666666666666,264.3333333333333,528,265C534.3333333333334,265.6666666666667,540.6666666666666,266.6666666666667,547,267C553.3333333333334,267.3333333333333,559.6666666666666,266.6666666666667,566,267C572.3333333333334,267.3333333333333,578.6666666666666,268.3333333333333,585,269C591.3333333333334,269.6666666666667,597.5,270.6666666666667,604,271C610.5,271.3333333333333,617.5,271,624,271C630.5,271,636.6666666666666,271.6666666666667,643,271C649.3333333333334,270.3333333333333,655.6666666666666,268,662,267C668.3333333333334,266,674.6666666666666,265.6666666666667,681,265C687.3333333333334,264.3333333333333,693.6666666666666,263.3333333333333,700,263C706.3333333333334,262.6666666666667,712.5,263.3333333333333,719,263C725.5,262.6666666666667,732.5,261.3333333333333,739,261C745.5,260.6666666666667,751.6666666666666,261.3333333333333,758,261C764.3333333333334,260.6666666666667,770.6666666666666,259.3333333333333,777,259C783.3333333333334,258.6666666666667,789.6666666666666,259.3333333333333,796,259C802.3333333333334,258.6666666666667,808.5,257.3333333333333,815,257C821.5,256.6666666666667,828.5,257,835,257C841.5,257,847.6666666666666,257,854,257C860.3333333333334,257,866.6666666666666,257,873,257C879.3333333333334,257,885.6666666666666,257.3333333333333,892,257C898.3333333333334,256.6666666666667,904.6666666666666,255.33333333333334,911,255C917.3333333333334,254.66666666666666,923.5,255,930,255C936.5,255,943.5,254.66666666666666,950,255C956.5,255.33333333333334,962.6666666666666,256.6666666666667,969,257C975.3333333333334,257.3333333333333,981.6666666666666,256.6666666666667,988,257C994.3333333333334,257.3333333333333,1000.6666666666666,258.3333333333333,1007,259C1013.3333333333334,259.6666666666667,1019.5,260.3333333333333,1026,261C1032.5,261.6666666666667,1039.5,262.3333333333333,1046,263C1052.5,263.6666666666667,1058.6666666666667,264.6666666666667,1065,265C1071.3333333333333,265.3333333333333,1077.6666666666667,265,1084,265C1090.3333333333333,265,1096.6666666666667,265,1103,265C1109.3333333333333,265,1115.6666666666667,265.3333333333333,1122,265C1128.3333333333333,264.6666666666667,1134.5,263.3333333333333,1141,263C1147.5,262.6666666666667,1154.5,263,1161,263C1167.5,263,1173.6666666666667,263,1180,263C1186.3333333333333,263,1192.6666666666667,262.6666666666667,1199,263C1205.3333333333333,263.3333333333333,1211.6666666666667,264.6666666666667,1218,265C1224.3333333333333,265.3333333333333,1230.5,265,1237,265C1243.5,265,1250.5,264.6666666666667,1257,265C1263.5,265.3333333333333,1269.6666666666667,266.6666666666667,1276,267C1282.3333333333333,267.3333333333333,1288.6666666666667,266.6666666666667,1295,267C1301.3333333333333,267.3333333333333,1307.6666666666667,268.6666666666667,1314,269C1320.3333333333333,269.3333333333333,1326.6666666666667,269,1333,269C1339.3333333333333,269,1345.5,268.6666666666667,1352,269C1358.5,269.3333333333333,1365.5,270.6666666666667,1372,271C1378.5,271.3333333333333,1384.6666666666667,271,1391,271C1397.3333333333333,271,1403.6666666666667,270.5,1410,271C1416.3333333333333,271.5,1422.6666666666667,273.1666666666667,1429,274C1435.3333333333333,274.8333333333333,1441.5,275.3333333333333,1448,276C1454.5,276.6666666666667,1461.5,277.3333333333333,1468,278C1474.5,278.6666666666667,1480.6666666666667,279.6666666666667,1487,280C1493.3333333333333,280.3333333333333,1499.6666666666667,280,1506,280C1512.3333333333333,280,1518.6666666666667,280,1525,280C1531.3333333333333,280,1537.6666666666667,280,1544,280C1550.3333333333333,280,1556.5,280,1563,280C1569.5,280,1576.5,280.3333333333333,1583,280C1589.5,279.6666666666667,1595.6666666666667,278.3333333333333,1602,278C1608.3333333333333,277.6666666666667,1614.6666666666667,278.3333333333333,1621,278C1627.3333333333333,277.6666666666667,1633.6666666666667,276.3333333333333,1640,276C1646.3333333333333,275.6666666666667,1652.5,276,1659,276C1665.5,276,1672.5,276,1679,276C1685.5,276,1691.6666666666667,276.3333333333333,1698,276C1704.3333333333333,275.6666666666667,1710.6666666666667,274.3333333333333,1717,274C1723.3333333333333,273.6666666666667,1729.6666666666667,274.5,1736,274C1742.3333333333333,273.5,1748.6666666666667,271.5,1755,271C1761.3333333333333,270.5,1767.5,271,1774,271C1780.5,271,1787.5,269.8333333333333,1794,271C1800.5,272.1666666666667,1806.6666666666667,275.8333333333333,1813,278C1819.3333333333333,280.1666666666667,1825.6666666666667,283,1832,284C1838.3333333333333,285,1844.6666666666667,284,1851,284C1857.3333333333333,284,1863.6666666666667,284,1870,284C1876.3333333333333,284,1882.5,284,1889,284C1895.5,284,1902.5,284.3333333333333,1909,284C1915.5,283.6666666666667,1921.6666666666667,282.3333333333333,1928,282C1934.3333333333333,281.6666666666667,1940.6666666666667,281.3333333333333,1947,282C1953.3333333333333,282.6666666666667,1959.6666666666667,285,1966,286C1972.3333333333333,287,1978.5,288.3333333333333,1985,288C1991.5,287.6666666666667,1998.5,285,2005,284C2011.5,283,2017.6666666666667,282.6666666666667,2024,282C2030.3333333333333,281.3333333333333,2036.6666666666667,280.6666666666667,2043,280C2049.3333333333335,279.3333333333333,2055.6666666666665,278.3333333333333,2062,278C2068.3333333333335,277.6666666666667,2074.6666666666665,276.6666666666667,2081,278C2087.3333333333335,279.3333333333333,2093.5,286,2100,286C2106.5,286,2113.5,280,2120,278C2126.5,276,2132.6666666666665,275.5,2139,274C2145.3333333333335,272.5,2151.6666666666665,267.3333333333333,2158,269C2164.3333333333335,270.6666666666667,2170.6666666666665,283.1666666666667,2177,284C2183.3333333333335,284.8333333333333,2189.5,276.8333333333333,2196,274C2202.5,271.1666666666667,2209.5,268.8333333333333,2216,267C2222.5,265.1666666666667,2228.6666666666665,259.5,2235,263C2241.3333333333335,266.5,2247.6666666666665,286.6666666666667,2254,288C2260.3333333333335,289.3333333333333,2266.6666666666665,274.5,2273,271C2279.3333333333335,267.5,2285.6666666666665,267.3333333333333,2292,267C2298.3333333333335,266.6666666666667,2304.5,265.8333333333333,2311,269C2317.5,272.1666666666667,2324.5,285.6666666666667,2331,286C2337.5,286.3333333333333,2343.6666666666665,273,2350,271C2356.3333333333335,269,2365.8333333333335,273.5,2369,274" stroke="#dd9d30" stroke-width="2.5" fill="none"/>
	<path d="M29,362V67M2369,362V67Z"/>
</svg>
