<?xml version="1.0" ?>
<svg xmlns="http://www.w3.org/2000/svg" xmlns:xlink="http://www.w3.org/1999/xlink" version="1.1" width="2390" height="390">
	<rect x="249.3305785123967" y="32" width="19.33884297520661" height="380" fill="#eeeeee" fill-opacity="0.5"/>
	<defs/>
	<g stroke="#eeeeee" stroke-width="1">
		<path d="M58,362V67"/>
		<path d="M77,362V67"/>
		<path d="M97,362V67"/>
		<path d="M116,362V67"/>
		<path d="M135,362V67"/>
		<path d="M154,362V67"/>
		<path d="M173,362V67"/>
		<path d="M192,362V67"/>
		<path d="M212,362V67"/>
		<path d="M231,362V67"/>
		<path d="M250,362V67"/>
		<path d="M269,362V67"/>
		<path d="M288,362V67"/>
		<path d="M308,362V67"/>
		<path d="M327,362V67"/>
		<path d="M346,362V67"/>
		<path d="M365,362V67"/>
		<path d="M384,362V67"/>
		<path d="M403,362V67"/>
		<path d="M423,362V67"/>
		<path d="M442,362V67"/>
		<path d="M461,362V67"/>
		<path d="M480,362V67"/>
		<path d="M499,362V67"/>
		<path d="M519,362V67"/>
		<path d="M538,362V67"/>
		<path d="M557,362V67"/>
		<path d="M576,362V67"/>
		<path d="M595,362V67"/>
		<path d="M614,362V67"/>
		<path d="M634,362V67"/>
		<path d="M653,362V67"/>
		<path d="M672,362V67"/>
		<path d="M691,362V67"/>
		<path d="M710,362V67"/>
		<path d="M729,362V67"/>
		<path d="M749,362V67"/>
		<path d="M768,362V67"/>
		<path d="M787,362V67"/>
		<path d="M806,362V67"/>
		<path d="M825,362V67"/>
		<path d="M845,362V67"/>
		<path d="M864,362V67"/>
		<path d="M883,362V67"/>
		<path d="M902,362V67"/>
		<path d="M921,362V67"/>
		<path d="M940,362V67"/>
		<path d="M960,362V67"/>
		<path d="M979,362V67"/>
		<path d="M998,362V67"/>
		<path d="M1017,362V67"/>
		<path d="M1036,362V67"/>
		<path d="M1056,362V67"/>
		<path d="M1075,362V67"/>
		<path d="M1094,362V67"/>
		<path d="M1113,362V67"/>
		<path d="M1132,362V67"/>
		<path d="M1151,362V67"/>
		<path d="M1171,362V67"/>
		<path d="M1190,362V67"/>
		<path d="M1209,362V67"/>
		<path d="M1228,362V67"/>
		<path d="M1247,362V67"/>
		<path d="M1267,362V67"/>
		<path d="M1286,362V67"/>
		<path d="M1305,362V67"/>
		<path d="M1324,362V67"/>
		<path d="M1343,362V67"/>
		<path d="M1362,362V67"/>
		<path d="M1382,362V67"/>
		<path d="M1401,362V67"/>
		<path d="M1420,362V67"/>
		<path d="M1439,362V67"/>
		<path d="M1458,362V67"/>
		<path d="M1478,362V67"/>
		<path d="M1497,362V67"/>
		<path d="M1516,362V67"/>
		<path d="M1535,362V67"/>
		<path d="M1554,362V67"/>
		<path d="M1573,362V67"/>
		<path d="M1593,362V67"/>
		<path d="M1612,362V67"/>
		<path d="M1631,362V67"/>
		<path d="M1650,362V67"/>
		<path d="M1669,362V67"/>
		<path d="M1689,362V67"/>
		<path d="M1708,362V67"/>
		<path d="M1727,362V67"/>
		<path d="M1746,362V67"/>
		<path d="M1765,362V67"/>
		<path d="M1784,362V67"/>
		<path d="M1804,362V67"/>
		<path d="M1823,362V67"/>
		<path d="M1842,362V67"/>
		<path d="M1861,362V67"/>
		<path d="M1880,362V67"/>
		<path d="M1899,362V67"/>
		<path d="M1919,362V67"/>
		<path d="M1938,362V67"/>
		<path d="M1957,362V67"/>
		<path d="M1976,362V67"/>
		<path d="M1995,362V67"/>
		<path d="M2015,362V67"/>
		<path d="M2034,362V67"/>
		<path d="M2053,362V67"/>
		<path d="M2072,362V67"/>
		<path d="M2091,362V67"/>
		<path d="M2110,362V67"/>
		<path d="M2130,362V67"/>
		<path d="M2149,362V67"/>
		<path d="M2168,362V67"/>
		<path d="M2187,362V67"/>
		<path d="M2206,362V67"/>
		<path d="M2226,362V67"/>
		<path d="M2245,362V67"/>
		<path d="M2264,362V67"/>
		<path d="M2283,362V67"/>
		<path d="M2302,362V67"/>
		<path d="M2321,362V67"/>
		<path d="M2341,362V67"/>
		<path d="M2360,362V67"/>
	</g>
	<g stroke="#cdcdcd" stroke-width="1">
		<path d="M327,362V67"/>
		<path d="M787,362V67"/>
		<path d="M1247,362V67"/>
		<path d="M1708,362V67"/>
		<path d="M1899,362V67"/>
		<path d="M2053,362V67"/>
		<path d="M2130,362V67"/>
		<path d="M2206,362V67"/>
		<path d="M2283,362V67"/>
		<path d="M2360,362V67"/>
	</g>
	<g stroke="#cdcdcd" stroke-width="1">
		<path d="M38,362H2379"/>
		<path d="M38,341H2379"/>
		<path d="M38,320H2379"/>
		<path d="M38,299H2379"/>
		<path d="M38,278H2379"/>
		<path d="M38,257H2379"/>
		<path d="M38,236H2379"/>
		<path d="M38,215H2379"/>
		<path d="M38,193H2379"/>
		<path d="M38,172H2379"/>
		<path d="M38,151H2379"/>
		<path d="M38,130H2379"/>
		<path d="M38,109H2379"/>
		<path d="M38,88H2379"/>
		<path d="M38,67H2379"/>
	</g>
	<g fill="#000" font-size="13" font-weight="bold" text-anchor="middle">
		<text x="48" y="25">SU</text>
		<text x="336" y="25">MA</text>
		<text x="796" y="25">TI</text>
		<text x="1257" y="25">KE</text>
		<text x="1717" y="25">TO</text>
		<text x="1909" y="25">PE</text>
		<text x="2062" y="25">LA</text>
		<text x="2139" y="25">SU</text>
		<text x="2216" y="25">MA</text>
		<text x="2292" y="25">TI</text>
		<text x="2369" y="25">KE</text>
	</g>
	<g fill="#000" font-size="12" font-weight="regular" text-anchor="middle">
		<text x="48" y="59">09</text>
		<text x="67" y="59">10</text>
		<text x="87" y="59">11</text>
		<text x="106" y="59">12</text>
		<text x="125" y="59">13</text>
		<text x="144" y="59">14</text>
		<text x="163" y="59">15</text>
		<text x="182" y="59">16</text>
		<text x="202" y="59">17</text>
		<text x="221" y="59">18</text>
		<text x="240" y="59">19</text>
		<text x="259" y="59">20</text>
		<text x="278" y="59">21</text>
		<text x="298" y="59">22</text>
		<text x="317" y="59">23</text>
		<text x="336" y="59">00</text>
		<text x="355" y="59">01</text>
		<text x="374" y="59">02</text>
		<text x="393" y="59">03</text>
		<text x="413" y="59">04</text>
		<text x="432" y="59">05</text>
		<text x="451" y="59">06</text>
		<text x="470" y="59">07</text>
		<text x="489" y="59">08</text>
		<text x="509" y="59">09</text>
		<text x="528" y="59">10</text>
		<text x="547" y="59">11</text>
		<text x="566" y="59">12</text>
		<text x="585" y="59">13</text>
		<text x="604" y="59">14</text>
		<text x="624" y="59">15</text>
		<text x="643" y="59">16</text>
		<text x="662" y="59">17</text>
		<text x="681" y="59">18</text>
		<text x="700" y="59">19</text>
		<text x="719" y="59">20</text>
		<text x="739" y="59">21</text>
		<text x="758" y="59">22</text>
		<text x="777" y="59">23</text>
		<text x="796" y="59">00</text>
		<text x="815" y="59">01</text>
		<text x="835" y="59">02</text>
		<text x="854" y="59">03</text>
		<text x="873" y="59">04</text>
		<text x="892" y="59">05</text>
		<text x="911" y="59">06</text>
		<text x="930" y="59">07</text>
		<text x="950" y="59">08</text>
		<text x="969" y="59">09</text>
		<text x="988" y="59">10</text>
		<text x="1007" y="59">11</text>
		<text x="1026" y="59">12</text>
		<text x="1046" y="59">13</text>
		<text x="1065" y="59">14</text>
		<text x="1084" y="59">15</text>
		<text x="1103" y="59">16</text>
		<text x="1122" y="59">17</text>
		<text x="1141" y="59">18</text>
		<text x="1161" y="59">19</text>
		<text x="1180" y="59">20</text>
		<text x="1199" y="59">21</text>
		<text x="1218" y="59">22</text>
		<text x="1237" y="59">23</text>
		<text x="1257" y="59">00</text>
		<text x="1276" y="59">01</text>
		<text x="1295" y="59">02</text>
		<text x="1314" y="59">03</text>
		<text x="1333" y="59">04</text>
		<text x="1352" y="59">05</text>
		<text x="1372" y="59">06</text>
		<text x="1391" y="59">07</text>
		<text x="1410" y="59">08</text>
		<text x="1429" y="59">09</text>
		<text x="1448" y="59">10</text>
		<text x="1468" y="59">11</text>
		<text x="1487" y="59">12</text>
		<text x="1506" y="59">13</text>
		<text x="1525" y="59">14</text>
		<text x="1544" y="59">15</text>
		<text x="1563" y="59">16</text>
		<text x="1583" y="59">17</text>
		<text x="1602" y="59">18</text>
		<text x="1621" y="59">19</text>
		<text x="1640" y="59">20</text>
		<text x="1659" y="59">21</text>
		<text x="1679" y="59">22</text>
		<text x="1698" y="59">23</text>
		<text x="1717" y="59">00</text>
		<text x="1736" y="59">01</text>
		<text x="1755" y="59">02</text>
		<text x="1774" y="59">05</text>
		<text x="1794" y="59">08</text>
		<text x="1813" y="59">11</text>
		<text x="1832" y="59">14</text>
		<text x="1851" y="59">17</text>
		<text x="1870" y="59">20</text>
		<text x="1889" y="59">23</text>
		<text x="1909" y="59">02</text>
		<text x="1928" y="59">05</text>
		<text x="1947" y="59">08</text>
		<text x="1966" y="59">11</text>
		<text x="1985" y="59">14</text>
		<text x="2005" y="59">17</text>
		<text x="2024" y="59">20</text>
		<text x="2043" y="59">23</text>
		<text x="2062" y="59">02</text>
		<text x="2081" y="59">08</text>
		<text x="2100" y="59">14</text>
		<text x="2120" y="59">20</text>
		<text x="2139" y="59">02</text>
		<text x="2158" y="59">08</text>
		<text x="2177" y="59">14</text>
		<text x="2196" y="59">20</text>
		<text x="2216" y="59">02</text>
		<text x="2235" y="59">08</text>
		<text x="2254" y="59">14</text>
		<text x="2273" y="59">20</text>
		<text x="2292" y="59">02</text>
		<text x="2311" y="59">08</text>
		<text x="2331" y="59">14</text>
		<text x="2350" y="59">20</text>
		<text x="2369" y="59">02</text>
	</g>
	<g fill="#000" font-size="13" font-weight="regular" text-anchor="middle">
		<text x="48" y="42">25.2.</text>
		<text x="336" y="42">26.2.</text>
		<text x="796" y="42">27.2.</text>
		<text x="1257" y="42">28.2.</text>
		<text x="1717" y="42">29.2.</text>
		<text x="1909" y="42">1.3.</text>
		<text x="2062" y="42">2.3.</text>
		<text x="2139" y="42">3.3.</text>
		<text x="2216" y="42">4.3.</text>
		<text x="2292" y="42">5.3.</text>
		<text x="2369" y="42">6.3.</text>
	</g>
	<image x="14" y="370" width="18" height="18" xlink:href="/assets/scale.svg"/>
	<image x="41.5" y="372" width="13" height="13" xlink:href="/assets/eur-green.svg"/>
	<image x="60.5" y="372" width="13" height="13" xlink:href="/assets/eur-green.svg"/>
	<image x="80.5" y="372" width="13" height="13" xlink:href="/assets/eur-green.svg"/>
	<image x="99.5" y="372" width="13" height="13" xlink:href="/assets/eur-green.svg"/>
	<image x="118.5" y="372" width="13" height="13" xlink:href="/assets/eur-green.svg"/>
	<image x="137.5" y="372" width="13" height="13" xlink:href="/assets/eur-green.svg"/>
	<image x="156.5" y="372" width="13" height="13" xlink:href="/assets/eur-green.svg"/>
	<image x="175.5" y="372" width="13" height="13" xlink:href="/assets/eur-green.svg"/>
	<image x="195.5" y="372" width="13" height="13" xlink:href="/assets/eur-green.svg"/>
	<image x="214.5" y="372" width="13" height="13" xlink:href="/assets/eur-green.svg"/>
	<image x="233.5" y="372" width="13" height="13" xlink:href="/assets/eur-green.svg"/>
	<image x="252.5" y="372" width="13" height="13" xlink:href="/assets/eur-green.svg"/>
	<image x="271.5" y="372" width="13" height="13" xlink:href="/assets/eur-green.svg"/>
	<image x="291.5" y="372" width="13" height="13" xlink:href="/assets/eur-green.svg"/>
	<image x="310.5" y="372" width="13" height="13" xlink:href="/assets/eur-green.svg"/>
	<image x="329.5" y="372" width="13" height="13" xlink:href="/assets/eur-green.svg"/>
	<image x="348.5" y="372" width="13" height="13" xlink:href="/assets/eur-green.svg"/>
	<image x="367.5" y="372" width="13" height="13" xlink:href="/assets/eur-green.svg"/>
	<image x="386.5" y="372" width="13" height="13" xlink:href="/assets/eur-green.svg"/>
	<image x="406.5" y="372" width="13" height="13" xlink:href="/assets/eur-green.svg"/>
	<image x="425.5" y="372" width="13" height="13" xlink:href="/assets/eur-green.svg"/>
	<image x="444.5" y="372" width="13" height="13" xlink:href="/assets/eur-green.svg"/>
	<image x="463.5" y="372" width="13" height="13" xlink:href="/assets/eur-green.svg"/>
	<image x="482.5" y="372" width="13" height="13" xlink:href="/assets/eur-green.svg"/>
	<image x="502.5" y="372" width="13" height="13" xlink:href="/assets/eur-green.svg"/>
	<image x="521.5" y="372" width="13" height="13" xlink:href="/assets/eur-green.svg"/>
	<image x="540.5" y="372" width="13" height="13" xlink:href="/assets/eur-green.svg"/>
	<image x="559.5" y="372" width="13" height="13" xlink:href="/assets/eur-green.svg"/>
	<image x="578.5" y="372" width="13" height="13" xlink:href="/assets/eur-green.svg"/>
	<image x="597.5" y="372" width="13" height="13" xlink:href="/assets/eur-yellow.svg"/>
	<image x="617.5" y="372" width="13" height="13" xlink:href="/assets/eur-yellow.svg"/>
	<image x="636.5" y="372" width="13" height="13" xlink:href="/assets/eur-yellow.svg"/>
	<image x="655.5" y="372" width="13" height="13" xlink:href="/assets/eur-yellow.svg"/>
	<image x="674.5" y="372" width="13" height="13" xlink:href="/assets/eur-yellow.svg"/>
	<image x="693.5" y="372" width="13" height="13" xlink:href="/assets/eur-yellow.svg"/>
	<image x="712.5" y="372" width="13" height="13" xlink:href="/assets/eur-yellow.svg"/>
	<image x="732.5" y="372" width="13" height="13" xlink:href="/assets/eur-yellow.svg"/>
	<image x="751.5" y="372" width="13" height="13" xlink:href="/assets/eur-yellow.svg"/>
	<image x="770.5" y="372" width="13" height="13" xlink:href="/assets/eur-yellow.svg"/>
	<image x="789.5" y="372" width="13" height="13" xlink:href="/assets/eur-yellow.svg"/>
	<image x="808.5" y="372" width="13" height="13" xlink:href="/assets/eur-yellow.svg"/>
	<image x="828.5" y="372" width="13" height="13" xlink:href="/assets/eur-yellow.svg"/>
	<image x="847.5" y="372" width="13" height="13" xlink:href="/assets/eur-yellow.svg"/>
	<image x="866.5" y="372" width="13" height="13" xlink:href="/assets/eur-yellow.svg"/>
	<image x="885.5" y="372" width="13" height="13" xlink:href="/assets/eur-yellow.svg"/>
	<image x="904.5" y="372" width="13" height="13" xlink:href="/assets/eur-yellow.svg"/>
	<image x="923.5" y="372" width="13" height="13" xlink:href="/assets/eur-yellow.svg"/>
	<image x="943.5" y="372" width="13" height="13" xlink:href="/assets/eur-yellow.svg"/>
	<image x="962.5" y="372" width="13" height="13" xlink:href="/assets/eur-yellow.svg"/>
	<image x="981.5" y="372" width="13" height="13" xlink:href="/assets/eur-red.svg"/>
	<image x="1000.5" y="372" width="13" height="13" xlink:href="/assets/eur-red.svg"/>
	<image x="1019.5" y="372" width="13" height="13" xlink:href="/assets/eur-yellow.svg"/>
	<image x="1039.5" y="372" width="13" height="13" xlink:href="/assets/eur-yellow.svg"/>
	<image x="1058.5" y="372" width="13" height="13" xlink:href="/assets/eur-yellow.svg"/>
	<image x="1077.5" y="372" width="13" height="13" xlink:href="/assets/eur-yellow.svg"/>
	<image x="1096.5" y="372" width="13" height="13" xlink:href="/assets/eur-yellow.svg"/>
	<image x="1115.5" y="372" width="13" height="13" xlink:href="/assets/eur-yellow.svg"/>
	<image x="1134.5" y="372" width="13" height="13" xlink:href="/assets/eur-green.svg"/>
	<image x="1154.5" y="372" width="13" height="13" xlink:href="/assets/eur-green.svg"/>
	<image x="1173.5" y="372" width="13" height="13" xlink:href="/assets/eur-green.svg"/>
	<image x="1192.5" y="372" width="13" height="13" xlink:href="/assets/eur-green.svg"/>
	<image x="1211.5" y="372" width="13" height="13" xlink:href="/assets/eur-green.svg"/>
	<image x="1230.5" y="372" width="13" height="13" xlink:href="/assets/eur-green.svg"/>
	<image x="1250.5" y="372" width="13" height="13" xlink:href="/assets/eur-green.svg"/>
	<image x="1269.5" y="372" width="13" height="13" xlink:href="/assets/eur-green.svg"/>
	<image x="1288.5" y="372" width="13" height="13" xlink:href="/assets/eur-green.svg"/>
	<image x="1307.5" y="372" width="13" height="13" xlink:href="/assets/eur-green.svg"/>
	<image x="1326.5" y="372" width="13" height="13" xlink:href="/assets/eur-green.svg"/>
	<image x="1345.5" y="372" width="13" height="13" xlink:href="/assets/eur-green.svg"/>
	<image x="1365.5" y="372" width="13" height="13" xlink:href="/assets/eur-green.svg"/>
	<image x="1384.5" y="372" width="13" height="13" xlink:href="/assets/eur-green.svg"/>
	<image x="1403.5" y="372" width="13" height="13" xlink:href="/assets/eur-green.svg"/>
	<image x="1422.5" y="372" width="13" height="13" xlink:href="/assets/eur-green.svg"/>
	<image x="1441.5" y="372" width="13" height="13" xlink:href="/assets/eur-green.svg"/>
	<image x="1461.5" y="372" width="13" height="13" xlink:href="/assets/eur-green.svg"/>
	<image x="1480.5" y="372" width="13" height="13" xlink:href="/assets/eur-green.svg"/>
	<image x="1499.5" y="372" width="13" height="13" xlink:href="/assets/eur-green.svg"/>
	<image x="1518.5" y="372" width="13" height="13" xlink:href="/assets/eur-green.svg"/>
	<image x="1537.5" y="372" width="13" height="13" xlink:href="/assets/eur-green.svg"/>
	<image x="1556.5" y="372" width="13" height="13" xlink:href="/assets/eur-green.svg"/>
	<image x="1576.5" y="372" width="13" height="13" xlink:href="/assets/eur-green.svg"/>
	<image x="1595.5" y="372" width="13" height="13" xlink:href="/assets/eur-green.svg"/>
	<image x="1614.5" y="372" width="13" height="13" xlink:href="/assets/eur-green.svg"/>
	<image x="1633.5" y="372" width="13" height="13" xlink:href="/assets/eur-green.svg"/>
	<image x="1652.5" y="372" width="13" height="13" xlink:href="/assets/eur-green.svg"/>
	<image x="1672.5" y="372" width="13" height="13" xlink:href="/assets/eur-green.svg"/>
	<image x="1691.5" y="372" width="13" height="13" xlink:href="/assets/eur-yellow.svg"/>
	<image x="1710.5" y="372" width="13" height="13" xlink:href="/assets/eur-yellow.svg"/>
	<image x="1729.5" y="372" width="13" height="13" xlink:href="/assets/eur-yellow.svg"/>
	<image x="1748.5" y="372" width="13" height="13" xlink:href="/assets/eur-yellow.svg"/>
	<image x="1767.5" y="372" width="13" height="13" xlink:href="/assets/eur-yellow.svg"/>
	<image x="1787.5" y="372" width="13" height="13" xlink:href="/assets/eur-red.svg"/>
	<image x="1806.5" y="372" width="13" height="13" xlink:href="/assets/eur-red.svg"/>
	<image x="1825.5" y="372" width="13" height="13" xlink:href="/assets/eur-red.svg"/>
	<image x="1844.5" y="372" width="13" height="13" xlink:href="/assets/eur-red.svg"/>
	<image x="1863.5" y="372" width="13" height="13" xlink:href="/assets/eur-yellow.svg"/>
	<image x="1882.5" y="372" width="13" height="13" xlink:href="/assets/eur-yellow.svg"/>
	<image x="1902.5" y="372" width="13" height="13" xlink:href="/assets/eur-yellow.svg"/>
	<image x="1921.5" y="372" width="13" height="13" xlink:href="/assets/eur-green.svg"/>
	<image x="1940.5" y="372" width="13" height="13" xlink:href="/assets/eur-green.svg"/>
	<image x="1959.5" y="372" width="13" height="13" xlink:href="/assets/eur-green.svg"/>
	<image x="1978.5" y="372" width="13" height="13" xlink:href="/assets/eur-green.svg"/>
	<image x="1998.5" y="372" width="13" height="13" xlink:href="/assets/eur-green.svg"/>
	<image x="2017.5" y="372" width="13" height="13" xlink:href="/assets/eur-green.svg"/>
	<image x="2036.5" y="372" width="13" height="13" xlink:href="/assets/eur-green.svg"/>
	<image x="2055.5" y="372" width="13" height="13" xlink:href="/assets/eur-green.svg"/>
	<image x="2074.5" y="372" width="13" height="13" xlink:href="/assets/eur-green.svg"/>
	<image x="2093.5" y="372" width="13" height="13" xlink:href="/assets/eur-yellow.svg"/>
	<image x="2113.5" y="372" width="13" height="13" xlink:href="/assets/eur-green.svg"/>
	<image x="2132.5" y="372" width="13" height="13" xlink:href="/assets/eur-yellow.svg"/>
	<image x="2151.5" y="372" width="13" height="13" xlink:href="/assets/eur-red.svg"/>
	<image x="2170.5" y="372" width="13" height="13" xlink:href="/assets/eur-red.svg"/>
	<image x="2189.5" y="372" width="13" height="13" xlink:href="/assets/eur-red.svg"/>
	<image x="2209.5" y="372" width="13" height="13" xlink:href="/assets/eur-red.svg"/>
	<image x="2228.5" y="372" width="13" height="13" xlink:href="/assets/eur-red.svg"/>
	<image x="2247.5" y="372" width="13" height="13" xlink:href="/assets/eur-red.svg"/>
	<image x="2266.5" y="372" width="13" height="13" xlink:href="/assets/eur-red.svg"/>
	<image x="2285.5" y="372" width="13" height="13" xlink:href="/assets/eur-red.svg"/>
	<image x="2304.5" y="372" width="13" height="13" xlink:href="/assets/eur-red.svg"/>
	<image x="2324.5" y="372" width="13" height="13" xlink:href="/assets/eur-red.svg"/>
	<image x="2343.5" y="372" width="13" height="13" xlink:href="/assets/eur-red.svg"/>
	<image x="2362.5" y="372" width="13" height="13" xlink:href="/assets/eur-red.svg"/>
	<path d="M48,198C51.166666666666664,193.66666666666666,60.5,177,67,172C73.5,167,80.5,168.66666666666666,87,168C93.5,167.33333333333334,99.66666666666667,167.33333333333334,106,168C112.33333333333333,168.66666666666666,118.66666666666667,168.5,125,172C131.33333333333334,175.5,137.66666666666666,187.5,144,189C150.33333333333334,190.5,156.66666666666666,183,163,181C169.33333333333334,179,175.5,180.5,182,177C188.5,173.5,195.5,163.5,202,160C208.5,156.5,214.66666666666666,156,221,156C227.33333333333334,156,233.66666666666666,159.33333333333334,240,160C246.33333333333334,160.66666666666666,252.66666666666666,161.5,259,160C265.3333333333333,158.5,271.5,151.66666666666666,278,151C284.5,150.33333333333334,291.5,153.16666666666666,298,156C304.5,158.83333333333334,310.6666666666667,163.16666666666666,317,168C323.3333333333333,172.83333333333334,329.6666666666667,181.5,336,185C342.3333333333333,188.5,348.6666666666667,186.16666666666666,355,189C361.3333333333333,191.83333333333334,367.6666666666667,197.66666666666666,374,202C380.3333333333333,206.33333333333334,386.5,210.83333333333334,393,215C399.5,219.16666666666666,406.5,225,413,227C419.5,229,425.6666666666667,226.33333333333334,432,227C438.3333333333333,227.66666666666666,444.6666666666667,230.33333333333334,451,231C457.3333333333333,231.66666666666666,463.6666666666667,230.16666666666666,470,231C476.3333333333333,231.83333333333334,482.5,233.83333333333334,489,236C495.5,238.16666666666666,502.5,240.5,509,244C515.5,247.5,521.6666666666666,255.66666666666666,528,257C534.3333333333334,258.3333333333333,540.6666666666666,252,547,252C553.3333333333334,252,559.6666666666666,254.83333333333334,566,257C572.3333333333334,259.1666666666667,578.6666666666666,262.1666666666667,585,265C591.3333333333334,267.8333333333333,597.5,270.5,604,274C610.5,277.5,617.5,281.1666666666667,624,286C630.5,290.8333333333333,636.6666666666666,300.8333333333333,643,303C649.3333333333334,305.1666666666667,655.6666666666666,301.1666666666667,662,299C668.3333333333334,296.8333333333333,674.6666666666666,292.1666666666667,681,290C687.3333333333334,287.8333333333333,693.6666666666666,287.3333333333333,700,286C706.3333333333334,284.6666666666667,712.5,282,719,282C725.5,282,732.5,284.6666666666667,739,286C745.5,287.3333333333333,751.6666666666666,287.8333333333333,758,290C764.3333333333334,292.1666666666667,770.6666666666666,296.1666666666667,777,299C783.3333333333334,301.8333333333333,789.6666666666666,305.6666666666667,796,307C802.3333333333334,308.3333333333333,808.5,307,815,307C821.5,307,828.5,307,835,307C841.5,307,847.6666666666666,307.6666666666667,854,307C860.3333333333334,306.3333333333333,866.6666666666666,304.3333333333333,873,303C879.3333333333334,301.6666666666667,885.6666666666666,299.6666666666667,892,299C898.3333333333334,298.3333333333333,904.6666666666666,299,911,299C917.3333333333334,299,923.5,299.6666666666667,930,299C936.5,298.3333333333333,943.5,294.3333333333333,950,295C956.5,295.6666666666667,962.6666666666666,298.8333333333333,969,303C975.3333333333334,307.1666666666667,981.6666666666666,317.1666666666667,988,320C994.3333333333334,322.8333333333333,1000.6666666666666,320.6666666666667,1007,320C1013.3333333333334,319.3333333333333,1019.5,318.1666666666667,1026,316C1032.5,313.8333333333333,1039.5,309.1666666666667,1046,307C1052.5,304.8333333333333,1058.6666666666667,304.3333333333333,1065,303C1071.3333333333333,301.6666666666667,1077.6666666666667,300.3333333333333,1084,299C1090.3333333333333,297.6666666666667,1096.6666666666667,298.5,1103,295C1109.3333333333333,291.5,1115.6666666666667,286.5,1122,278C1128.3333333333333,269.5,1134.5,253.16666666666666,1141,244C1147.5,234.83333333333334,1154.5,227.83333333333334,1161,223C1167.5,218.16666666666666,1173.6666666666667,217.16666666666666,1180,215C1186.3333333333333,212.83333333333334,1192.6666666666667,210.83333333333334,1199,210C1205.3333333333333,209.16666666666666,1211.6666666666667,210.66666666666666,1218,210C1224.3333333333333,209.33333333333334,1230.5,207.33333333333334,1237,206C1243.5,204.66666666666666,1250.5,203.33333333333334,1257,202C1263.5,200.66666666666666,1269.6666666666667,198,1276,198C1282.3333333333333,198,1288.6666666666667,201.33333333333334,1295,202C1301.3333333333333,202.66666666666666,1307.6666666666667,202.66666666666666,1314,202C1320.3333333333333,201.33333333333334,1326.6666666666667,199.5,1333,198C1339.3333333333333,196.5,1345.5,195.16666666666666,1352,193C1358.5,190.83333333333334,1365.5,186.33333333333334,1372,185C1378.5,183.66666666666666,1384.6666666666667,185.66666666666666,1391,185C1397.3333333333333,184.33333333333334,1403.6666666666667,185.16666666666666,1410,181C1416.3333333333333,176.83333333333334,1422.6666666666667,165.66666666666666,1429,160C1435.3333333333333,154.33333333333334,1441.5,147.66666666666666,1448,147C1454.5,146.33333333333334,1461.5,153.83333333333334,1468,156C1474.5,158.16666666666666,1480.6666666666667,158,1487,160C1493.3333333333333,162,1499.6666666666667,166,1506,168C1512.3333333333333,170,1518.6666666666667,169.83333333333334,1525,172C1531.3333333333333,174.16666666666666,1537.6666666666667,175.33333333333334,1544,181C1550.3333333333333,186.66666666666666,1556.5,198.33333333333334,1563,206C1569.5,213.66666666666666,1576.5,225.5,1583,227C1589.5,228.5,1595.6666666666667,217.83333333333334,1602,215C1608.3333333333333,212.16666666666666,1614.6666666666667,208.66666666666666,1621,210C1627.3333333333333,211.33333333333334,1633.6666666666667,218,1640,223C1646.3333333333333,228,1652.5,235.16666666666666,1659,240C1665.5,244.83333333333334,1672.5,247.83333333333334,1679,252C1685.5,256.1666666666667,1691.6666666666667,260,1698,265C1704.3333333333333,270,1710.6666666666667,276.3333333333333,1717,282C1723.3333333333333,287.6666666666667,1729.6666666666667,294.8333333333333,1736,299C1742.3333333333333,303.1666666666667,1748.6666666666667,305,1755,307C1761.3333333333333,309,1767.5,308.1666666666667,1774,311C1780.5,313.8333333333333,1787.5,318.3333333333333,1794,324C1800.5,329.6666666666667,1806.6666666666667,340,1813,345C1819.3333333333333,350,1825.6666666666667,353.3333333333333,1832,354C1838.3333333333333,354.6666666666667,1844.6666666666667,355.3333333333333,1851,349C1857.3333333333333,342.6666666666667,1863.6666666666667,323,1870,316C1876.3333333333333,309,1882.5,314,1889,307C1895.5,300,1902.5,284.5,1909,274C1915.5,263.5,1921.6666666666667,253.83333333333334,1928,244C1934.3333333333333,234.16666666666666,1940.6666666666667,217.83333333333334,1947,215C1953.3333333333333,212.16666666666666,1959.6666666666667,221.5,1966,227C1972.3333333333333,232.5,1978.5,248,1985,248C1991.5,248,1998.5,236.83333333333334,2005,227C2011.5,217.16666666666666,2017.6666666666667,193.83333333333334,2024,189C2030.3333333333333,184.16666666666666,2036.6666666666667,196.5,2043,198C2049.3333333333335,199.5,2055.6666666666665,198.83333333333334,2062,198C2068.3333333333335,197.16666666666666,2074.6666666666665,176.16666666666666,2081,193C2087.3333333333335,209.83333333333334,2093.5,290.5,2100,299C2106.5,307.5,2113.5,244,2120,244C2126.5,244,2132.6666666666665,284.1666666666667,2139,299C2145.3333333333335,313.8333333333333,2151.6666666666665,323.8333333333333,2158,333C2164.3333333333335,342.1666666666667,2170.6666666666665,355.5,2177,354C2183.3333333333335,352.5,2189.5,331.1666666666667,2196,324C2202.5,316.8333333333333,2209.5,313.1666666666667,2216,311C2222.5,308.8333333333333,2228.6666666666665,305.3333333333333,2235,311C2241.3333333333335,316.6666666666667,2247.6666666666665,342.1666666666667,2254,345C2260.3333333333335,347.8333333333333,2266.6666666666665,328.6666666666667,2273,328C2279.3333333333335,327.3333333333333,2285.6666666666665,337.5,2292,341C2298.3333333333335,344.5,2304.5,346.1666666666667,2311,349C2317.5,351.8333333333333,2324.5,359.3333333333333,2331,358C2337.5,356.6666666666667,2343.6666666666665,346,2350,341C2356.3333333333335,336,2365.8333333333335,330.1666666666667,2369,328" stroke="green" stroke-width="2.5" fill="none"/>
	<path d="M48,274C51.166666666666664,274.3333333333333,60.5,275.6666666666667,67,276C73.5,276.3333333333333,80.5,275.6666666666667,87,276C93.5,276.3333333333333,99.66666666666667,277.3333333333333,106,278C112.33333333333333,278.6666666666667,118.66666666666667,279.6666666666667,125,280C131.33333333333334,280.3333333333333,137.66666666666666,280,144,280C150.33333333333334,280,156.66666666666666,280,163,280C169.33333333333334,280,175.5,280.3333333333333,182,280C188.5,279.6666666666667,195.5,278.6666666666667,202,278C208.5,277.3333333333333,214.66666666666666,276.3333333333333,221,276C227.33333333333334,275.6666666666667,233.66666666666666,276.3333333333333,240,276C246.33333333333334,275.6666666666667,252.66666666666666,274.3333333333333,259,274C265.3333333333333,273.6666666666667,271.5,274.5,278,274C284.5,273.5,291.5,271.5,298,271C304.5,270.5,310.6666666666667,271.3333333333333,317,271C323.3333333333333,270.6666666666667,329.6666666666667,269.6666666666667,336,269C342.3333333333333,268.3333333333333,348.6666666666667,268,355,267C361.3333333333333,266,367.6666666666667,264,374,263C380.3333333333333,262,386.5,261.3333333333333,393,261C399.5,260.6666666666667,406.5,261,413,261C419.5,261,425.6666666666667,261,432,261C438.3333333333333,261,444.6666666666667,261,451,261C457.3333333333333,261,463.6666666666667,261,470,261C476.3333333333333,261,482.5,260.6666666666667,489,261C495.5,261.3333333333333,502.5,262,509,263C515.5,264,521.6666666666666,266,528,267C534.3333333333334,268,540.6666666666666,268.3333333333333,547,269C553.3333333333334,269.6666666666667,559.6666666666666,269.8333333333333,566,271C572.3333333333334,272.1666666666667,578.6666666666666,275.1666666666667,585,276C591.3333333333334,276.8333333333333,597.5,276,604,276C610.5,276,617.5,276.3333333333333,624,276C630.5,275.6666666666667,636.6666666666666,274.8333333333333,643,274C649.3333333333334,273.1666666666667,655.6666666666666,271.8333333333333,662,271C668.3333333333334,270.1666666666667,674.6666666666666,269.3333333333333,681,269C687.3333333333334,268.6666666666667,693.6666666666666,269,700,269C706.3333333333334,269,712.5,269.3333333333333,719,269C725.5,268.6666666666667,732.5,267.3333333333333,739,267C745.5,266.6666666666667,751.6666666666666,267.3333333333333,758,267C764.3333333333334,266.6666666666667,770.6666666666666,265.3333333333333,777,265C783.3333333333334,264.6666666666667,789.6666666666666,265,796,265C802.3333333333334,265,808.5,265,815,265C821.5,265,828.5,265,835,265C841.5,265,847.6666666666666,265,854,265C860.3333333333334,265,866.6666666666666,265.3333333333333,873,265C879.3333333333334,264.6666666666667,885.6666666666666,263.3333333333333,892,263C898.3333333333334,262.6666666666667,904.6666666666666,263.3333333333333,911,263C917.3333333333334,262.6666666666667,923.5,261.3333333333333,930,261C936.5,260.6666666666667,943.5,261,950,261C956.5,261,962.6666666666666,260.6666666666667,969,261C975.3333333333334,261.3333333333333,981.6666666666666,262.3333333333333,988,263C994.3333333333334,263.6666666666667,1000.6666666666666,264.3333333333333,1007,265C1013.3333333333334,265.6666666666667,1019.5,266.3333333333333,1026,267C1032.5,267.6666666666667,1039.5,268.6666666666667,1046,269C1052.5,269.3333333333333,1058.6666666666667,269,1065,269C1071.3333333333333,269,1077.6666666666667,269,1084,269C1090.3333333333333,269,1096.6666666666667,269.3333333333333,1103,269C1109.3333333333333,268.6666666666667,1115.6666666666667,267.6666666666667,1122,267C1128.3333333333333,266.3333333333333,1134.5,265.3333333333333,1141,265C1147.5,264.6666666666667,1154.5,265,1161,265C1167.5,265,1173.6666666666667,265.3333333333333,1180,265C1186.3333333333333,264.6666666666667,1192.6666666666667,263.3333333333333,1199,263C1205.3333333333333,262.6666666666667,1211.6666666666667,263,1218,263C1224.3333333333333,263,1230.5,262.6666666666667,1237,263C1243.5,263.3333333333333,1250.5,265,1257,265C1263.5,265,1269.6666666666667,263.3333333333333,1276,263C1282.3333333333333,262.6666666666667,1288.6666666666667,263,1295,263C1301.3333333333333,263,1307.6666666666667,263,1314,263C1320.3333333333333,263,1326.6666666666667,263,1333,263C1339.3333333333333,263,1345.5,263,1352,263C1358.5,263,1365.5,263,1372,263C1378.5,263,1384.6666666666667,263,1391,263C1397.3333333333333,263,1403.6666666666667,262.6666666666667,1410,263C1416.3333333333333,263.3333333333333,1422.6666666666667,264.3333333333333,1429,265C1435.3333333333333,265.6666666666667,1441.5,266.3333333333333,1448,267C1454.5,267.6666666666667,1461.5,268.6666666666667,1468,269C1474.5,269.3333333333333,1480.6666666666667,268.6666666666667,1487,269C1493.3333333333333,269.3333333333333,1499.6666666666667,270.1666666666667,1506,271C1512.3333333333333,271.8333333333333,1518.6666666666667,273.5,1525,274C1531.3333333333333,274.5,1537.6666666666667,274,1544,274C1550.3333333333333,274,1556.5,274.5,1563,274C1569.5,273.5,1576.5,271.8333333333333,1583,271C1589.5,270.1666666666667,1595.6666666666667,269.3333333333333,1602,269C1608.3333333333333,268.6666666666667,1614.6666666666667,269,1621,269C1627.3333333333333,269,1633.6666666666667,269,1640,269C1646.3333333333333,269,1652.5,269.3333333333333,1659,269C1665.5,268.6666666666667,1672.5,267.3333333333333,1679,267C1685.5,266.6666666666667,1691.6666666666667,267,1698,267C1704.3333333333333,267,1710.6666666666667,267,1717,267C1723.3333333333333,267,1729.6666666666667,267,1736,267C1742.3333333333333,267,1748.6666666666667,268,1755,267C1761.3333333333333,266,1767.5,262,1774,261C1780.5,260,1787.5,260,1794,261C1800.5,262,1806.6666666666667,264.8333333333333,1813,267C1819.3333333333333,269.1666666666667,1825.6666666666667,273.3333333333333,1832,274C1838.3333333333333,274.6666666666667,1844.6666666666667,272.1666666666667,1851,271C1857.3333333333333,269.8333333333333,1863.6666666666667,268,1870,267C1876.3333333333333,266,1882.5,265.6666666666667,1889,265C1895.5,264.3333333333333,1902.5,263,1909,263C1915.5,263,1921.6666666666667,264.6666666666667,1928,265C1934.3333333333333,265.3333333333333,1940.6666666666667,264,1947,265C1953.3333333333333,266,1959.6666666666667,268.8333333333333,1966,271C1972.3333333333333,273.1666666666667,1978.5,277.1666666666667,1985,278C1991.5,278.8333333333333,1998.5,277.8333333333333,2005,276C2011.5,274.1666666666667,2017.6666666666667,269.1666666666667,2024,267C2030.3333333333333,264.8333333333333,2036.6666666666667,264.3333333333333,2043,263C2049.3333333333335,261.6666666666667,2055.6666666666665,260,2062,259C2068.3333333333335,258,2074.6666666666665,253.83333333333334,2081,257C2087.3333333333335,260.1666666666667,2093.5,276.6666666666667,2100,278C2106.5,279.3333333333333,2113.5,268.1666666666667,2120,265C2126.5,261.8333333333333,2132.6666666666665,261.1666666666667,2139,259C2145.3333333333335,256.8333333333333,2151.6666666666665,248.83333333333334,2158,252C2164.3333333333335,255.16666666666666,2170.6666666666665,276.1666666666667,2177,278C2183.3333333333335,279.8333333333333,2189.5,266.5,2196,263C2202.5,259.5,2209.5,258,2216,257C2222.5,256,2228.6666666666665,252.83333333333334,2235,257C2241.3333333333335,261.1666666666667,2247.6666666666665,280,2254,282C2260.3333333333335,284,2266.6666666666665,271.1666666666667,2273,269C2279.3333333333335,266.8333333333333,2285.6666666666665,268.6666666666667,2292,269C2298.3333333333335,269.3333333333333,2304.5,268.5,2311,271C2317.5,273.5,2324.5,283.1666666666667,2331,284C2337.5,284.8333333333333,2343.6666666666665,277.6666666666667,2350,276C2356.3333333333335,274.3333333333333,2365.8333333333335,274.3333333333333,2369,274" stroke="#dd9d30" stroke-width="2.5" fill="none"/>
	<path d="M29,362V67M2369,362V67Z"/>
</svg>
