<?xml version="1.0" ?>
<svg xmlns="http://www.w3.org/2000/svg" xmlns:xlink="http://www.w3.org/1999/xlink" version="1.1" width="2390" height="390">
	<rect x="134.3305785123967" y="32" width="19.33884297520661" height="380" fill="#eeeeee" fill-opacity="0.5"/>
	<defs/>
	<g stroke="#eeeeee" stroke-width="1">
		<path d="M58,362V67"/>
		<path d="M77,362V67"/>
		<path d="M97,362V67"/>
		<path d="M116,362V67"/>
		<path d="M135,362V67"/>
		<path d="M154,362V67"/>
		<path d="M173,362V67"/>
		<path d="M192,362V67"/>
		<path d="M212,362V67"/>
		<path d="M231,362V67"/>
		<path d="M250,362V67"/>
		<path d="M269,362V67"/>
		<path d="M288,362V67"/>
		<path d="M308,362V67"/>
		<path d="M327,362V67"/>
		<path d="M346,362V67"/>
		<path d="M365,362V67"/>
		<path d="M384,362V67"/>
		<path d="M403,362V67"/>
		<path d="M423,362V67"/>
		<path d="M442,362V67"/>
		<path d="M461,362V67"/>
		<path d="M480,362V67"/>
		<path d="M499,362V67"/>
		<path d="M519,362V67"/>
		<path d="M538,362V67"/>
		<path d="M557,362V67"/>
		<path d="M576,362V67"/>
		<path d="M595,362V67"/>
		<path d="M614,362V67"/>
		<path d="M634,362V67"/>
		<path d="M653,362V67"/>
		<path d="M672,362V67"/>
		<path d="M691,362V67"/>
		<path d="M710,362V67"/>
		<path d="M729,362V67"/>
		<path d="M749,362V67"/>
		<path d="M768,362V67"/>
		<path d="M787,362V67"/>
		<path d="M806,362V67"/>
		<path d="M825,362V67"/>
		<path d="M845,362V67"/>
		<path d="M864,362V67"/>
		<path d="M883,362V67"/>
		<path d="M902,362V67"/>
		<path d="M921,362V67"/>
		<path d="M940,362V67"/>
		<path d="M960,362V67"/>
		<path d="M979,362V67"/>
		<path d="M998,362V67"/>
		<path d="M1017,362V67"/>
		<path d="M1036,362V67"/>
		<path d="M1056,362V67"/>
		<path d="M1075,362V67"/>
		<path d="M1094,362V67"/>
		<path d="M1113,362V67"/>
		<path d="M1132,362V67"/>
		<path d="M1151,362V67"/>
		<path d="M1171,362V67"/>
		<path d="M1190,362V67"/>
		<path d="M1209,362V67"/>
		<path d="M1228,362V67"/>
		<path d="M1247,362V67"/>
		<path d="M1267,362V67"/>
		<path d="M1286,362V67"/>
		<path d="M1305,362V67"/>
		<path d="M1324,362V67"/>
		<path d="M1343,362V67"/>
		<path d="M1362,362V67"/>
		<path d="M1382,362V67"/>
		<path d="M1401,362V67"/>
		<path d="M1420,362V67"/>
		<path d="M1439,362V67"/>
		<path d="M1458,362V67"/>
		<path d="M1478,362V67"/>
		<path d="M1497,362V67"/>
		<path d="M1516,362V67"/>
		<path d="M1535,362V67"/>
		<path d="M1554,362V67"/>
		<path d="M1573,362V67"/>
		<path d="M1593,362V67"/>
		<path d="M1612,362V67"/>
		<path d="M1631,362V67"/>
		<path d="M1650,362V67"/>
		<path d="M1669,362V67"/>
		<path d="M1689,362V67"/>
		<path d="M1708,362V67"/>
		<path d="M1727,362V67"/>
		<path d="M1746,362V67"/>
		<path d="M1765,362V67"/>
		<path d="M1784,362V67"/>
		<path d="M1804,362V67"/>
		<path d="M1823,362V67"/>
		<path d="M1842,362V67"/>
		<path d="M1861,362V67"/>
		<path d="M1880,362V67"/>
		<path d="M1899,362V67"/>
		<path d="M1919,362V67"/>
		<path d="M1938,362V67"/>
		<path d="M1957,362V67"/>
		<path d="M1976,362V67"/>
		<path d="M1995,362V67"/>
		<path d="M2015,362V67"/>
		<path d="M2034,362V67"/>
		<path d="M2053,362V67"/>
		<path d="M2072,362V67"/>
		<path d="M2091,362V67"/>
		<path d="M2110,362V67"/>
		<path d="M2130,362V67"/>
		<path d="M2149,362V67"/>
		<path d="M2168,362V67"/>
		<path d="M2187,362V67"/>
		<path d="M2206,362V67"/>
		<path d="M2226,362V67"/>
		<path d="M2245,362V67"/>
		<path d="M2264,362V67"/>
		<path d="M2283,362V67"/>
		<path d="M2302,362V67"/>
		<path d="M2321,362V67"/>
		<path d="M2341,362V67"/>
		<path d="M2360,362V67"/>
	</g>
	<g stroke="#cdcdcd" stroke-width="1">
		<path d="M327,362V67"/>
		<path d="M787,362V67"/>
		<path d="M1247,362V67"/>
		<path d="M1708,362V67"/>
		<path d="M1899,362V67"/>
		<path d="M2053,362V67"/>
		<path d="M2130,362V67"/>
		<path d="M2206,362V67"/>
		<path d="M2283,362V67"/>
		<path d="M2360,362V67"/>
	</g>
	<g stroke="#cdcdcd" stroke-width="1">
		<path d="M38,362H2379"/>
		<path d="M38,341H2379"/>
		<path d="M38,320H2379"/>
		<path d="M38,299H2379"/>
		<path d="M38,278H2379"/>
		<path d="M38,257H2379"/>
		<path d="M38,236H2379"/>
		<path d="M38,215H2379"/>
		<path d="M38,193H2379"/>
		<path d="M38,172H2379"/>
		<path d="M38,151H2379"/>
		<path d="M38,130H2379"/>
		<path d="M38,109H2379"/>
		<path d="M38,88H2379"/>
		<path d="M38,67H2379"/>
	</g>
	<g fill="#000" font-size="13" font-weight="bold" text-anchor="middle">
		<text x="48" y="25">SU</text>
		<text x="336" y="25">MA</text>
		<text x="796" y="25">TI</text>
		<text x="1257" y="25">KE</text>
		<text x="1717" y="25">TO</text>
		<text x="1909" y="25">PE</text>
		<text x="2062" y="25">LA</text>
		<text x="2139" y="25">SU</text>
		<text x="2216" y="25">MA</text>
		<text x="2292" y="25">TI</text>
		<text x="2369" y="25">KE</text>
	</g>
	<g fill="#000" font-size="12" font-weight="regular" text-anchor="middle">
		<text x="48" y="59">09</text>
		<text x="67" y="59">10</text>
		<text x="87" y="59">11</text>
		<text x="106" y="59">12</text>
		<text x="125" y="59">13</text>
		<text x="144" y="59">14</text>
		<text x="163" y="59">15</text>
		<text x="182" y="59">16</text>
		<text x="202" y="59">17</text>
		<text x="221" y="59">18</text>
		<text x="240" y="59">19</text>
		<text x="259" y="59">20</text>
		<text x="278" y="59">21</text>
		<text x="298" y="59">22</text>
		<text x="317" y="59">23</text>
		<text x="336" y="59">00</text>
		<text x="355" y="59">01</text>
		<text x="374" y="59">02</text>
		<text x="393" y="59">03</text>
		<text x="413" y="59">04</text>
		<text x="432" y="59">05</text>
		<text x="451" y="59">06</text>
		<text x="470" y="59">07</text>
		<text x="489" y="59">08</text>
		<text x="509" y="59">09</text>
		<text x="528" y="59">10</text>
		<text x="547" y="59">11</text>
		<text x="566" y="59">12</text>
		<text x="585" y="59">13</text>
		<text x="604" y="59">14</text>
		<text x="624" y="59">15</text>
		<text x="643" y="59">16</text>
		<text x="662" y="59">17</text>
		<text x="681" y="59">18</text>
		<text x="700" y="59">19</text>
		<text x="719" y="59">20</text>
		<text x="739" y="59">21</text>
		<text x="758" y="59">22</text>
		<text x="777" y="59">23</text>
		<text x="796" y="59">00</text>
		<text x="815" y="59">01</text>
		<text x="835" y="59">02</text>
		<text x="854" y="59">03</text>
		<text x="873" y="59">04</text>
		<text x="892" y="59">05</text>
		<text x="911" y="59">06</text>
		<text x="930" y="59">07</text>
		<text x="950" y="59">08</text>
		<text x="969" y="59">09</text>
		<text x="988" y="59">10</text>
		<text x="1007" y="59">11</text>
		<text x="1026" y="59">12</text>
		<text x="1046" y="59">13</text>
		<text x="1065" y="59">14</text>
		<text x="1084" y="59">15</text>
		<text x="1103" y="59">16</text>
		<text x="1122" y="59">17</text>
		<text x="1141" y="59">18</text>
		<text x="1161" y="59">19</text>
		<text x="1180" y="59">20</text>
		<text x="1199" y="59">21</text>
		<text x="1218" y="59">22</text>
		<text x="1237" y="59">23</text>
		<text x="1257" y="59">00</text>
		<text x="1276" y="59">01</text>
		<text x="1295" y="59">02</text>
		<text x="1314" y="59">03</text>
		<text x="1333" y="59">04</text>
		<text x="1352" y="59">05</text>
		<text x="1372" y="59">06</text>
		<text x="1391" y="59">07</text>
		<text x="1410" y="59">08</text>
		<text x="1429" y="59">09</text>
		<text x="1448" y="59">10</text>
		<text x="1468" y="59">11</text>
		<text x="1487" y="59">12</text>
		<text x="1506" y="59">13</text>
		<text x="1525" y="59">14</text>
		<text x="1544" y="59">15</text>
		<text x="1563" y="59">16</text>
		<text x="1583" y="59">17</text>
		<text x="1602" y="59">18</text>
		<text x="1621" y="59">19</text>
		<text x="1640" y="59">20</text>
		<text x="1659" y="59">21</text>
		<text x="1679" y="59">22</text>
		<text x="1698" y="59">23</text>
		<text x="1717" y="59">00</text>
		<text x="1736" y="59">01</text>
		<text x="1755" y="59">02</text>
		<text x="1774" y="59">05</text>
		<text x="1794" y="59">08</text>
		<text x="1813" y="59">11</text>
		<text x="1832" y="59">14</text>
		<text x="1851" y="59">17</text>
		<text x="1870" y="59">20</text>
		<text x="1889" y="59">23</text>
		<text x="1909" y="59">02</text>
		<text x="1928" y="59">05</text>
		<text x="1947" y="59">08</text>
		<text x="1966" y="59">11</text>
		<text x="1985" y="59">14</text>
		<text x="2005" y="59">17</text>
		<text x="2024" y="59">20</text>
		<text x="2043" y="59">23</text>
		<text x="2062" y="59">02</text>
		<text x="2081" y="59">08</text>
		<text x="2100" y="59">14</text>
		<text x="2120" y="59">20</text>
		<text x="2139" y="59">02</text>
		<text x="2158" y="59">08</text>
		<text x="2177" y="59">14</text>
		<text x="2196" y="59">20</text>
		<text x="2216" y="59">02</text>
		<text x="2235" y="59">08</text>
		<text x="2254" y="59">14</text>
		<text x="2273" y="59">20</text>
		<text x="2292" y="59">02</text>
		<text x="2311" y="59">08</text>
		<text x="2331" y="59">14</text>
		<text x="2350" y="59">20</text>
		<text x="2369" y="59">02</text>
	</g>
	<g fill="#000" font-size="13" font-weight="regular" text-anchor="middle">
		<text x="48" y="42">18.2.</text>
		<text x="336" y="42">19.2.</text>
		<text x="796" y="42">20.2.</text>
		<text x="1257" y="42">21.2.</text>
		<text x="1717" y="42">22.2.</text>
		<text x="1909" y="42">23.2.</text>
		<text x="2062" y="42">24.2.</text>
		<text x="2139" y="42">25.2.</text>
		<text x="2216" y="42">26.2.</text>
		<text x="2292" y="42">27.2.</text>
		<text x="2369" y="42">28.2.</text>
	</g>
	<image x="14" y="370" width="18" height="18" xlink:href="/assets/scale.svg"/>
	<image x="41.5" y="372" width="13" height="13" xlink:href="/assets/eur-yellow.svg"/>
	<image x="60.5" y="372" width="13" height="13" xlink:href="/assets/eur-yellow.svg"/>
	<image x="80.5" y="372" width="13" height="13" xlink:href="/assets/eur-yellow.svg"/>
	<image x="99.5" y="372" width="13" height="13" xlink:href="/assets/eur-red.svg"/>
	<image x="118.5" y="372" width="13" height="13" xlink:href="/assets/eur-red.svg"/>
	<image x="137.5" y="372" width="13" height="13" xlink:href="/assets/eur-red.svg"/>
	<image x="156.5" y="372" width="13" height="13" xlink:href="/assets/eur-red.svg"/>
	<image x="175.5" y="372" width="13" height="13" xlink:href="/assets/eur-red.svg"/>
	<image x="195.5" y="372" width="13" height="13" xlink:href="/assets/eur-yellow.svg"/>
	<image x="214.5" y="372" width="13" height="13" xlink:href="/assets/eur-yellow.svg"/>
	<image x="233.5" y="372" width="13" height="13" xlink:href="/assets/eur-yellow.svg"/>
	<image x="252.5" y="372" width="13" height="13" xlink:href="/assets/eur-yellow.svg"/>
	<image x="271.5" y="372" width="13" height="13" xlink:href="/assets/eur-yellow.svg"/>
	<image x="291.5" y="372" width="13" height="13" xlink:href="/assets/eur-yellow.svg"/>
	<image x="310.5" y="372" width="13" height="13" xlink:href="/assets/eur-yellow.svg"/>
	<image x="329.5" y="372" width="13" height="13" xlink:href="/assets/eur-yellow.svg"/>
	<image x="348.5" y="372" width="13" height="13" xlink:href="/assets/eur-yellow.svg"/>
	<image x="367.5" y="372" width="13" height="13" xlink:href="/assets/eur-yellow.svg"/>
	<image x="386.5" y="372" width="13" height="13" xlink:href="/assets/eur-yellow.svg"/>
	<image x="406.5" y="372" width="13" height="13" xlink:href="/assets/eur-yellow.svg"/>
	<image x="425.5" y="372" width="13" height="13" xlink:href="/assets/eur-red.svg"/>
	<image x="444.5" y="372" width="13" height="13" xlink:href="/assets/eur-red.svg"/>
	<image x="463.5" y="372" width="13" height="13" xlink:href="/assets/eur-red.svg"/>
	<image x="482.5" y="372" width="13" height="13" xlink:href="/assets/eur-red.svg"/>
	<image x="502.5" y="372" width="13" height="13" xlink:href="/assets/eur-red.svg"/>
	<image x="521.5" y="372" width="13" height="13" xlink:href="/assets/eur-red.svg"/>
	<image x="540.5" y="372" width="13" height="13" xlink:href="/assets/eur-red.svg"/>
	<image x="559.5" y="372" width="13" height="13" xlink:href="/assets/eur-red.svg"/>
	<image x="578.5" y="372" width="13" height="13" xlink:href="/assets/eur-red.svg"/>
	<image x="597.5" y="372" width="13" height="13" xlink:href="/assets/eur-red.svg"/>
	<image x="617.5" y="372" width="13" height="13" xlink:href="/assets/eur-red.svg"/>
	<image x="636.5" y="372" width="13" height="13" xlink:href="/assets/eur-red.svg"/>
	<image x="655.5" y="372" width="13" height="13" xlink:href="/assets/eur-red.svg"/>
	<image x="674.5" y="372" width="13" height="13" xlink:href="/assets/eur-red.svg"/>
	<image x="693.5" y="372" width="13" height="13" xlink:href="/assets/eur-red.svg"/>
	<image x="712.5" y="372" width="13" height="13" xlink:href="/assets/eur-red.svg"/>
	<image x="732.5" y="372" width="13" height="13" xlink:href="/assets/eur-yellow.svg"/>
	<image x="751.5" y="372" width="13" height="13" xlink:href="/assets/eur-yellow.svg"/>
	<image x="770.5" y="372" width="13" height="13" xlink:href="/assets/eur-yellow.svg"/>
	<image x="789.5" y="372" width="13" height="13" xlink:href="/assets/eur-yellow.svg"/>
	<image x="808.5" y="372" width="13" height="13" xlink:href="/assets/eur-yellow.svg"/>
	<image x="828.5" y="372" width="13" height="13" xlink:href="/assets/eur-yellow.svg"/>
	<image x="847.5" y="372" width="13" height="13" xlink:href="/assets/eur-yellow.svg"/>
	<image x="866.5" y="372" width="13" height="13" xlink:href="/assets/eur-yellow.svg"/>
	<image x="885.5" y="372" width="13" height="13" xlink:href="/assets/eur-yellow.svg"/>
	<image x="904.5" y="372" width="13" height="13" xlink:href="/assets/eur-red.svg"/>
	<image x="923.5" y="372" width="13" height="13" xlink:href="/assets/eur-red.svg"/>
	<image x="943.5" y="372" width="13" height="13" xlink:href="/assets/eur-red.svg"/>
	<image x="962.5" y="372" width="13" height="13" xlink:href="/assets/eur-red.svg"/>
	<image x="981.5" y="372" width="13" height="13" xlink:href="/assets/eur-red.svg"/>
	<image x="1000.5" y="372" width="13" height="13" xlink:href="/assets/eur-red.svg"/>
	<image x="1019.5" y="372" width="13" height="13" xlink:href="/assets/eur-red.svg"/>
	<image x="1039.5" y="372" width="13" height="13" xlink:href="/assets/eur-red.svg"/>
	<image x="1058.5" y="372" width="13" height="13" xlink:href="/assets/eur-red.svg"/>
	<image x="1077.5" y="372" width="13" height="13" xlink:href="/assets/eur-red.svg"/>
	<image x="1096.5" y="372" width="13" height="13" xlink:href="/assets/eur-red.svg"/>
	<image x="1115.5" y="372" width="13" height="13" xlink:href="/assets/eur-red.svg"/>
	<image x="1134.5" y="372" width="13" height="13" xlink:href="/assets/eur-red.svg"/>
	<image x="1154.5" y="372" width="13" height="13" xlink:href="/assets/eur-red.svg"/>
	<image x="1173.5" y="372" width="13" height="13" xlink:href="/assets/eur-red.svg"/>
	<image x="1192.5" y="372" width="13" height="13" xlink:href="/assets/eur-red.svg"/>
	<image x="1211.5" y="372" width="13" height="13" xlink:href="/assets/eur-red.svg"/>
	<image x="1230.5" y="372" width="13" height="13" xlink:href="/assets/eur-red.svg"/>
	<image x="1250.5" y="372" width="13" height="13" xlink:href="/assets/eur-red.svg"/>
	<image x="1269.5" y="372" width="13" height="13" xlink:href="/assets/eur-red.svg"/>
	<image x="1288.5" y="372" width="13" height="13" xlink:href="/assets/eur-red.svg"/>
	<image x="1307.5" y="372" width="13" height="13" xlink:href="/assets/eur-yellow.svg"/>
	<image x="1326.5" y="372" width="13" height="13" xlink:href="/assets/eur-yellow.svg"/>
	<image x="1345.5" y="372" width="13" height="13" xlink:href="/assets/eur-yellow.svg"/>
	<image x="1365.5" y="372" width="13" height="13" xlink:href="/assets/eur-yellow.svg"/>
	<image x="1384.5" y="372" width="13" height="13" xlink:href="/assets/eur-yellow.svg"/>
	<image x="1403.5" y="372" width="13" height="13" xlink:href="/assets/eur-yellow.svg"/>
	<image x="1422.5" y="372" width="13" height="13" xlink:href="/assets/eur-yellow.svg"/>
	<image x="1441.5" y="372" width="13" height="13" xlink:href="/assets/eur-yellow.svg"/>
	<image x="1461.5" y="372" width="13" height="13" xlink:href="/assets/eur-yellow.svg"/>
	<image x="1480.5" y="372" width="13" height="13" xlink:href="/assets/eur-yellow.svg"/>
	<image x="1499.5" y="372" width="13" height="13" xlink:href="/assets/eur-yellow.svg"/>
	<image x="1518.5" y="372" width="13" height="13" xlink:href="/assets/eur-yellow.svg"/>
	<image x="1537.5" y="372" width="13" height="13" xlink:href="/assets/eur-yellow.svg"/>
	<image x="1556.5" y="372" width="13" height="13" xlink:href="/assets/eur-yellow.svg"/>
	<image x="1576.5" y="372" width="13" height="13" xlink:href="/assets/eur-yellow.svg"/>
	<image x="1595.5" y="372" width="13" height="13" xlink:href="/assets/eur-green.svg"/>
	<image x="1614.5" y="372" width="13" height="13" xlink:href="/assets/eur-green.svg"/>
	<image x="1633.5" y="372" width="13" height="13" xlink:href="/assets/eur-green.svg"/>
	<image x="1652.5" y="372" width="13" height="13" xlink:href="/assets/eur-green.svg"/>
	<image x="1672.5" y="372" width="13" height="13" xlink:href="/assets/eur-green.svg"/>
	<image x="1691.5" y="372" width="13" height="13" xlink:href="/assets/eur-green.svg"/>
	<image x="1710.5" y="372" width="13" height="13" xlink:href="/assets/eur-green.svg"/>
	<image x="1729.5" y="372" width="13" height="13" xlink:href="/assets/eur-green.svg"/>
	<image x="1748.5" y="372" width="13" height="13" xlink:href="/assets/eur-green.svg"/>
	<image x="1767.5" y="372" width="13" height="13" xlink:href="/assets/eur-green.svg"/>
	<image x="1787.5" y="372" width="13" height="13" xlink:href="/assets/eur-green.svg"/>
	<image x="1806.5" y="372" width="13" height="13" xlink:href="/assets/eur-yellow.svg"/>
	<image x="1825.5" y="372" width="13" height="13" xlink:href="/assets/eur-yellow.svg"/>
	<image x="1844.5" y="372" width="13" height="13" xlink:href="/assets/eur-green.svg"/>
	<image x="1863.5" y="372" width="13" height="13" xlink:href="/assets/eur-green.svg"/>
	<image x="1882.5" y="372" width="13" height="13" xlink:href="/assets/eur-green.svg"/>
	<image x="1902.5" y="372" width="13" height="13" xlink:href="/assets/eur-green.svg"/>
	<image x="1921.5" y="372" width="13" height="13" xlink:href="/assets/eur-green.svg"/>
	<image x="1940.5" y="372" width="13" height="13" xlink:href="/assets/eur-green.svg"/>
	<image x="1959.5" y="372" width="13" height="13" xlink:href="/assets/eur-green.svg"/>
	<image x="1978.5" y="372" width="13" height="13" xlink:href="/assets/eur-green.svg"/>
	<image x="1998.5" y="372" width="13" height="13" xlink:href="/assets/eur-green.svg"/>
	<image x="2017.5" y="372" width="13" height="13" xlink:href="/assets/eur-green.svg"/>
	<image x="2036.5" y="372" width="13" height="13" xlink:href="/assets/eur-green.svg"/>
	<image x="2055.5" y="372" width="13" height="13" xlink:href="/assets/eur-green.svg"/>
	<image x="2074.5" y="372" width="13" height="13" xlink:href="/assets/eur-green.svg"/>
	<image x="2093.5" y="372" width="13" height="13" xlink:href="/assets/eur-red.svg"/>
	<image x="2113.5" y="372" width="13" height="13" xlink:href="/assets/eur-green.svg"/>
	<image x="2132.5" y="372" width="13" height="13" xlink:href="/assets/eur-green.svg"/>
	<image x="2151.5" y="372" width="13" height="13" xlink:href="/assets/eur-green.svg"/>
	<image x="2170.5" y="372" width="13" height="13" xlink:href="/assets/eur-green.svg"/>
	<image x="2189.5" y="372" width="13" height="13" xlink:href="/assets/eur-green.svg"/>
	<image x="2209.5" y="372" width="13" height="13" xlink:href="/assets/eur-green.svg"/>
	<image x="2228.5" y="372" width="13" height="13" xlink:href="/assets/eur-yellow.svg"/>
	<image x="2247.5" y="372" width="13" height="13" xlink:href="/assets/eur-red.svg"/>
	<image x="2266.5" y="372" width="13" height="13" xlink:href="/assets/eur-yellow.svg"/>
	<image x="2285.5" y="372" width="13" height="13" xlink:href="/assets/eur-green.svg"/>
	<image x="2304.5" y="372" width="13" height="13" xlink:href="/assets/eur-green.svg"/>
	<image x="2324.5" y="372" width="13" height="13" xlink:href="/assets/eur-yellow.svg"/>
	<image x="2343.5" y="372" width="13" height="13" xlink:href="/assets/eur-yellow.svg"/>
	<image x="2362.5" y="372" width="13" height="13" xlink:href="/assets/eur-red.svg"/>
	<path d="M48,244C51.166666666666664,247.5,60.5,260.8333333333333,67,265C73.5,269.1666666666667,80.5,260.5,87,269C93.5,277.5,99.66666666666667,305.3333333333333,106,316C112.33333333333333,326.6666666666667,118.66666666666667,330.1666666666667,125,333C131.33333333333334,335.8333333333333,137.66666666666666,334.5,144,333C150.33333333333334,331.5,156.66666666666666,330.3333333333333,163,324C169.33333333333334,317.6666666666667,175.5,305.5,182,295C188.5,284.5,195.5,268.8333333333333,202,261C208.5,253.16666666666666,214.66666666666666,251.5,221,248C227.33333333333334,244.5,233.66666666666666,241.33333333333334,240,240C246.33333333333334,238.66666666666666,252.66666666666666,239.33333333333334,259,240C265.3333333333333,240.66666666666666,271.5,243.33333333333334,278,244C284.5,244.66666666666666,291.5,243.33333333333334,298,244C304.5,244.66666666666666,310.6666666666667,246.66666666666666,317,248C323.3333333333333,249.33333333333334,329.6666666666667,249.83333333333334,336,252C342.3333333333333,254.16666666666666,348.6666666666667,258.8333333333333,355,261C361.3333333333333,263.1666666666667,367.6666666666667,263.6666666666667,374,265C380.3333333333333,266.3333333333333,386.5,267.5,393,269C399.5,270.5,406.5,271.1666666666667,413,274C419.5,276.8333333333333,425.6666666666667,282.5,432,286C438.3333333333333,289.5,444.6666666666667,292.8333333333333,451,295C457.3333333333333,297.1666666666667,463.6666666666667,297,470,299C476.3333333333333,301,482.5,305,489,307C495.5,309,502.5,308.1666666666667,509,311C515.5,313.8333333333333,521.6666666666666,319.6666666666667,528,324C534.3333333333334,328.3333333333333,540.6666666666666,334.1666666666667,547,337C553.3333333333334,339.8333333333333,559.6666666666666,340.3333333333333,566,341C572.3333333333334,341.6666666666667,578.6666666666666,340.3333333333333,585,341C591.3333333333334,341.6666666666667,597.5,345,604,345C610.5,345,617.5,342.3333333333333,624,341C630.5,339.6666666666667,636.6666666666666,339.1666666666667,643,337C649.3333333333334,334.8333333333333,655.6666666666666,331.5,662,328C668.3333333333334,324.5,674.6666666666666,318.8333333333333,681,316C687.3333333333334,313.1666666666667,693.6666666666666,313.1666666666667,700,311C706.3333333333334,308.8333333333333,712.5,306.5,719,303C725.5,299.5,732.5,293.5,739,290C745.5,286.5,751.6666666666666,284.6666666666667,758,282C764.3333333333334,279.3333333333333,770.6666666666666,276.1666666666667,777,274C783.3333333333334,271.8333333333333,789.6666666666666,269.8333333333333,796,269C802.3333333333334,268.1666666666667,808.5,268.1666666666667,815,269C821.5,269.8333333333333,828.5,272.5,835,274C841.5,275.5,847.6666666666666,276.6666666666667,854,278C860.3333333333334,279.3333333333333,866.6666666666666,279.1666666666667,873,282C879.3333333333334,284.8333333333333,885.6666666666666,291.5,892,295C898.3333333333334,298.5,904.6666666666666,301,911,303C917.3333333333334,305,923.5,305.6666666666667,930,307C936.5,308.3333333333333,943.5,308.1666666666667,950,311C956.5,313.8333333333333,962.6666666666666,319.6666666666667,969,324C975.3333333333334,328.3333333333333,981.6666666666666,332.8333333333333,988,337C994.3333333333334,341.1666666666667,1000.6666666666666,346.1666666666667,1007,349C1013.3333333333334,351.8333333333333,1019.5,353.1666666666667,1026,354C1032.5,354.8333333333333,1039.5,353.3333333333333,1046,354C1052.5,354.6666666666667,1058.6666666666667,357.3333333333333,1065,358C1071.3333333333333,358.6666666666667,1077.6666666666667,358,1084,358C1090.3333333333333,358,1096.6666666666667,358,1103,358C1109.3333333333333,358,1115.6666666666667,358.6666666666667,1122,358C1128.3333333333333,357.3333333333333,1134.5,356.1666666666667,1141,354C1147.5,351.8333333333333,1154.5,347.1666666666667,1161,345C1167.5,342.8333333333333,1173.6666666666667,341.6666666666667,1180,341C1186.3333333333333,340.3333333333333,1192.6666666666667,342.3333333333333,1199,341C1205.3333333333333,339.6666666666667,1211.6666666666667,335.1666666666667,1218,333C1224.3333333333333,330.8333333333333,1230.5,330.1666666666667,1237,328C1243.5,325.8333333333333,1250.5,322,1257,320C1263.5,318,1269.6666666666667,318.1666666666667,1276,316C1282.3333333333333,313.8333333333333,1288.6666666666667,309.1666666666667,1295,307C1301.3333333333333,304.8333333333333,1307.6666666666667,305,1314,303C1320.3333333333333,301,1326.6666666666667,297.1666666666667,1333,295C1339.3333333333333,292.8333333333333,1345.5,292.1666666666667,1352,290C1358.5,287.8333333333333,1365.5,285.5,1372,282C1378.5,278.5,1384.6666666666667,271.8333333333333,1391,269C1397.3333333333333,266.1666666666667,1403.6666666666667,265.6666666666667,1410,265C1416.3333333333333,264.3333333333333,1422.6666666666667,263.5,1429,265C1435.3333333333333,266.5,1441.5,270.5,1448,274C1454.5,277.5,1461.5,282.5,1468,286C1474.5,289.5,1480.6666666666667,293.5,1487,295C1493.3333333333333,296.5,1499.6666666666667,295.8333333333333,1506,295C1512.3333333333333,294.1666666666667,1518.6666666666667,292.1666666666667,1525,290C1531.3333333333333,287.8333333333333,1537.6666666666667,282.6666666666667,1544,282C1550.3333333333333,281.3333333333333,1556.5,289.5,1563,286C1569.5,282.5,1576.5,270.1666666666667,1583,261C1589.5,251.83333333333334,1595.6666666666667,239.5,1602,231C1608.3333333333333,222.5,1614.6666666666667,215.5,1621,210C1627.3333333333333,204.5,1633.6666666666667,201.5,1640,198C1646.3333333333333,194.5,1652.5,191.16666666666666,1659,189C1665.5,186.83333333333334,1672.5,186.33333333333334,1679,185C1685.5,183.66666666666666,1691.6666666666667,181,1698,181C1704.3333333333333,181,1710.6666666666667,183,1717,185C1723.3333333333333,187,1729.6666666666667,190.83333333333334,1736,193C1742.3333333333333,195.16666666666666,1748.6666666666667,195.83333333333334,1755,198C1761.3333333333333,200.16666666666666,1767.5,201.16666666666666,1774,206C1780.5,210.83333333333334,1787.5,217.16666666666666,1794,227C1800.5,236.83333333333334,1806.6666666666667,257.1666666666667,1813,265C1819.3333333333333,272.8333333333333,1825.6666666666667,276.8333333333333,1832,274C1838.3333333333333,271.1666666666667,1844.6666666666667,258.6666666666667,1851,248C1857.3333333333333,237.33333333333334,1863.6666666666667,217.66666666666666,1870,210C1876.3333333333333,202.33333333333334,1882.5,204.83333333333334,1889,202C1895.5,199.16666666666666,1902.5,194.5,1909,193C1915.5,191.5,1921.6666666666667,196.5,1928,193C1934.3333333333333,189.5,1940.6666666666667,181,1947,172C1953.3333333333333,163,1959.6666666666667,145.33333333333334,1966,139C1972.3333333333333,132.66666666666666,1978.5,138.33333333333334,1985,134C1991.5,129.66666666666666,1998.5,115.66666666666667,2005,113C2011.5,110.33333333333333,2017.6666666666667,110.83333333333333,2024,118C2030.3333333333333,125.16666666666667,2036.6666666666667,141.33333333333334,2043,156C2049.3333333333335,170.66666666666666,2055.6666666666665,192.66666666666666,2062,206C2068.3333333333335,219.33333333333334,2074.6666666666665,215.66666666666666,2081,236C2087.3333333333335,256.3333333333333,2093.5,328,2100,328C2106.5,328,2113.5,252.83333333333334,2120,236C2126.5,219.16666666666666,2132.6666666666665,225.66666666666666,2139,227C2145.3333333333335,228.33333333333334,2151.6666666666665,238.33333333333334,2158,244C2164.3333333333335,249.66666666666666,2170.6666666666665,270.1666666666667,2177,261C2183.3333333333335,251.83333333333334,2189.5,192.5,2196,189C2202.5,185.5,2209.5,221,2216,240C2222.5,259,2228.6666666666665,285.5,2235,303C2241.3333333333335,320.5,2247.6666666666665,342.8333333333333,2254,345C2260.3333333333335,347.1666666666667,2266.6666666666665,330,2273,316C2279.3333333333335,302,2285.6666666666665,273,2292,261C2298.3333333333335,249,2304.5,240.5,2311,244C2317.5,247.5,2324.5,272.1666666666667,2331,282C2337.5,291.8333333333333,2343.6666666666665,295.3333333333333,2350,303C2356.3333333333335,310.6666666666667,2365.8333333333335,323.8333333333333,2369,328" stroke="green" stroke-width="2.5" fill="none"/>
	<path d="M48,227C51.166666666666664,227.66666666666666,60.5,229.5,67,231C73.5,232.5,80.5,234.16666666666666,87,236C93.5,237.83333333333334,99.66666666666667,240.66666666666666,106,242C112.33333333333333,243.33333333333334,118.66666666666667,243.33333333333334,125,244C131.33333333333334,244.66666666666666,137.66666666666666,245.66666666666666,144,246C150.33333333333334,246.33333333333334,156.66666666666666,246.66666666666666,163,246C169.33333333333334,245.33333333333334,175.5,243.66666666666666,182,242C188.5,240.33333333333334,195.5,238.16666666666666,202,236C208.5,233.83333333333334,214.66666666666666,231.16666666666666,221,229C227.33333333333334,226.83333333333334,233.66666666666666,224.33333333333334,240,223C246.33333333333334,221.66666666666666,252.66666666666666,221.66666666666666,259,221C265.3333333333333,220.33333333333334,271.5,219.66666666666666,278,219C284.5,218.33333333333334,291.5,217.66666666666666,298,217C304.5,216.33333333333334,310.6666666666667,215,317,215C323.3333333333333,215,329.6666666666667,216,336,217C342.3333333333333,218,348.6666666666667,220,355,221C361.3333333333333,222,367.6666666666667,222,374,223C380.3333333333333,224,386.5,226,393,227C399.5,228,406.5,228.33333333333334,413,229C419.5,229.66666666666666,425.6666666666667,230.66666666666666,432,231C438.3333333333333,231.33333333333334,444.6666666666667,230.66666666666666,451,231C457.3333333333333,231.33333333333334,463.6666666666667,232.66666666666666,470,233C476.3333333333333,233.33333333333334,482.5,232.5,489,233C495.5,233.5,502.5,234.83333333333334,509,236C515.5,237.16666666666666,521.6666666666666,238.66666666666666,528,240C534.3333333333334,241.33333333333334,540.6666666666666,242.66666666666666,547,244C553.3333333333334,245.33333333333334,559.6666666666666,247,566,248C572.3333333333334,249,578.6666666666666,249.33333333333334,585,250C591.3333333333334,250.66666666666666,597.5,251.16666666666666,604,252C610.5,252.83333333333334,617.5,255,624,255C630.5,255,636.6666666666666,252.5,643,252C649.3333333333334,251.5,655.6666666666666,252.33333333333334,662,252C668.3333333333334,251.66666666666666,674.6666666666666,250.33333333333334,681,250C687.3333333333334,249.66666666666666,693.6666666666666,250,700,250C706.3333333333334,250,712.5,250,719,250C725.5,250,732.5,249.66666666666666,739,250C745.5,250.33333333333334,751.6666666666666,251.66666666666666,758,252C764.3333333333334,252.33333333333334,770.6666666666666,252,777,252C783.3333333333334,252,789.6666666666666,252,796,252C802.3333333333334,252,808.5,252,815,252C821.5,252,828.5,252,835,252C841.5,252,847.6666666666666,252,854,252C860.3333333333334,252,866.6666666666666,252.33333333333334,873,252C879.3333333333334,251.66666666666666,885.6666666666666,250.33333333333334,892,250C898.3333333333334,249.66666666666666,904.6666666666666,250,911,250C917.3333333333334,250,923.5,250,930,250C936.5,250,943.5,250,950,250C956.5,250,962.6666666666666,249.66666666666666,969,250C975.3333333333334,250.33333333333334,981.6666666666666,250.83333333333334,988,252C994.3333333333334,253.16666666666666,1000.6666666666666,255.83333333333334,1007,257C1013.3333333333334,258.1666666666667,1019.5,258.3333333333333,1026,259C1032.5,259.6666666666667,1039.5,260.6666666666667,1046,261C1052.5,261.3333333333333,1058.6666666666667,261,1065,261C1071.3333333333333,261,1077.6666666666667,261.3333333333333,1084,261C1090.3333333333333,260.6666666666667,1096.6666666666667,260,1103,259C1109.3333333333333,258,1115.6666666666667,256.1666666666667,1122,255C1128.3333333333333,253.83333333333334,1134.5,252.83333333333334,1141,252C1147.5,251.16666666666666,1154.5,250.33333333333334,1161,250C1167.5,249.66666666666666,1173.6666666666667,250.33333333333334,1180,250C1186.3333333333333,249.66666666666666,1192.6666666666667,248.33333333333334,1199,248C1205.3333333333333,247.66666666666666,1211.6666666666667,247.66666666666666,1218,248C1224.3333333333333,248.33333333333334,1230.5,249.33333333333334,1237,250C1243.5,250.66666666666666,1250.5,251.66666666666666,1257,252C1263.5,252.33333333333334,1269.6666666666667,252,1276,252C1282.3333333333333,252,1288.6666666666667,252,1295,252C1301.3333333333333,252,1307.6666666666667,251.5,1314,252C1320.3333333333333,252.5,1326.6666666666667,254.5,1333,255C1339.3333333333333,255.5,1345.5,255,1352,255C1358.5,255,1365.5,255,1372,255C1378.5,255,1384.6666666666667,254.66666666666666,1391,255C1397.3333333333333,255.33333333333334,1403.6666666666667,256.6666666666667,1410,257C1416.3333333333333,257.3333333333333,1422.6666666666667,256.6666666666667,1429,257C1435.3333333333333,257.3333333333333,1441.5,258.3333333333333,1448,259C1454.5,259.6666666666667,1461.5,260.3333333333333,1468,261C1474.5,261.6666666666667,1480.6666666666667,262.3333333333333,1487,263C1493.3333333333333,263.6666666666667,1499.6666666666667,264.6666666666667,1506,265C1512.3333333333333,265.3333333333333,1518.6666666666667,265,1525,265C1531.3333333333333,265,1537.6666666666667,265,1544,265C1550.3333333333333,265,1556.5,265.3333333333333,1563,265C1569.5,264.6666666666667,1576.5,263.3333333333333,1583,263C1589.5,262.6666666666667,1595.6666666666667,263,1602,263C1608.3333333333333,263,1614.6666666666667,263,1621,263C1627.3333333333333,263,1633.6666666666667,263.3333333333333,1640,263C1646.3333333333333,262.6666666666667,1652.5,261.3333333333333,1659,261C1665.5,260.6666666666667,1672.5,261,1679,261C1685.5,261,1691.6666666666667,261,1698,261C1704.3333333333333,261,1710.6666666666667,261,1717,261C1723.3333333333333,261,1729.6666666666667,260.6666666666667,1736,261C1742.3333333333333,261.3333333333333,1748.6666666666667,263,1755,263C1761.3333333333333,263,1767.5,261,1774,261C1780.5,261,1787.5,262,1794,263C1800.5,264,1806.6666666666667,265.6666666666667,1813,267C1819.3333333333333,268.3333333333333,1825.6666666666667,270.3333333333333,1832,271C1838.3333333333333,271.6666666666667,1844.6666666666667,271,1851,271C1857.3333333333333,271,1863.6666666666667,271,1870,271C1876.3333333333333,271,1882.5,271,1889,271C1895.5,271,1902.5,271,1909,271C1915.5,271,1921.6666666666667,270.5,1928,271C1934.3333333333333,271.5,1940.6666666666667,272.8333333333333,1947,274C1953.3333333333333,275.1666666666667,1959.6666666666667,277,1966,278C1972.3333333333333,279,1978.5,279.3333333333333,1985,280C1991.5,280.6666666666667,1998.5,282,2005,282C2011.5,282,2017.6666666666667,281,2024,280C2030.3333333333333,279,2036.6666666666667,277.5,2043,276C2049.3333333333335,274.5,2055.6666666666665,271.8333333333333,2062,271C2068.3333333333335,270.1666666666667,2074.6666666666665,270.1666666666667,2081,271C2087.3333333333335,271.8333333333333,2093.5,275.5,2100,276C2106.5,276.5,2113.5,274.8333333333333,2120,274C2126.5,273.1666666666667,2132.6666666666665,272.5,2139,271C2145.3333333333335,269.5,2151.6666666666665,264.1666666666667,2158,265C2164.3333333333335,265.8333333333333,2170.6666666666665,273.8333333333333,2177,276C2183.3333333333335,278.1666666666667,2189.5,279.1666666666667,2196,278C2202.5,276.8333333333333,2209.5,270.5,2216,269C2222.5,267.5,2228.6666666666665,267.1666666666667,2235,269C2241.3333333333335,270.8333333333333,2247.6666666666665,279.6666666666667,2254,280C2260.3333333333335,280.3333333333333,2266.6666666666665,271.6666666666667,2273,271C2279.3333333333335,270.3333333333333,2285.6666666666665,274.8333333333333,2292,276C2298.3333333333335,277.1666666666667,2304.5,276.3333333333333,2311,278C2317.5,279.6666666666667,2324.5,285.6666666666667,2331,286C2337.5,286.3333333333333,2343.6666666666665,282,2350,280C2356.3333333333335,278,2365.8333333333335,275,2369,274" stroke="#dd9d30" stroke-width="2.5" fill="none"/>
	<path d="M29,362V67M2369,362V67Z"/>
</svg>
