<?xml version="1.0" ?>
<svg xmlns="http://www.w3.org/2000/svg" xmlns:xlink="http://www.w3.org/1999/xlink" version="1.1" width="2390" height="390">
	<rect x="170.4878048780488" y="32" width="19.024390243902438" height="380" fill="#eeeeee" fill-opacity="0.5"/>
	<defs/>
	<g stroke="#eeeeee" stroke-width="1">
		<path d="M57,362V67"/>
		<path d="M76,362V67"/>
		<path d="M95,362V67"/>
		<path d="M113,362V67"/>
		<path d="M132,362V67"/>
		<path d="M151,362V67"/>
		<path d="M170,362V67"/>
		<path d="M189,362V67"/>
		<path d="M208,362V67"/>
		<path d="M227,362V67"/>
		<path d="M246,362V67"/>
		<path d="M264,362V67"/>
		<path d="M283,362V67"/>
		<path d="M302,362V67"/>
		<path d="M321,362V67"/>
		<path d="M340,362V67"/>
		<path d="M359,362V67"/>
		<path d="M378,362V67"/>
		<path d="M397,362V67"/>
		<path d="M415,362V67"/>
		<path d="M434,362V67"/>
		<path d="M453,362V67"/>
		<path d="M472,362V67"/>
		<path d="M491,362V67"/>
		<path d="M510,362V67"/>
		<path d="M529,362V67"/>
		<path d="M548,362V67"/>
		<path d="M566,362V67"/>
		<path d="M585,362V67"/>
		<path d="M604,362V67"/>
		<path d="M623,362V67"/>
		<path d="M642,362V67"/>
		<path d="M661,362V67"/>
		<path d="M680,362V67"/>
		<path d="M698,362V67"/>
		<path d="M717,362V67"/>
		<path d="M736,362V67"/>
		<path d="M755,362V67"/>
		<path d="M774,362V67"/>
		<path d="M793,362V67"/>
		<path d="M812,362V67"/>
		<path d="M831,362V67"/>
		<path d="M849,362V67"/>
		<path d="M868,362V67"/>
		<path d="M887,362V67"/>
		<path d="M906,362V67"/>
		<path d="M925,362V67"/>
		<path d="M944,362V67"/>
		<path d="M963,362V67"/>
		<path d="M982,362V67"/>
		<path d="M1000,362V67"/>
		<path d="M1019,362V67"/>
		<path d="M1038,362V67"/>
		<path d="M1057,362V67"/>
		<path d="M1076,362V67"/>
		<path d="M1095,362V67"/>
		<path d="M1114,362V67"/>
		<path d="M1133,362V67"/>
		<path d="M1151,362V67"/>
		<path d="M1170,362V67"/>
		<path d="M1189,362V67"/>
		<path d="M1208,362V67"/>
		<path d="M1227,362V67"/>
		<path d="M1246,362V67"/>
		<path d="M1265,362V67"/>
		<path d="M1283,362V67"/>
		<path d="M1302,362V67"/>
		<path d="M1321,362V67"/>
		<path d="M1340,362V67"/>
		<path d="M1359,362V67"/>
		<path d="M1378,362V67"/>
		<path d="M1397,362V67"/>
		<path d="M1416,362V67"/>
		<path d="M1434,362V67"/>
		<path d="M1453,362V67"/>
		<path d="M1472,362V67"/>
		<path d="M1491,362V67"/>
		<path d="M1510,362V67"/>
		<path d="M1529,362V67"/>
		<path d="M1548,362V67"/>
		<path d="M1567,362V67"/>
		<path d="M1585,362V67"/>
		<path d="M1604,362V67"/>
		<path d="M1623,362V67"/>
		<path d="M1642,362V67"/>
		<path d="M1661,362V67"/>
		<path d="M1680,362V67"/>
		<path d="M1699,362V67"/>
		<path d="M1718,362V67"/>
		<path d="M1736,362V67"/>
		<path d="M1755,362V67"/>
		<path d="M1774,362V67"/>
		<path d="M1793,362V67"/>
		<path d="M1812,362V67"/>
		<path d="M1831,362V67"/>
		<path d="M1850,362V67"/>
		<path d="M1868,362V67"/>
		<path d="M1887,362V67"/>
		<path d="M1906,362V67"/>
		<path d="M1925,362V67"/>
		<path d="M1944,362V67"/>
		<path d="M1963,362V67"/>
		<path d="M1982,362V67"/>
		<path d="M2001,362V67"/>
		<path d="M2019,362V67"/>
		<path d="M2038,362V67"/>
		<path d="M2057,362V67"/>
		<path d="M2076,362V67"/>
		<path d="M2095,362V67"/>
		<path d="M2114,362V67"/>
		<path d="M2133,362V67"/>
		<path d="M2152,362V67"/>
		<path d="M2170,362V67"/>
		<path d="M2189,362V67"/>
		<path d="M2208,362V67"/>
		<path d="M2227,362V67"/>
		<path d="M2246,362V67"/>
		<path d="M2265,362V67"/>
		<path d="M2284,362V67"/>
		<path d="M2303,362V67"/>
		<path d="M2321,362V67"/>
		<path d="M2340,362V67"/>
		<path d="M2359,362V67"/>
	</g>
	<g stroke="#cdcdcd" stroke-width="1">
		<path d="M208,362V67"/>
		<path d="M661,362V67"/>
		<path d="M1114,362V67"/>
		<path d="M1567,362V67"/>
		<path d="M1831,362V67"/>
		<path d="M1982,362V67"/>
		<path d="M2095,362V67"/>
		<path d="M2170,362V67"/>
		<path d="M2246,362V67"/>
		<path d="M2321,362V67"/>
	</g>
	<g stroke="#cdcdcd" stroke-width="1">
		<path d="M39,362H2378"/>
		<path d="M39,341H2378"/>
		<path d="M39,320H2378"/>
		<path d="M39,299H2378"/>
		<path d="M39,278H2378"/>
		<path d="M39,257H2378"/>
		<path d="M39,236H2378"/>
		<path d="M39,215H2378"/>
		<path d="M39,193H2378"/>
		<path d="M39,172H2378"/>
		<path d="M39,151H2378"/>
		<path d="M39,130H2378"/>
		<path d="M39,109H2378"/>
		<path d="M39,88H2378"/>
		<path d="M39,67H2378"/>
	</g>
	<g fill="#000" font-size="13" font-weight="bold" text-anchor="middle">
		<text x="48" y="25">TO</text>
		<text x="218" y="25">PE</text>
		<text x="671" y="25">LA</text>
		<text x="1124" y="25">SU</text>
		<text x="1576" y="25">MA</text>
		<text x="1841" y="25">TI</text>
		<text x="1992" y="25">KE</text>
		<text x="2105" y="25">TO</text>
		<text x="2180" y="25">PE</text>
		<text x="2256" y="25">LA</text>
		<text x="2331" y="25">SU</text>
	</g>
	<g fill="#000" font-size="12" font-weight="regular" text-anchor="middle">
		<text x="48" y="59">15</text>
		<text x="67" y="59">16</text>
		<text x="86" y="59">17</text>
		<text x="104" y="59">18</text>
		<text x="123" y="59">19</text>
		<text x="142" y="59">20</text>
		<text x="161" y="59">21</text>
		<text x="180" y="59">22</text>
		<text x="199" y="59">23</text>
		<text x="218" y="59">00</text>
		<text x="237" y="59">01</text>
		<text x="255" y="59">02</text>
		<text x="274" y="59">03</text>
		<text x="293" y="59">04</text>
		<text x="312" y="59">05</text>
		<text x="331" y="59">06</text>
		<text x="350" y="59">07</text>
		<text x="369" y="59">08</text>
		<text x="388" y="59">09</text>
		<text x="406" y="59">10</text>
		<text x="425" y="59">11</text>
		<text x="444" y="59">12</text>
		<text x="463" y="59">13</text>
		<text x="482" y="59">14</text>
		<text x="501" y="59">15</text>
		<text x="520" y="59">16</text>
		<text x="539" y="59">17</text>
		<text x="557" y="59">18</text>
		<text x="576" y="59">19</text>
		<text x="595" y="59">20</text>
		<text x="614" y="59">21</text>
		<text x="633" y="59">22</text>
		<text x="652" y="59">23</text>
		<text x="671" y="59">00</text>
		<text x="689" y="59">01</text>
		<text x="708" y="59">02</text>
		<text x="727" y="59">03</text>
		<text x="746" y="59">04</text>
		<text x="765" y="59">05</text>
		<text x="784" y="59">06</text>
		<text x="803" y="59">07</text>
		<text x="822" y="59">08</text>
		<text x="840" y="59">09</text>
		<text x="859" y="59">10</text>
		<text x="878" y="59">11</text>
		<text x="897" y="59">12</text>
		<text x="916" y="59">13</text>
		<text x="935" y="59">14</text>
		<text x="954" y="59">15</text>
		<text x="973" y="59">16</text>
		<text x="991" y="59">17</text>
		<text x="1010" y="59">18</text>
		<text x="1029" y="59">19</text>
		<text x="1048" y="59">20</text>
		<text x="1067" y="59">21</text>
		<text x="1086" y="59">22</text>
		<text x="1105" y="59">23</text>
		<text x="1124" y="59">00</text>
		<text x="1142" y="59">01</text>
		<text x="1161" y="59">02</text>
		<text x="1180" y="59">03</text>
		<text x="1199" y="59">04</text>
		<text x="1218" y="59">05</text>
		<text x="1237" y="59">06</text>
		<text x="1256" y="59">07</text>
		<text x="1274" y="59">08</text>
		<text x="1293" y="59">09</text>
		<text x="1312" y="59">10</text>
		<text x="1331" y="59">11</text>
		<text x="1350" y="59">12</text>
		<text x="1369" y="59">13</text>
		<text x="1388" y="59">14</text>
		<text x="1407" y="59">15</text>
		<text x="1425" y="59">16</text>
		<text x="1444" y="59">17</text>
		<text x="1463" y="59">18</text>
		<text x="1482" y="59">19</text>
		<text x="1501" y="59">20</text>
		<text x="1520" y="59">21</text>
		<text x="1539" y="59">22</text>
		<text x="1558" y="59">23</text>
		<text x="1576" y="59">00</text>
		<text x="1595" y="59">01</text>
		<text x="1614" y="59">02</text>
		<text x="1633" y="59">03</text>
		<text x="1652" y="59">04</text>
		<text x="1671" y="59">05</text>
		<text x="1690" y="59">06</text>
		<text x="1709" y="59">07</text>
		<text x="1727" y="59">08</text>
		<text x="1746" y="59">11</text>
		<text x="1765" y="59">14</text>
		<text x="1784" y="59">17</text>
		<text x="1803" y="59">20</text>
		<text x="1822" y="59">23</text>
		<text x="1841" y="59">02</text>
		<text x="1859" y="59">05</text>
		<text x="1878" y="59">08</text>
		<text x="1897" y="59">11</text>
		<text x="1916" y="59">14</text>
		<text x="1935" y="59">17</text>
		<text x="1954" y="59">20</text>
		<text x="1973" y="59">23</text>
		<text x="1992" y="59">02</text>
		<text x="2010" y="59">05</text>
		<text x="2029" y="59">08</text>
		<text x="2048" y="59">11</text>
		<text x="2067" y="59">14</text>
		<text x="2086" y="59">20</text>
		<text x="2105" y="59">02</text>
		<text x="2124" y="59">08</text>
		<text x="2143" y="59">14</text>
		<text x="2161" y="59">20</text>
		<text x="2180" y="59">02</text>
		<text x="2199" y="59">08</text>
		<text x="2218" y="59">14</text>
		<text x="2237" y="59">20</text>
		<text x="2256" y="59">02</text>
		<text x="2275" y="59">08</text>
		<text x="2294" y="59">14</text>
		<text x="2312" y="59">20</text>
		<text x="2331" y="59">02</text>
		<text x="2350" y="59">08</text>
		<text x="2369" y="59">14</text>
	</g>
	<g fill="#000" font-size="13" font-weight="regular" text-anchor="middle">
		<text x="48" y="42">15.2.</text>
		<text x="218" y="42">16.2.</text>
		<text x="671" y="42">17.2.</text>
		<text x="1124" y="42">18.2.</text>
		<text x="1576" y="42">19.2.</text>
		<text x="1841" y="42">20.2.</text>
		<text x="1992" y="42">21.2.</text>
		<text x="2105" y="42">22.2.</text>
		<text x="2180" y="42">23.2.</text>
		<text x="2256" y="42">24.2.</text>
		<text x="2331" y="42">25.2.</text>
	</g>
	<image x="14" y="370" width="18" height="18" xlink:href="/assets/scale.svg"/>
	<image x="41.5" y="372" width="13" height="13" xlink:href="/assets/eur-yellow.svg"/>
	<image x="60.5" y="372" width="13" height="13" xlink:href="/assets/eur-yellow.svg"/>
	<image x="79.5" y="372" width="13" height="13" xlink:href="/assets/eur-yellow.svg"/>
	<image x="97.5" y="372" width="13" height="13" xlink:href="/assets/eur-yellow.svg"/>
	<image x="116.5" y="372" width="13" height="13" xlink:href="/assets/eur-yellow.svg"/>
	<image x="135.5" y="372" width="13" height="13" xlink:href="/assets/eur-yellow.svg"/>
	<image x="154.5" y="372" width="13" height="13" xlink:href="/assets/eur-yellow.svg"/>
	<image x="173.5" y="372" width="13" height="13" xlink:href="/assets/eur-yellow.svg"/>
	<image x="192.5" y="372" width="13" height="13" xlink:href="/assets/eur-yellow.svg"/>
	<image x="211.5" y="372" width="13" height="13" xlink:href="/assets/eur-yellow.svg"/>
	<image x="230.5" y="372" width="13" height="13" xlink:href="/assets/eur-yellow.svg"/>
	<image x="248.5" y="372" width="13" height="13" xlink:href="/assets/eur-yellow.svg"/>
	<image x="267.5" y="372" width="13" height="13" xlink:href="/assets/eur-yellow.svg"/>
	<image x="286.5" y="372" width="13" height="13" xlink:href="/assets/eur-yellow.svg"/>
	<image x="305.5" y="372" width="13" height="13" xlink:href="/assets/eur-yellow.svg"/>
	<image x="324.5" y="372" width="13" height="13" xlink:href="/assets/eur-yellow.svg"/>
	<image x="343.5" y="372" width="13" height="13" xlink:href="/assets/eur-yellow.svg"/>
	<image x="362.5" y="372" width="13" height="13" xlink:href="/assets/eur-green.svg"/>
	<image x="381.5" y="372" width="13" height="13" xlink:href="/assets/eur-green.svg"/>
	<image x="399.5" y="372" width="13" height="13" xlink:href="/assets/eur-green.svg"/>
	<image x="418.5" y="372" width="13" height="13" xlink:href="/assets/eur-green.svg"/>
	<image x="437.5" y="372" width="13" height="13" xlink:href="/assets/eur-green.svg"/>
	<image x="456.5" y="372" width="13" height="13" xlink:href="/assets/eur-green.svg"/>
	<image x="475.5" y="372" width="13" height="13" xlink:href="/assets/eur-green.svg"/>
	<image x="494.5" y="372" width="13" height="13" xlink:href="/assets/eur-green.svg"/>
	<image x="513.5" y="372" width="13" height="13" xlink:href="/assets/eur-green.svg"/>
	<image x="532.5" y="372" width="13" height="13" xlink:href="/assets/eur-green.svg"/>
	<image x="550.5" y="372" width="13" height="13" xlink:href="/assets/eur-green.svg"/>
	<image x="569.5" y="372" width="13" height="13" xlink:href="/assets/eur-green.svg"/>
	<image x="588.5" y="372" width="13" height="13" xlink:href="/assets/eur-green.svg"/>
	<image x="607.5" y="372" width="13" height="13" xlink:href="/assets/eur-green.svg"/>
	<image x="626.5" y="372" width="13" height="13" xlink:href="/assets/eur-green.svg"/>
	<image x="645.5" y="372" width="13" height="13" xlink:href="/assets/eur-green.svg"/>
	<image x="664.5" y="372" width="13" height="13" xlink:href="/assets/eur-green.svg"/>
	<image x="682.5" y="372" width="13" height="13" xlink:href="/assets/eur-yellow.svg"/>
	<image x="701.5" y="372" width="13" height="13" xlink:href="/assets/eur-yellow.svg"/>
	<image x="720.5" y="372" width="13" height="13" xlink:href="/assets/eur-yellow.svg"/>
	<image x="739.5" y="372" width="13" height="13" xlink:href="/assets/eur-yellow.svg"/>
	<image x="758.5" y="372" width="13" height="13" xlink:href="/assets/eur-yellow.svg"/>
	<image x="777.5" y="372" width="13" height="13" xlink:href="/assets/eur-green.svg"/>
	<image x="796.5" y="372" width="13" height="13" xlink:href="/assets/eur-green.svg"/>
	<image x="815.5" y="372" width="13" height="13" xlink:href="/assets/eur-green.svg"/>
	<image x="833.5" y="372" width="13" height="13" xlink:href="/assets/eur-green.svg"/>
	<image x="852.5" y="372" width="13" height="13" xlink:href="/assets/eur-green.svg"/>
	<image x="871.5" y="372" width="13" height="13" xlink:href="/assets/eur-green.svg"/>
	<image x="890.5" y="372" width="13" height="13" xlink:href="/assets/eur-green.svg"/>
	<image x="909.5" y="372" width="13" height="13" xlink:href="/assets/eur-green.svg"/>
	<image x="928.5" y="372" width="13" height="13" xlink:href="/assets/eur-green.svg"/>
	<image x="947.5" y="372" width="13" height="13" xlink:href="/assets/eur-green.svg"/>
	<image x="966.5" y="372" width="13" height="13" xlink:href="/assets/eur-green.svg"/>
	<image x="984.5" y="372" width="13" height="13" xlink:href="/assets/eur-green.svg"/>
	<image x="1003.5" y="372" width="13" height="13" xlink:href="/assets/eur-green.svg"/>
	<image x="1022.5" y="372" width="13" height="13" xlink:href="/assets/eur-green.svg"/>
	<image x="1041.5" y="372" width="13" height="13" xlink:href="/assets/eur-green.svg"/>
	<image x="1060.5" y="372" width="13" height="13" xlink:href="/assets/eur-green.svg"/>
	<image x="1079.5" y="372" width="13" height="13" xlink:href="/assets/eur-green.svg"/>
	<image x="1098.5" y="372" width="13" height="13" xlink:href="/assets/eur-green.svg"/>
	<image x="1117.5" y="372" width="13" height="13" xlink:href="/assets/eur-green.svg"/>
	<image x="1135.5" y="372" width="13" height="13" xlink:href="/assets/eur-green.svg"/>
	<image x="1154.5" y="372" width="13" height="13" xlink:href="/assets/eur-green.svg"/>
	<image x="1173.5" y="372" width="13" height="13" xlink:href="/assets/eur-green.svg"/>
	<image x="1192.5" y="372" width="13" height="13" xlink:href="/assets/eur-green.svg"/>
	<image x="1211.5" y="372" width="13" height="13" xlink:href="/assets/eur-green.svg"/>
	<image x="1230.5" y="372" width="13" height="13" xlink:href="/assets/eur-green.svg"/>
	<image x="1249.5" y="372" width="13" height="13" xlink:href="/assets/eur-green.svg"/>
	<image x="1267.5" y="372" width="13" height="13" xlink:href="/assets/eur-yellow.svg"/>
	<image x="1286.5" y="372" width="13" height="13" xlink:href="/assets/eur-yellow.svg"/>
	<image x="1305.5" y="372" width="13" height="13" xlink:href="/assets/eur-red.svg"/>
	<image x="1324.5" y="372" width="13" height="13" xlink:href="/assets/eur-red.svg"/>
	<image x="1343.5" y="372" width="13" height="13" xlink:href="/assets/eur-red.svg"/>
	<image x="1362.5" y="372" width="13" height="13" xlink:href="/assets/eur-red.svg"/>
	<image x="1381.5" y="372" width="13" height="13" xlink:href="/assets/eur-red.svg"/>
	<image x="1400.5" y="372" width="13" height="13" xlink:href="/assets/eur-red.svg"/>
	<image x="1418.5" y="372" width="13" height="13" xlink:href="/assets/eur-red.svg"/>
	<image x="1437.5" y="372" width="13" height="13" xlink:href="/assets/eur-yellow.svg"/>
	<image x="1456.5" y="372" width="13" height="13" xlink:href="/assets/eur-yellow.svg"/>
	<image x="1475.5" y="372" width="13" height="13" xlink:href="/assets/eur-yellow.svg"/>
	<image x="1494.5" y="372" width="13" height="13" xlink:href="/assets/eur-yellow.svg"/>
	<image x="1513.5" y="372" width="13" height="13" xlink:href="/assets/eur-yellow.svg"/>
	<image x="1532.5" y="372" width="13" height="13" xlink:href="/assets/eur-yellow.svg"/>
	<image x="1551.5" y="372" width="13" height="13" xlink:href="/assets/eur-yellow.svg"/>
	<image x="1569.5" y="372" width="13" height="13" xlink:href="/assets/eur-yellow.svg"/>
	<image x="1588.5" y="372" width="13" height="13" xlink:href="/assets/eur-yellow.svg"/>
	<image x="1607.5" y="372" width="13" height="13" xlink:href="/assets/eur-yellow.svg"/>
	<image x="1626.5" y="372" width="13" height="13" xlink:href="/assets/eur-yellow.svg"/>
	<image x="1645.5" y="372" width="13" height="13" xlink:href="/assets/eur-yellow.svg"/>
	<image x="1664.5" y="372" width="13" height="13" xlink:href="/assets/eur-yellow.svg"/>
	<image x="1683.5" y="372" width="13" height="13" xlink:href="/assets/eur-yellow.svg"/>
	<image x="1702.5" y="372" width="13" height="13" xlink:href="/assets/eur-yellow.svg"/>
	<image x="1720.5" y="372" width="13" height="13" xlink:href="/assets/eur-yellow.svg"/>
	<image x="1739.5" y="372" width="13" height="13" xlink:href="/assets/eur-red.svg"/>
	<image x="1758.5" y="372" width="13" height="13" xlink:href="/assets/eur-red.svg"/>
	<image x="1777.5" y="372" width="13" height="13" xlink:href="/assets/eur-red.svg"/>
	<image x="1796.5" y="372" width="13" height="13" xlink:href="/assets/eur-red.svg"/>
	<image x="1815.5" y="372" width="13" height="13" xlink:href="/assets/eur-red.svg"/>
	<image x="1834.5" y="372" width="13" height="13" xlink:href="/assets/eur-red.svg"/>
	<image x="1852.5" y="372" width="13" height="13" xlink:href="/assets/eur-red.svg"/>
	<image x="1871.5" y="372" width="13" height="13" xlink:href="/assets/eur-red.svg"/>
	<image x="1890.5" y="372" width="13" height="13" xlink:href="/assets/eur-red.svg"/>
	<image x="1909.5" y="372" width="13" height="13" xlink:href="/assets/eur-red.svg"/>
	<image x="1928.5" y="372" width="13" height="13" xlink:href="/assets/eur-red.svg"/>
	<image x="1947.5" y="372" width="13" height="13" xlink:href="/assets/eur-red.svg"/>
	<image x="1966.5" y="372" width="13" height="13" xlink:href="/assets/eur-red.svg"/>
	<image x="1985.5" y="372" width="13" height="13" xlink:href="/assets/eur-red.svg"/>
	<image x="2003.5" y="372" width="13" height="13" xlink:href="/assets/eur-red.svg"/>
	<image x="2022.5" y="372" width="13" height="13" xlink:href="/assets/eur-red.svg"/>
	<image x="2041.5" y="372" width="13" height="13" xlink:href="/assets/eur-red.svg"/>
	<image x="2060.5" y="372" width="13" height="13" xlink:href="/assets/eur-red.svg"/>
	<image x="2079.5" y="372" width="13" height="13" xlink:href="/assets/eur-yellow.svg"/>
	<image x="2098.5" y="372" width="13" height="13" xlink:href="/assets/eur-yellow.svg"/>
	<image x="2117.5" y="372" width="13" height="13" xlink:href="/assets/eur-yellow.svg"/>
	<image x="2136.5" y="372" width="13" height="13" xlink:href="/assets/eur-yellow.svg"/>
	<image x="2154.5" y="372" width="13" height="13" xlink:href="/assets/eur-green.svg"/>
	<image x="2173.5" y="372" width="13" height="13" xlink:href="/assets/eur-green.svg"/>
	<image x="2192.5" y="372" width="13" height="13" xlink:href="/assets/eur-green.svg"/>
	<image x="2211.5" y="372" width="13" height="13" xlink:href="/assets/eur-green.svg"/>
	<image x="2230.5" y="372" width="13" height="13" xlink:href="/assets/eur-green.svg"/>
	<image x="2249.5" y="372" width="13" height="13" xlink:href="/assets/eur-green.svg"/>
	<image x="2268.5" y="372" width="13" height="13" xlink:href="/assets/eur-green.svg"/>
	<image x="2287.5" y="372" width="13" height="13" xlink:href="/assets/eur-green.svg"/>
	<image x="2305.5" y="372" width="13" height="13" xlink:href="/assets/eur-green.svg"/>
	<image x="2324.5" y="372" width="13" height="13" xlink:href="/assets/eur-green.svg"/>
	<image x="2343.5" y="372" width="13" height="13" xlink:href="/assets/eur-green.svg"/>
	<image x="2362.5" y="372" width="13" height="13" xlink:href="/assets/eur-green.svg"/>
	<path d="M48,282C51.166666666666664,280.6666666666667,60.666666666666664,276.1666666666667,67,274C73.33333333333333,271.8333333333333,79.83333333333333,270.5,86,269C92.16666666666667,267.5,97.83333333333333,266.3333333333333,104,265C110.16666666666667,263.6666666666667,116.66666666666667,261,123,261C129.33333333333334,261,135.66666666666666,262.1666666666667,142,265C148.33333333333334,267.8333333333333,154.66666666666666,274.5,161,278C167.33333333333334,281.5,173.66666666666666,284,180,286C186.33333333333334,288,192.66666666666666,287.8333333333333,199,290C205.33333333333334,292.1666666666667,211.66666666666666,297.5,218,299C224.33333333333334,300.5,230.83333333333334,299,237,299C243.16666666666666,299,248.83333333333334,299.6666666666667,255,299C261.1666666666667,298.3333333333333,267.6666666666667,296.5,274,295C280.3333333333333,293.5,286.6666666666667,291.5,293,290C299.3333333333333,288.5,305.6666666666667,288.6666666666667,312,286C318.3333333333333,283.3333333333333,324.6666666666667,278.8333333333333,331,274C337.3333333333333,269.1666666666667,343.6666666666667,262,350,257C356.3333333333333,252,362.6666666666667,249.66666666666666,369,244C375.3333333333333,238.33333333333334,381.8333333333333,230.66666666666666,388,223C394.1666666666667,215.33333333333334,399.8333333333333,200.83333333333334,406,198C412.1666666666667,195.16666666666666,418.6666666666667,206,425,206C431.3333333333333,206,437.6666666666667,202.16666666666666,444,198C450.3333333333333,193.83333333333334,456.6666666666667,186.66666666666666,463,181C469.3333333333333,175.33333333333334,475.6666666666667,172.5,482,164C488.3333333333333,155.5,494.6666666666667,137,501,130C507.3333333333333,123,513.6666666666666,123.33333333333333,520,122C526.3333333333334,120.66666666666667,532.8333333333334,121.33333333333333,539,122C545.1666666666666,122.66666666666667,550.8333333333334,124,557,126C563.1666666666666,128,569.6666666666666,129.83333333333334,576,134C582.3333333333334,138.16666666666666,588.6666666666666,143.16666666666666,595,151C601.3333333333334,158.83333333333334,607.6666666666666,171.16666666666666,614,181C620.3333333333334,190.83333333333334,626.6666666666666,201.66666666666666,633,210C639.3333333333334,218.33333333333334,645.6666666666666,222.5,652,231C658.3333333333334,239.5,664.8333333333334,250.33333333333334,671,261C677.1666666666666,271.6666666666667,682.8333333333334,286.6666666666667,689,295C695.1666666666666,303.3333333333333,701.6666666666666,306.8333333333333,708,311C714.3333333333334,315.1666666666667,720.6666666666666,320.6666666666667,727,320C733.3333333333334,319.3333333333333,739.6666666666666,313.3333333333333,746,307C752.3333333333334,300.6666666666667,758.6666666666666,291.8333333333333,765,282C771.3333333333334,272.1666666666667,777.6666666666666,258.5,784,248C790.3333333333334,237.5,796.6666666666666,229.5,803,219C809.3333333333334,208.5,815.8333333333334,194.83333333333334,822,185C828.1666666666666,175.16666666666666,833.8333333333334,164.83333333333334,840,160C846.1666666666666,155.16666666666666,852.6666666666666,158.16666666666666,859,156C865.3333333333334,153.83333333333334,871.6666666666666,151.33333333333334,878,147C884.3333333333334,142.66666666666666,890.6666666666666,135.66666666666666,897,130C903.3333333333334,124.33333333333333,909.6666666666666,116.5,916,113C922.3333333333334,109.5,928.6666666666666,109,935,109C941.3333333333334,109,947.6666666666666,113,954,113C960.3333333333334,113,966.8333333333334,109.66666666666667,973,109C979.1666666666666,108.33333333333333,984.8333333333334,109.66666666666667,991,109C997.1666666666666,108.33333333333333,1003.6666666666666,105.66666666666667,1010,105C1016.3333333333334,104.33333333333333,1022.6666666666666,105,1029,105C1035.3333333333333,105,1041.6666666666667,105.66666666666667,1048,105C1054.3333333333333,104.33333333333333,1060.6666666666667,101.66666666666667,1067,101C1073.3333333333333,100.33333333333333,1079.6666666666667,99.66666666666667,1086,101C1092.3333333333333,102.33333333333333,1098.6666666666667,106.16666666666667,1105,109C1111.3333333333333,111.83333333333333,1117.8333333333333,115.16666666666667,1124,118C1130.1666666666667,120.83333333333333,1135.8333333333333,122.5,1142,126C1148.1666666666667,129.5,1154.6666666666667,134,1161,139C1167.3333333333333,144,1173.6666666666667,151.83333333333334,1180,156C1186.3333333333333,160.16666666666666,1192.6666666666667,161.33333333333334,1199,164C1205.3333333333333,166.66666666666666,1211.6666666666667,168.5,1218,172C1224.3333333333333,175.5,1230.6666666666667,178.66666666666666,1237,185C1243.3333333333333,191.33333333333334,1249.8333333333333,203,1256,210C1262.1666666666667,217,1267.8333333333333,219.16666666666666,1274,227C1280.1666666666667,234.83333333333334,1286.6666666666667,246.5,1293,257C1299.3333333333333,267.5,1305.6666666666667,285.1666666666667,1312,290C1318.3333333333333,294.8333333333333,1324.6666666666667,281,1331,286C1337.3333333333333,291,1343.6666666666667,311.5,1350,320C1356.3333333333333,328.5,1362.6666666666667,334.8333333333333,1369,337C1375.3333333333333,339.1666666666667,1381.6666666666667,335.1666666666667,1388,333C1394.3333333333333,330.8333333333333,1400.8333333333333,330.3333333333333,1407,324C1413.1666666666667,317.6666666666667,1418.8333333333333,304.8333333333333,1425,295C1431.1666666666667,285.1666666666667,1437.6666666666667,273.5,1444,265C1450.3333333333333,256.5,1456.6666666666667,246.83333333333334,1463,244C1469.3333333333333,241.16666666666666,1475.6666666666667,247.33333333333334,1482,248C1488.3333333333333,248.66666666666666,1494.6666666666667,249.33333333333334,1501,248C1507.3333333333333,246.66666666666666,1513.6666666666667,240,1520,240C1526.3333333333333,240,1532.6666666666667,246.66666666666666,1539,248C1545.3333333333333,249.33333333333334,1551.8333333333333,247.33333333333334,1558,248C1564.1666666666667,248.66666666666666,1569.8333333333333,250.5,1576,252C1582.1666666666667,253.5,1588.6666666666667,256.1666666666667,1595,257C1601.3333333333333,257.8333333333333,1607.6666666666667,256.3333333333333,1614,257C1620.3333333333333,257.6666666666667,1626.6666666666667,259,1633,261C1639.3333333333333,263,1645.6666666666667,266.1666666666667,1652,269C1658.3333333333333,271.8333333333333,1664.6666666666667,275.8333333333333,1671,278C1677.3333333333333,280.1666666666667,1683.6666666666667,281.3333333333333,1690,282C1696.3333333333333,282.6666666666667,1702.8333333333333,282,1709,282C1715.1666666666667,282,1720.8333333333333,276.3333333333333,1727,282C1733.1666666666667,287.6666666666667,1739.6666666666667,306.8333333333333,1746,316C1752.3333333333333,325.1666666666667,1758.6666666666667,332.8333333333333,1765,337C1771.3333333333333,341.1666666666667,1777.6666666666667,340.3333333333333,1784,341C1790.3333333333333,341.6666666666667,1796.6666666666667,340.3333333333333,1803,341C1809.3333333333333,341.6666666666667,1815.6666666666667,344.3333333333333,1822,345C1828.3333333333333,345.6666666666667,1834.8333333333333,345.6666666666667,1841,345C1847.1666666666667,344.3333333333333,1852.8333333333333,343,1859,341C1865.1666666666667,339,1871.6666666666667,333,1878,333C1884.3333333333333,333,1890.6666666666667,337.5,1897,341C1903.3333333333333,344.5,1909.6666666666667,351.8333333333333,1916,354C1922.3333333333333,356.1666666666667,1928.6666666666667,354.8333333333333,1935,354C1941.3333333333333,353.1666666666667,1947.6666666666667,349,1954,349C1960.3333333333333,349,1966.6666666666667,354.6666666666667,1973,354C1979.3333333333333,353.3333333333333,1985.8333333333333,347.8333333333333,1992,345C1998.1666666666667,342.1666666666667,2003.8333333333333,339.8333333333333,2010,337C2016.1666666666667,334.1666666666667,2022.6666666666667,326.6666666666667,2029,328C2035.3333333333333,329.3333333333333,2041.6666666666667,342.8333333333333,2048,345C2054.3333333333335,347.1666666666667,2060.6666666666665,350.1666666666667,2067,341C2073.3333333333335,331.8333333333333,2079.6666666666665,296.3333333333333,2086,290C2092.3333333333335,283.6666666666667,2098.6666666666665,307.8333333333333,2105,303C2111.3333333333335,298.1666666666667,2117.6666666666665,266.6666666666667,2124,261C2130.3333333333335,255.33333333333334,2136.8333333333335,271.1666666666667,2143,269C2149.1666666666665,266.8333333333333,2154.8333333333335,250,2161,248C2167.1666666666665,246,2173.6666666666665,259.8333333333333,2180,257C2186.3333333333335,254.16666666666666,2192.6666666666665,243,2199,231C2205.3333333333335,219,2211.6666666666665,205.33333333333334,2218,185C2224.3333333333335,164.66666666666666,2230.6666666666665,116,2237,109C2243.3333333333335,102,2249.6666666666665,129.66666666666666,2256,143C2262.3333333333335,156.33333333333334,2268.6666666666665,172.83333333333334,2275,189C2281.3333333333335,205.16666666666666,2287.8333333333335,244.16666666666666,2294,240C2300.1666666666665,235.83333333333334,2305.8333333333335,187.16666666666666,2312,164C2318.1666666666665,140.83333333333334,2324.6666666666665,112.16666666666667,2331,101C2337.3333333333335,89.83333333333333,2343.6666666666665,89.33333333333333,2350,97C2356.3333333333335,104.66666666666667,2365.8333333333335,138.66666666666666,2369,147" stroke="green" stroke-width="2.5" fill="none"/>
	<path d="M48,257C51.166666666666664,257,60.666666666666664,257.3333333333333,67,257C73.33333333333333,256.6666666666667,79.83333333333333,255,86,255C92.16666666666667,255,97.83333333333333,256.6666666666667,104,257C110.16666666666667,257.3333333333333,116.66666666666667,257,123,257C129.33333333333334,257,135.66666666666666,256.6666666666667,142,257C148.33333333333334,257.3333333333333,154.66666666666666,258.6666666666667,161,259C167.33333333333334,259.3333333333333,173.66666666666666,259,180,259C186.33333333333334,259,192.66666666666666,259,199,259C205.33333333333334,259,211.66666666666666,258.6666666666667,218,259C224.33333333333334,259.3333333333333,230.83333333333334,260.6666666666667,237,261C243.16666666666666,261.3333333333333,248.83333333333334,261,255,261C261.1666666666667,261,267.6666666666667,261,274,261C280.3333333333333,261,286.6666666666667,261,293,261C299.3333333333333,261,305.6666666666667,261,312,261C318.3333333333333,261,324.6666666666667,261,331,261C337.3333333333333,261,343.6666666666667,261,350,261C356.3333333333333,261,362.6666666666667,261,369,261C375.3333333333333,261,381.8333333333333,261,388,261C394.1666666666667,261,399.8333333333333,260.6666666666667,406,261C412.1666666666667,261.3333333333333,418.6666666666667,262.6666666666667,425,263C431.3333333333333,263.3333333333333,437.6666666666667,263,444,263C450.3333333333333,263,456.6666666666667,263,463,263C469.3333333333333,263,475.6666666666667,262.6666666666667,482,263C488.3333333333333,263.3333333333333,494.6666666666667,264.6666666666667,501,265C507.3333333333333,265.3333333333333,513.6666666666666,264.6666666666667,520,265C526.3333333333334,265.3333333333333,532.8333333333334,266.3333333333333,539,267C545.1666666666666,267.6666666666667,550.8333333333334,268.6666666666667,557,269C563.1666666666666,269.3333333333333,569.6666666666666,268.6666666666667,576,269C582.3333333333334,269.3333333333333,588.6666666666666,270.1666666666667,595,271C601.3333333333334,271.8333333333333,607.6666666666666,273.1666666666667,614,274C620.3333333333334,274.8333333333333,626.6666666666666,275.6666666666667,633,276C639.3333333333334,276.3333333333333,645.6666666666666,276,652,276C658.3333333333334,276,664.8333333333334,276,671,276C677.1666666666666,276,682.8333333333334,276,689,276C695.1666666666666,276,701.6666666666666,276,708,276C714.3333333333334,276,720.6666666666666,276,727,276C733.3333333333334,276,739.6666666666666,276,746,276C752.3333333333334,276,758.6666666666666,276.3333333333333,765,276C771.3333333333334,275.6666666666667,777.6666666666666,274.8333333333333,784,274C790.3333333333334,273.1666666666667,796.6666666666666,271.8333333333333,803,271C809.3333333333334,270.1666666666667,815.8333333333334,269.3333333333333,822,269C828.1666666666666,268.6666666666667,833.8333333333334,269.3333333333333,840,269C846.1666666666666,268.6666666666667,852.6666666666666,267.6666666666667,859,267C865.3333333333334,266.3333333333333,871.6666666666666,265.3333333333333,878,265C884.3333333333334,264.6666666666667,890.6666666666666,265,897,265C903.3333333333334,265,909.6666666666666,265.3333333333333,916,265C922.3333333333334,264.6666666666667,928.6666666666666,263.6666666666667,935,263C941.3333333333334,262.3333333333333,947.6666666666666,261.6666666666667,954,261C960.3333333333334,260.3333333333333,966.8333333333334,259.3333333333333,973,259C979.1666666666666,258.6666666666667,984.8333333333334,259.3333333333333,991,259C997.1666666666666,258.6666666666667,1003.6666666666666,257.6666666666667,1010,257C1016.3333333333334,256.3333333333333,1022.6666666666666,255.83333333333334,1029,255C1035.3333333333333,254.16666666666666,1041.6666666666667,253.16666666666666,1048,252C1054.3333333333333,250.83333333333334,1060.6666666666667,249.33333333333334,1067,248C1073.3333333333333,246.66666666666666,1079.6666666666667,245.33333333333334,1086,244C1092.3333333333333,242.66666666666666,1098.6666666666667,241,1105,240C1111.3333333333333,239,1117.8333333333333,239.16666666666666,1124,238C1130.1666666666667,236.83333333333334,1135.8333333333333,234.16666666666666,1142,233C1148.1666666666667,231.83333333333334,1154.6666666666667,232,1161,231C1167.3333333333333,230,1173.6666666666667,228,1180,227C1186.3333333333333,226,1192.6666666666667,225.66666666666666,1199,225C1205.3333333333333,224.33333333333334,1211.6666666666667,223.66666666666666,1218,223C1224.3333333333333,222.33333333333334,1230.6666666666667,221.33333333333334,1237,221C1243.3333333333333,220.66666666666666,1249.8333333333333,221.33333333333334,1256,221C1262.1666666666667,220.66666666666666,1267.8333333333333,219.33333333333334,1274,219C1280.1666666666667,218.66666666666666,1286.6666666666667,218,1293,219C1299.3333333333333,220,1305.6666666666667,223,1312,225C1318.3333333333333,227,1324.6666666666667,228.83333333333334,1331,231C1337.3333333333333,233.16666666666666,1343.6666666666667,236.16666666666666,1350,238C1356.3333333333333,239.83333333333334,1362.6666666666667,241,1369,242C1375.3333333333333,243,1381.6666666666667,243.66666666666666,1388,244C1394.3333333333333,244.33333333333334,1400.8333333333333,244.33333333333334,1407,244C1413.1666666666667,243.66666666666666,1418.8333333333333,243.33333333333334,1425,242C1431.1666666666667,240.66666666666666,1437.6666666666667,237.83333333333334,1444,236C1450.3333333333333,234.16666666666666,1456.6666666666667,232.16666666666666,1463,231C1469.3333333333333,229.83333333333334,1475.6666666666667,229.66666666666666,1482,229C1488.3333333333333,228.33333333333334,1494.6666666666667,227.66666666666666,1501,227C1507.3333333333333,226.33333333333334,1513.6666666666667,225.33333333333334,1520,225C1526.3333333333333,224.66666666666666,1532.6666666666667,224.33333333333334,1539,225C1545.3333333333333,225.66666666666666,1551.8333333333333,228,1558,229C1564.1666666666667,230,1569.8333333333333,230.33333333333334,1576,231C1582.1666666666667,231.66666666666666,1588.6666666666667,232.16666666666666,1595,233C1601.3333333333333,233.83333333333334,1607.6666666666667,235.16666666666666,1614,236C1620.3333333333333,236.83333333333334,1626.6666666666667,237.33333333333334,1633,238C1639.3333333333333,238.66666666666666,1645.6666666666667,239.66666666666666,1652,240C1658.3333333333333,240.33333333333334,1664.6666666666667,239.66666666666666,1671,240C1677.3333333333333,240.33333333333334,1683.6666666666667,241.66666666666666,1690,242C1696.3333333333333,242.33333333333334,1702.8333333333333,241.66666666666666,1709,242C1715.1666666666667,242.33333333333334,1720.8333333333333,242.33333333333334,1727,244C1733.1666666666667,245.66666666666666,1739.6666666666667,249.83333333333334,1746,252C1752.3333333333333,254.16666666666666,1758.6666666666667,256.1666666666667,1765,257C1771.3333333333333,257.8333333333333,1777.6666666666667,257,1784,257C1790.3333333333333,257,1796.6666666666667,257,1803,257C1809.3333333333333,257,1815.6666666666667,257,1822,257C1828.3333333333333,257,1834.8333333333333,257.3333333333333,1841,257C1847.1666666666667,256.6666666666667,1852.8333333333333,255.83333333333334,1859,255C1865.1666666666667,254.16666666666666,1871.6666666666667,251.66666666666666,1878,252C1884.3333333333333,252.33333333333334,1890.6666666666667,255.5,1897,257C1903.3333333333333,258.5,1909.6666666666667,260.6666666666667,1916,261C1922.3333333333333,261.3333333333333,1928.6666666666667,259.6666666666667,1935,259C1941.3333333333333,258.3333333333333,1947.6666666666667,257.6666666666667,1954,257C1960.3333333333333,256.3333333333333,1966.6666666666667,255,1973,255C1979.3333333333333,255,1985.8333333333333,256.6666666666667,1992,257C1998.1666666666667,257.3333333333333,2003.8333333333333,257,2010,257C2016.1666666666667,257,2022.6666666666667,256,2029,257C2035.3333333333333,258,2041.6666666666667,261,2048,263C2054.3333333333335,265,2060.6666666666665,268.3333333333333,2067,269C2073.3333333333335,269.6666666666667,2079.6666666666665,267.3333333333333,2086,267C2092.3333333333335,266.6666666666667,2098.6666666666665,267,2105,267C2111.3333333333335,267,2117.6666666666665,265.8333333333333,2124,267C2130.3333333333335,268.1666666666667,2136.8333333333335,273.3333333333333,2143,274C2149.1666666666665,274.6666666666667,2154.8333333333335,271.8333333333333,2161,271C2167.1666666666665,270.1666666666667,2173.6666666666665,269.6666666666667,2180,269C2186.3333333333335,268.3333333333333,2192.6666666666665,265.8333333333333,2199,267C2205.3333333333335,268.1666666666667,2211.6666666666665,274.8333333333333,2218,276C2224.3333333333335,277.1666666666667,2230.6666666666665,274.3333333333333,2237,274C2243.3333333333335,273.6666666666667,2249.6666666666665,274.5,2256,274C2262.3333333333335,273.5,2268.6666666666665,270,2275,271C2281.3333333333335,272,2287.8333333333335,279.1666666666667,2294,280C2300.1666666666665,280.8333333333333,2305.8333333333335,276,2312,276C2318.1666666666665,276,2324.6666666666665,280.3333333333333,2331,280C2337.3333333333335,279.6666666666667,2343.6666666666665,274.6666666666667,2350,274C2356.3333333333335,273.3333333333333,2365.8333333333335,275.6666666666667,2369,276" stroke="#dd9d30" stroke-width="2.5" fill="none"/>
	<path d="M29,362V67M2369,362V67Z"/>
</svg>
